G04 EAGLE Gerber RS-274X export*
G75*
%MOMM*%
%FSLAX34Y34*%
%LPD*%
%INSolder stop bottom*%
%IPPOS*%
%AMOC8*
5,1,8,0,0,1.08239X$1,22.5*%
G01*
%ADD10C,0.000000*%
%ADD11C,5.203200*%
%ADD12C,0.152400*%
%ADD13C,1.600200*%
%ADD14R,1.524000X1.524000*%
%ADD15C,1.524000*%
%ADD16R,58.000000X9.000000*%
%ADD17R,1.711200X1.711200*%
%ADD18C,1.711200*%
%ADD19C,0.177800*%
%ADD20C,0.203200*%
%ADD21C,0.127000*%
%ADD22R,5.203200X2.703200*%
%ADD23R,1.828800X1.828800*%
%ADD24C,1.828800*%
%ADD25R,1.411200X1.411200*%
%ADD26C,1.411200*%


D10*
X0Y110000D02*
X0Y180000D01*
X-3Y180242D01*
X-12Y180483D01*
X-26Y180724D01*
X-47Y180965D01*
X-73Y181205D01*
X-105Y181445D01*
X-143Y181684D01*
X-186Y181921D01*
X-236Y182158D01*
X-291Y182393D01*
X-351Y182627D01*
X-418Y182859D01*
X-489Y183090D01*
X-567Y183319D01*
X-650Y183546D01*
X-738Y183771D01*
X-832Y183994D01*
X-931Y184214D01*
X-1036Y184432D01*
X-1145Y184647D01*
X-1260Y184860D01*
X-1380Y185070D01*
X-1505Y185276D01*
X-1635Y185480D01*
X-1770Y185681D01*
X-1910Y185878D01*
X-2054Y186072D01*
X-2203Y186262D01*
X-2357Y186448D01*
X-2515Y186631D01*
X-2677Y186810D01*
X-2844Y186985D01*
X-3015Y187156D01*
X-3190Y187323D01*
X-3369Y187485D01*
X-3552Y187643D01*
X-3738Y187797D01*
X-3928Y187946D01*
X-4122Y188090D01*
X-4319Y188230D01*
X-4520Y188365D01*
X-4724Y188495D01*
X-4930Y188620D01*
X-5140Y188740D01*
X-5353Y188855D01*
X-5568Y188964D01*
X-5786Y189069D01*
X-6006Y189168D01*
X-6229Y189262D01*
X-6454Y189350D01*
X-6681Y189433D01*
X-6910Y189511D01*
X-7141Y189582D01*
X-7373Y189649D01*
X-7607Y189709D01*
X-7842Y189764D01*
X-8079Y189814D01*
X-8316Y189857D01*
X-8555Y189895D01*
X-8795Y189927D01*
X-9035Y189953D01*
X-9276Y189974D01*
X-9517Y189988D01*
X-9758Y189997D01*
X-10000Y190000D01*
X-26000Y190000D01*
X-26000Y450000D02*
X-10000Y450000D01*
X-9758Y450003D01*
X-9517Y450012D01*
X-9276Y450026D01*
X-9035Y450047D01*
X-8795Y450073D01*
X-8555Y450105D01*
X-8316Y450143D01*
X-8079Y450186D01*
X-7842Y450236D01*
X-7607Y450291D01*
X-7373Y450351D01*
X-7141Y450418D01*
X-6910Y450489D01*
X-6681Y450567D01*
X-6454Y450650D01*
X-6229Y450738D01*
X-6006Y450832D01*
X-5786Y450931D01*
X-5568Y451036D01*
X-5353Y451145D01*
X-5140Y451260D01*
X-4930Y451380D01*
X-4724Y451505D01*
X-4520Y451635D01*
X-4319Y451770D01*
X-4122Y451910D01*
X-3928Y452054D01*
X-3738Y452203D01*
X-3552Y452357D01*
X-3369Y452515D01*
X-3190Y452677D01*
X-3015Y452844D01*
X-2844Y453015D01*
X-2677Y453190D01*
X-2515Y453369D01*
X-2357Y453552D01*
X-2203Y453738D01*
X-2054Y453928D01*
X-1910Y454122D01*
X-1770Y454319D01*
X-1635Y454520D01*
X-1505Y454724D01*
X-1380Y454930D01*
X-1260Y455140D01*
X-1145Y455353D01*
X-1036Y455568D01*
X-931Y455786D01*
X-832Y456006D01*
X-738Y456229D01*
X-650Y456454D01*
X-567Y456681D01*
X-489Y456910D01*
X-418Y457141D01*
X-351Y457373D01*
X-291Y457607D01*
X-236Y457842D01*
X-186Y458079D01*
X-143Y458316D01*
X-105Y458555D01*
X-73Y458795D01*
X-47Y459035D01*
X-26Y459276D01*
X-12Y459517D01*
X-3Y459758D01*
X0Y460000D01*
X0Y489000D01*
X35000Y489000D01*
X35278Y488968D01*
X35557Y488941D01*
X35837Y488922D01*
X36117Y488909D01*
X36397Y488903D01*
X36677Y488904D01*
X36958Y488912D01*
X37237Y488926D01*
X37517Y488948D01*
X37796Y488976D01*
X38074Y489010D01*
X38351Y489052D01*
X38627Y489100D01*
X38902Y489154D01*
X39175Y489216D01*
X39447Y489284D01*
X39717Y489358D01*
X39986Y489439D01*
X40252Y489527D01*
X40516Y489621D01*
X40778Y489721D01*
X41037Y489827D01*
X41293Y489940D01*
X41547Y490059D01*
X41798Y490184D01*
X42046Y490315D01*
X42290Y490452D01*
X42531Y490595D01*
X42769Y490743D01*
X43003Y490898D01*
X43233Y491058D01*
X43459Y491223D01*
X43681Y491394D01*
X43899Y491570D01*
X44113Y491752D01*
X44322Y491938D01*
X44527Y492130D01*
X44727Y492326D01*
X44922Y492527D01*
X45112Y492733D01*
X45297Y492943D01*
X45477Y493158D01*
X45652Y493377D01*
X45821Y493600D01*
X45985Y493828D01*
X46144Y494059D01*
X46297Y494294D01*
X46444Y494532D01*
X46585Y494774D01*
X46720Y495020D01*
X46850Y495268D01*
X46973Y495520D01*
X47091Y495774D01*
X47202Y496032D01*
X47306Y496292D01*
X47405Y496554D01*
X47497Y496819D01*
X47583Y497085D01*
X47662Y497354D01*
X47735Y497625D01*
X47801Y497897D01*
X47861Y498171D01*
X47914Y498446D01*
X47960Y498723D01*
X48000Y499000D01*
X48000Y660000D01*
X532000Y660000D02*
X532000Y499000D01*
X532041Y498718D01*
X532088Y498438D01*
X532142Y498158D01*
X532203Y497880D01*
X532271Y497604D01*
X532345Y497329D01*
X532426Y497056D01*
X532514Y496785D01*
X532608Y496517D01*
X532709Y496251D01*
X532817Y495987D01*
X532931Y495726D01*
X533051Y495469D01*
X533178Y495214D01*
X533311Y494962D01*
X533450Y494714D01*
X533595Y494469D01*
X533746Y494227D01*
X533903Y493990D01*
X534065Y493756D01*
X534234Y493527D01*
X534408Y493301D01*
X534587Y493081D01*
X534772Y492864D01*
X534962Y492652D01*
X535157Y492445D01*
X535357Y492243D01*
X535562Y492045D01*
X535772Y491853D01*
X535987Y491666D01*
X536206Y491484D01*
X536429Y491308D01*
X536657Y491137D01*
X536889Y490972D01*
X537125Y490813D01*
X537364Y490659D01*
X537608Y490512D01*
X537854Y490370D01*
X538105Y490234D01*
X538358Y490105D01*
X538615Y489982D01*
X538875Y489865D01*
X539137Y489755D01*
X539402Y489651D01*
X539669Y489554D01*
X539939Y489463D01*
X540211Y489379D01*
X540485Y489302D01*
X540761Y489231D01*
X541038Y489167D01*
X541317Y489110D01*
X541597Y489060D01*
X541879Y489017D01*
X542161Y488981D01*
X542444Y488951D01*
X542728Y488929D01*
X543012Y488913D01*
X543296Y488905D01*
X543581Y488903D01*
X543866Y488909D01*
X544150Y488921D01*
X544434Y488941D01*
X544717Y488967D01*
X545000Y489000D01*
X580000Y489000D01*
X580000Y460000D01*
X580003Y459758D01*
X580012Y459517D01*
X580026Y459276D01*
X580047Y459035D01*
X580073Y458795D01*
X580105Y458555D01*
X580143Y458316D01*
X580186Y458079D01*
X580236Y457842D01*
X580291Y457607D01*
X580351Y457373D01*
X580418Y457141D01*
X580489Y456910D01*
X580567Y456681D01*
X580650Y456454D01*
X580738Y456229D01*
X580832Y456006D01*
X580931Y455786D01*
X581036Y455568D01*
X581145Y455353D01*
X581260Y455140D01*
X581380Y454930D01*
X581505Y454724D01*
X581635Y454520D01*
X581770Y454319D01*
X581910Y454122D01*
X582054Y453928D01*
X582203Y453738D01*
X582357Y453552D01*
X582515Y453369D01*
X582677Y453190D01*
X582844Y453015D01*
X583015Y452844D01*
X583190Y452677D01*
X583369Y452515D01*
X583552Y452357D01*
X583738Y452203D01*
X583928Y452054D01*
X584122Y451910D01*
X584319Y451770D01*
X584520Y451635D01*
X584724Y451505D01*
X584930Y451380D01*
X585140Y451260D01*
X585353Y451145D01*
X585568Y451036D01*
X585786Y450931D01*
X586006Y450832D01*
X586229Y450738D01*
X586454Y450650D01*
X586681Y450567D01*
X586910Y450489D01*
X587141Y450418D01*
X587373Y450351D01*
X587607Y450291D01*
X587842Y450236D01*
X588079Y450186D01*
X588316Y450143D01*
X588555Y450105D01*
X588795Y450073D01*
X589035Y450047D01*
X589276Y450026D01*
X589517Y450012D01*
X589758Y450003D01*
X590000Y450000D01*
X607000Y450000D01*
X265000Y439000D02*
X265008Y439614D01*
X265030Y440227D01*
X265068Y440839D01*
X265120Y441450D01*
X265188Y442060D01*
X265271Y442668D01*
X265368Y443274D01*
X265480Y443877D01*
X265607Y444478D01*
X265749Y445075D01*
X265906Y445668D01*
X266076Y446257D01*
X266262Y446842D01*
X266461Y447422D01*
X266675Y447997D01*
X266903Y448567D01*
X267145Y449131D01*
X267400Y449689D01*
X267669Y450240D01*
X267952Y450785D01*
X268248Y451322D01*
X268557Y451853D01*
X268879Y452375D01*
X269213Y452889D01*
X269560Y453395D01*
X269920Y453892D01*
X270291Y454381D01*
X270675Y454860D01*
X271070Y455329D01*
X271476Y455789D01*
X271894Y456239D01*
X272322Y456678D01*
X272761Y457106D01*
X273211Y457524D01*
X273671Y457930D01*
X274140Y458325D01*
X274619Y458709D01*
X275108Y459080D01*
X275605Y459440D01*
X276111Y459787D01*
X276625Y460121D01*
X277147Y460443D01*
X277678Y460752D01*
X278215Y461048D01*
X278760Y461331D01*
X279311Y461600D01*
X279869Y461855D01*
X280433Y462097D01*
X281003Y462325D01*
X281578Y462539D01*
X282158Y462738D01*
X282743Y462924D01*
X283332Y463094D01*
X283925Y463251D01*
X284522Y463393D01*
X285123Y463520D01*
X285726Y463632D01*
X286332Y463729D01*
X286940Y463812D01*
X287550Y463880D01*
X288161Y463932D01*
X288773Y463970D01*
X289386Y463992D01*
X290000Y464000D01*
X290614Y463992D01*
X291227Y463970D01*
X291839Y463932D01*
X292450Y463880D01*
X293060Y463812D01*
X293668Y463729D01*
X294274Y463632D01*
X294877Y463520D01*
X295478Y463393D01*
X296075Y463251D01*
X296668Y463094D01*
X297257Y462924D01*
X297842Y462738D01*
X298422Y462539D01*
X298997Y462325D01*
X299567Y462097D01*
X300131Y461855D01*
X300689Y461600D01*
X301240Y461331D01*
X301785Y461048D01*
X302322Y460752D01*
X302853Y460443D01*
X303375Y460121D01*
X303889Y459787D01*
X304395Y459440D01*
X304892Y459080D01*
X305381Y458709D01*
X305860Y458325D01*
X306329Y457930D01*
X306789Y457524D01*
X307239Y457106D01*
X307678Y456678D01*
X308106Y456239D01*
X308524Y455789D01*
X308930Y455329D01*
X309325Y454860D01*
X309709Y454381D01*
X310080Y453892D01*
X310440Y453395D01*
X310787Y452889D01*
X311121Y452375D01*
X311443Y451853D01*
X311752Y451322D01*
X312048Y450785D01*
X312331Y450240D01*
X312600Y449689D01*
X312855Y449131D01*
X313097Y448567D01*
X313325Y447997D01*
X313539Y447422D01*
X313738Y446842D01*
X313924Y446257D01*
X314094Y445668D01*
X314251Y445075D01*
X314393Y444478D01*
X314520Y443877D01*
X314632Y443274D01*
X314729Y442668D01*
X314812Y442060D01*
X314880Y441450D01*
X314932Y440839D01*
X314970Y440227D01*
X314992Y439614D01*
X315000Y439000D01*
X314992Y438386D01*
X314970Y437773D01*
X314932Y437161D01*
X314880Y436550D01*
X314812Y435940D01*
X314729Y435332D01*
X314632Y434726D01*
X314520Y434123D01*
X314393Y433522D01*
X314251Y432925D01*
X314094Y432332D01*
X313924Y431743D01*
X313738Y431158D01*
X313539Y430578D01*
X313325Y430003D01*
X313097Y429433D01*
X312855Y428869D01*
X312600Y428311D01*
X312331Y427760D01*
X312048Y427215D01*
X311752Y426678D01*
X311443Y426147D01*
X311121Y425625D01*
X310787Y425111D01*
X310440Y424605D01*
X310080Y424108D01*
X309709Y423619D01*
X309325Y423140D01*
X308930Y422671D01*
X308524Y422211D01*
X308106Y421761D01*
X307678Y421322D01*
X307239Y420894D01*
X306789Y420476D01*
X306329Y420070D01*
X305860Y419675D01*
X305381Y419291D01*
X304892Y418920D01*
X304395Y418560D01*
X303889Y418213D01*
X303375Y417879D01*
X302853Y417557D01*
X302322Y417248D01*
X301785Y416952D01*
X301240Y416669D01*
X300689Y416400D01*
X300131Y416145D01*
X299567Y415903D01*
X298997Y415675D01*
X298422Y415461D01*
X297842Y415262D01*
X297257Y415076D01*
X296668Y414906D01*
X296075Y414749D01*
X295478Y414607D01*
X294877Y414480D01*
X294274Y414368D01*
X293668Y414271D01*
X293060Y414188D01*
X292450Y414120D01*
X291839Y414068D01*
X291227Y414030D01*
X290614Y414008D01*
X290000Y414000D01*
X289386Y414008D01*
X288773Y414030D01*
X288161Y414068D01*
X287550Y414120D01*
X286940Y414188D01*
X286332Y414271D01*
X285726Y414368D01*
X285123Y414480D01*
X284522Y414607D01*
X283925Y414749D01*
X283332Y414906D01*
X282743Y415076D01*
X282158Y415262D01*
X281578Y415461D01*
X281003Y415675D01*
X280433Y415903D01*
X279869Y416145D01*
X279311Y416400D01*
X278760Y416669D01*
X278215Y416952D01*
X277678Y417248D01*
X277147Y417557D01*
X276625Y417879D01*
X276111Y418213D01*
X275605Y418560D01*
X275108Y418920D01*
X274619Y419291D01*
X274140Y419675D01*
X273671Y420070D01*
X273211Y420476D01*
X272761Y420894D01*
X272322Y421322D01*
X271894Y421761D01*
X271476Y422211D01*
X271070Y422671D01*
X270675Y423140D01*
X270291Y423619D01*
X269920Y424108D01*
X269560Y424605D01*
X269213Y425111D01*
X268879Y425625D01*
X268557Y426147D01*
X268248Y426678D01*
X267952Y427215D01*
X267669Y427760D01*
X267400Y428311D01*
X267145Y428869D01*
X266903Y429433D01*
X266675Y430003D01*
X266461Y430578D01*
X266262Y431158D01*
X266076Y431743D01*
X265906Y432332D01*
X265749Y432925D01*
X265607Y433522D01*
X265480Y434123D01*
X265368Y434726D01*
X265271Y435332D01*
X265188Y435940D01*
X265120Y436550D01*
X265068Y437161D01*
X265030Y437773D01*
X265008Y438386D01*
X265000Y439000D01*
D11*
X290000Y439000D03*
D12*
X348837Y1031731D02*
X353353Y1035343D01*
X353353Y1019087D01*
X357868Y1019087D02*
X348837Y1019087D01*
X364468Y1028118D02*
X369887Y1028118D01*
X370005Y1028116D01*
X370123Y1028110D01*
X370241Y1028101D01*
X370358Y1028087D01*
X370475Y1028070D01*
X370592Y1028049D01*
X370707Y1028024D01*
X370822Y1027995D01*
X370936Y1027962D01*
X371048Y1027926D01*
X371159Y1027886D01*
X371269Y1027843D01*
X371378Y1027796D01*
X371485Y1027746D01*
X371590Y1027691D01*
X371693Y1027634D01*
X371794Y1027573D01*
X371894Y1027509D01*
X371991Y1027442D01*
X372086Y1027372D01*
X372178Y1027298D01*
X372269Y1027222D01*
X372356Y1027142D01*
X372441Y1027060D01*
X372523Y1026975D01*
X372603Y1026888D01*
X372679Y1026797D01*
X372753Y1026705D01*
X372823Y1026610D01*
X372890Y1026513D01*
X372954Y1026413D01*
X373015Y1026312D01*
X373072Y1026209D01*
X373127Y1026104D01*
X373177Y1025997D01*
X373224Y1025888D01*
X373267Y1025778D01*
X373307Y1025667D01*
X373343Y1025555D01*
X373376Y1025441D01*
X373405Y1025326D01*
X373430Y1025211D01*
X373451Y1025094D01*
X373468Y1024977D01*
X373482Y1024860D01*
X373491Y1024742D01*
X373497Y1024624D01*
X373499Y1024506D01*
X373499Y1023603D01*
X373500Y1023603D02*
X373498Y1023470D01*
X373492Y1023338D01*
X373482Y1023206D01*
X373469Y1023074D01*
X373451Y1022942D01*
X373430Y1022812D01*
X373405Y1022681D01*
X373376Y1022552D01*
X373343Y1022424D01*
X373307Y1022296D01*
X373267Y1022170D01*
X373223Y1022045D01*
X373175Y1021921D01*
X373124Y1021799D01*
X373069Y1021678D01*
X373011Y1021559D01*
X372949Y1021441D01*
X372884Y1021326D01*
X372815Y1021212D01*
X372744Y1021101D01*
X372668Y1020992D01*
X372590Y1020885D01*
X372509Y1020780D01*
X372424Y1020678D01*
X372337Y1020578D01*
X372247Y1020481D01*
X372154Y1020386D01*
X372058Y1020295D01*
X371960Y1020206D01*
X371859Y1020120D01*
X371755Y1020037D01*
X371649Y1019957D01*
X371541Y1019881D01*
X371431Y1019807D01*
X371318Y1019737D01*
X371204Y1019670D01*
X371087Y1019607D01*
X370969Y1019547D01*
X370849Y1019490D01*
X370727Y1019437D01*
X370604Y1019388D01*
X370480Y1019342D01*
X370354Y1019300D01*
X370227Y1019262D01*
X370099Y1019227D01*
X369970Y1019196D01*
X369841Y1019169D01*
X369710Y1019146D01*
X369579Y1019126D01*
X369447Y1019111D01*
X369315Y1019099D01*
X369183Y1019091D01*
X369050Y1019087D01*
X368918Y1019087D01*
X368785Y1019091D01*
X368653Y1019099D01*
X368521Y1019111D01*
X368389Y1019126D01*
X368258Y1019146D01*
X368127Y1019169D01*
X367998Y1019196D01*
X367869Y1019227D01*
X367741Y1019262D01*
X367614Y1019300D01*
X367488Y1019342D01*
X367364Y1019388D01*
X367241Y1019437D01*
X367119Y1019490D01*
X366999Y1019547D01*
X366881Y1019607D01*
X366764Y1019670D01*
X366650Y1019737D01*
X366537Y1019807D01*
X366427Y1019881D01*
X366319Y1019957D01*
X366213Y1020037D01*
X366109Y1020120D01*
X366008Y1020206D01*
X365910Y1020295D01*
X365814Y1020386D01*
X365721Y1020481D01*
X365631Y1020578D01*
X365544Y1020678D01*
X365459Y1020780D01*
X365378Y1020885D01*
X365300Y1020992D01*
X365224Y1021101D01*
X365153Y1021212D01*
X365084Y1021326D01*
X365019Y1021441D01*
X364957Y1021559D01*
X364899Y1021678D01*
X364844Y1021799D01*
X364793Y1021921D01*
X364745Y1022045D01*
X364701Y1022170D01*
X364661Y1022296D01*
X364625Y1022424D01*
X364592Y1022552D01*
X364563Y1022681D01*
X364538Y1022812D01*
X364517Y1022942D01*
X364499Y1023074D01*
X364486Y1023206D01*
X364476Y1023338D01*
X364470Y1023470D01*
X364468Y1023603D01*
X364468Y1028118D01*
X364470Y1028295D01*
X364477Y1028473D01*
X364488Y1028650D01*
X364503Y1028826D01*
X364522Y1029002D01*
X364546Y1029178D01*
X364574Y1029353D01*
X364607Y1029528D01*
X364644Y1029701D01*
X364685Y1029874D01*
X364730Y1030045D01*
X364779Y1030215D01*
X364833Y1030384D01*
X364890Y1030552D01*
X364952Y1030718D01*
X365018Y1030883D01*
X365088Y1031046D01*
X365162Y1031207D01*
X365239Y1031366D01*
X365321Y1031524D01*
X365407Y1031679D01*
X365496Y1031832D01*
X365589Y1031983D01*
X365686Y1032132D01*
X365786Y1032278D01*
X365890Y1032422D01*
X365997Y1032563D01*
X366108Y1032701D01*
X366222Y1032837D01*
X366340Y1032970D01*
X366460Y1033100D01*
X366584Y1033227D01*
X366711Y1033351D01*
X366841Y1033471D01*
X366974Y1033589D01*
X367109Y1033703D01*
X367248Y1033814D01*
X367389Y1033921D01*
X367533Y1034025D01*
X367679Y1034125D01*
X367828Y1034222D01*
X367979Y1034315D01*
X368132Y1034404D01*
X368287Y1034490D01*
X368445Y1034572D01*
X368604Y1034649D01*
X368765Y1034723D01*
X368928Y1034793D01*
X369093Y1034859D01*
X369259Y1034921D01*
X369427Y1034978D01*
X369596Y1035032D01*
X369766Y1035081D01*
X369937Y1035126D01*
X370110Y1035167D01*
X370283Y1035204D01*
X370458Y1035237D01*
X370633Y1035265D01*
X370809Y1035289D01*
X370985Y1035308D01*
X371161Y1035323D01*
X371338Y1035334D01*
X371516Y1035341D01*
X371693Y1035343D01*
X383712Y1035343D02*
X380099Y1022699D01*
X389131Y1022699D01*
X386421Y1019087D02*
X386421Y1026312D01*
X395870Y1025409D02*
X406707Y1025409D01*
X418413Y1035343D02*
X418538Y1035341D01*
X418663Y1035335D01*
X418788Y1035326D01*
X418912Y1035312D01*
X419036Y1035295D01*
X419160Y1035274D01*
X419282Y1035249D01*
X419404Y1035220D01*
X419525Y1035188D01*
X419645Y1035152D01*
X419764Y1035112D01*
X419881Y1035069D01*
X419997Y1035022D01*
X420112Y1034971D01*
X420224Y1034917D01*
X420336Y1034859D01*
X420445Y1034799D01*
X420552Y1034734D01*
X420658Y1034667D01*
X420761Y1034596D01*
X420862Y1034522D01*
X420961Y1034445D01*
X421057Y1034365D01*
X421151Y1034282D01*
X421242Y1034197D01*
X421331Y1034108D01*
X421416Y1034017D01*
X421499Y1033923D01*
X421579Y1033827D01*
X421656Y1033728D01*
X421730Y1033627D01*
X421801Y1033524D01*
X421868Y1033418D01*
X421933Y1033311D01*
X421993Y1033202D01*
X422051Y1033090D01*
X422105Y1032978D01*
X422156Y1032863D01*
X422203Y1032747D01*
X422246Y1032630D01*
X422286Y1032511D01*
X422322Y1032391D01*
X422354Y1032270D01*
X422383Y1032148D01*
X422408Y1032026D01*
X422429Y1031902D01*
X422446Y1031778D01*
X422460Y1031654D01*
X422469Y1031529D01*
X422475Y1031404D01*
X422477Y1031279D01*
X418413Y1035343D02*
X418270Y1035341D01*
X418128Y1035335D01*
X417985Y1035325D01*
X417843Y1035312D01*
X417702Y1035294D01*
X417560Y1035273D01*
X417420Y1035248D01*
X417280Y1035219D01*
X417141Y1035186D01*
X417003Y1035149D01*
X416866Y1035109D01*
X416731Y1035065D01*
X416596Y1035017D01*
X416463Y1034965D01*
X416331Y1034910D01*
X416201Y1034851D01*
X416073Y1034789D01*
X415946Y1034723D01*
X415821Y1034654D01*
X415698Y1034582D01*
X415578Y1034506D01*
X415459Y1034427D01*
X415342Y1034344D01*
X415228Y1034259D01*
X415116Y1034170D01*
X415007Y1034079D01*
X414900Y1033984D01*
X414795Y1033887D01*
X414694Y1033786D01*
X414595Y1033683D01*
X414499Y1033578D01*
X414406Y1033469D01*
X414316Y1033358D01*
X414229Y1033245D01*
X414145Y1033130D01*
X414065Y1033012D01*
X413987Y1032892D01*
X413913Y1032770D01*
X413843Y1032646D01*
X413775Y1032520D01*
X413712Y1032392D01*
X413651Y1032263D01*
X413594Y1032132D01*
X413541Y1032000D01*
X413492Y1031866D01*
X413446Y1031731D01*
X421122Y1028118D02*
X421216Y1028210D01*
X421306Y1028304D01*
X421394Y1028401D01*
X421479Y1028501D01*
X421561Y1028603D01*
X421640Y1028708D01*
X421715Y1028815D01*
X421787Y1028924D01*
X421856Y1029035D01*
X421922Y1029149D01*
X421984Y1029264D01*
X422043Y1029381D01*
X422098Y1029500D01*
X422149Y1029620D01*
X422197Y1029742D01*
X422242Y1029865D01*
X422282Y1029989D01*
X422319Y1030115D01*
X422352Y1030242D01*
X422381Y1030369D01*
X422407Y1030498D01*
X422428Y1030627D01*
X422446Y1030757D01*
X422459Y1030887D01*
X422469Y1031017D01*
X422475Y1031148D01*
X422477Y1031279D01*
X421122Y1028118D02*
X413446Y1019087D01*
X422477Y1019087D01*
X429216Y1025409D02*
X440054Y1025409D01*
X446793Y1027215D02*
X446797Y1027535D01*
X446808Y1027854D01*
X446827Y1028174D01*
X446854Y1028492D01*
X446888Y1028810D01*
X446930Y1029127D01*
X446980Y1029443D01*
X447037Y1029758D01*
X447101Y1030071D01*
X447173Y1030383D01*
X447252Y1030693D01*
X447339Y1031000D01*
X447433Y1031306D01*
X447534Y1031609D01*
X447643Y1031910D01*
X447758Y1032208D01*
X447881Y1032504D01*
X448011Y1032796D01*
X448148Y1033085D01*
X448147Y1033086D02*
X448186Y1033194D01*
X448229Y1033301D01*
X448275Y1033406D01*
X448326Y1033510D01*
X448379Y1033612D01*
X448436Y1033712D01*
X448497Y1033810D01*
X448561Y1033905D01*
X448628Y1033999D01*
X448699Y1034090D01*
X448772Y1034179D01*
X448849Y1034265D01*
X448928Y1034348D01*
X449010Y1034429D01*
X449095Y1034507D01*
X449183Y1034581D01*
X449273Y1034653D01*
X449365Y1034721D01*
X449460Y1034787D01*
X449557Y1034849D01*
X449656Y1034907D01*
X449758Y1034963D01*
X449860Y1035014D01*
X449965Y1035062D01*
X450071Y1035107D01*
X450179Y1035148D01*
X450288Y1035185D01*
X450398Y1035218D01*
X450510Y1035247D01*
X450622Y1035273D01*
X450735Y1035295D01*
X450849Y1035312D01*
X450963Y1035326D01*
X451078Y1035336D01*
X451193Y1035342D01*
X451308Y1035344D01*
X451308Y1035343D02*
X451423Y1035341D01*
X451538Y1035335D01*
X451653Y1035325D01*
X451767Y1035311D01*
X451881Y1035294D01*
X451994Y1035272D01*
X452106Y1035246D01*
X452218Y1035217D01*
X452328Y1035184D01*
X452437Y1035147D01*
X452545Y1035106D01*
X452651Y1035061D01*
X452756Y1035013D01*
X452858Y1034962D01*
X452959Y1034906D01*
X453059Y1034848D01*
X453156Y1034786D01*
X453250Y1034721D01*
X453343Y1034652D01*
X453433Y1034580D01*
X453521Y1034506D01*
X453606Y1034428D01*
X453688Y1034347D01*
X453767Y1034264D01*
X453844Y1034178D01*
X453917Y1034089D01*
X453988Y1033998D01*
X454055Y1033904D01*
X454119Y1033809D01*
X454180Y1033711D01*
X454237Y1033611D01*
X454290Y1033509D01*
X454341Y1033405D01*
X454387Y1033300D01*
X454430Y1033193D01*
X454469Y1033085D01*
X454606Y1032796D01*
X454736Y1032504D01*
X454859Y1032208D01*
X454974Y1031910D01*
X455083Y1031609D01*
X455184Y1031306D01*
X455278Y1031000D01*
X455365Y1030693D01*
X455444Y1030383D01*
X455516Y1030071D01*
X455580Y1029758D01*
X455637Y1029443D01*
X455687Y1029127D01*
X455729Y1028810D01*
X455763Y1028492D01*
X455790Y1028174D01*
X455809Y1027854D01*
X455820Y1027535D01*
X455824Y1027215D01*
X446793Y1027215D02*
X446797Y1026895D01*
X446808Y1026576D01*
X446827Y1026256D01*
X446854Y1025938D01*
X446888Y1025620D01*
X446930Y1025303D01*
X446980Y1024987D01*
X447037Y1024672D01*
X447101Y1024359D01*
X447173Y1024047D01*
X447252Y1023737D01*
X447339Y1023430D01*
X447433Y1023124D01*
X447534Y1022821D01*
X447643Y1022520D01*
X447758Y1022222D01*
X447881Y1021926D01*
X448011Y1021634D01*
X448148Y1021345D01*
X448147Y1021345D02*
X448186Y1021237D01*
X448229Y1021130D01*
X448275Y1021025D01*
X448326Y1020921D01*
X448379Y1020819D01*
X448436Y1020719D01*
X448497Y1020621D01*
X448561Y1020526D01*
X448628Y1020432D01*
X448699Y1020341D01*
X448772Y1020252D01*
X448849Y1020166D01*
X448928Y1020083D01*
X449010Y1020002D01*
X449095Y1019924D01*
X449183Y1019850D01*
X449273Y1019778D01*
X449366Y1019709D01*
X449460Y1019644D01*
X449557Y1019582D01*
X449657Y1019524D01*
X449758Y1019468D01*
X449860Y1019417D01*
X449965Y1019369D01*
X450071Y1019324D01*
X450179Y1019283D01*
X450288Y1019246D01*
X450398Y1019213D01*
X450510Y1019184D01*
X450622Y1019158D01*
X450735Y1019136D01*
X450849Y1019119D01*
X450963Y1019105D01*
X451078Y1019095D01*
X451193Y1019089D01*
X451308Y1019087D01*
X454468Y1021345D02*
X454605Y1021634D01*
X454735Y1021926D01*
X454858Y1022222D01*
X454973Y1022520D01*
X455082Y1022821D01*
X455183Y1023124D01*
X455277Y1023430D01*
X455364Y1023737D01*
X455443Y1024047D01*
X455515Y1024359D01*
X455579Y1024672D01*
X455636Y1024987D01*
X455686Y1025303D01*
X455728Y1025620D01*
X455762Y1025938D01*
X455789Y1026256D01*
X455808Y1026576D01*
X455819Y1026895D01*
X455823Y1027215D01*
X454469Y1021345D02*
X454430Y1021237D01*
X454387Y1021130D01*
X454341Y1021025D01*
X454290Y1020921D01*
X454237Y1020819D01*
X454180Y1020719D01*
X454119Y1020621D01*
X454055Y1020526D01*
X453988Y1020432D01*
X453917Y1020341D01*
X453844Y1020252D01*
X453767Y1020166D01*
X453688Y1020083D01*
X453606Y1020002D01*
X453521Y1019924D01*
X453433Y1019850D01*
X453343Y1019778D01*
X453250Y1019709D01*
X453156Y1019644D01*
X453059Y1019582D01*
X452959Y1019524D01*
X452858Y1019468D01*
X452755Y1019417D01*
X452651Y1019369D01*
X452545Y1019324D01*
X452437Y1019283D01*
X452328Y1019246D01*
X452218Y1019213D01*
X452106Y1019184D01*
X451994Y1019158D01*
X451881Y1019136D01*
X451767Y1019119D01*
X451653Y1019105D01*
X451538Y1019095D01*
X451423Y1019089D01*
X451308Y1019087D01*
X447696Y1022699D02*
X454921Y1031731D01*
X462424Y1031731D02*
X466939Y1035343D01*
X466939Y1019087D01*
X462424Y1019087D02*
X471455Y1019087D01*
X478194Y1025409D02*
X489031Y1025409D01*
X495771Y1027215D02*
X495775Y1027535D01*
X495786Y1027854D01*
X495805Y1028174D01*
X495832Y1028492D01*
X495866Y1028810D01*
X495908Y1029127D01*
X495958Y1029443D01*
X496015Y1029758D01*
X496079Y1030071D01*
X496151Y1030383D01*
X496230Y1030693D01*
X496317Y1031000D01*
X496411Y1031306D01*
X496512Y1031609D01*
X496621Y1031910D01*
X496736Y1032208D01*
X496859Y1032504D01*
X496989Y1032796D01*
X497126Y1033085D01*
X497125Y1033086D02*
X497164Y1033194D01*
X497207Y1033301D01*
X497253Y1033406D01*
X497304Y1033510D01*
X497357Y1033612D01*
X497414Y1033712D01*
X497475Y1033810D01*
X497539Y1033905D01*
X497606Y1033999D01*
X497677Y1034090D01*
X497750Y1034179D01*
X497827Y1034265D01*
X497906Y1034348D01*
X497988Y1034429D01*
X498073Y1034507D01*
X498161Y1034581D01*
X498251Y1034653D01*
X498343Y1034721D01*
X498438Y1034787D01*
X498535Y1034849D01*
X498634Y1034907D01*
X498736Y1034963D01*
X498838Y1035014D01*
X498943Y1035062D01*
X499049Y1035107D01*
X499157Y1035148D01*
X499266Y1035185D01*
X499376Y1035218D01*
X499488Y1035247D01*
X499600Y1035273D01*
X499713Y1035295D01*
X499827Y1035312D01*
X499941Y1035326D01*
X500056Y1035336D01*
X500171Y1035342D01*
X500286Y1035344D01*
X500286Y1035343D02*
X500401Y1035341D01*
X500516Y1035335D01*
X500631Y1035325D01*
X500745Y1035311D01*
X500859Y1035294D01*
X500972Y1035272D01*
X501084Y1035246D01*
X501196Y1035217D01*
X501306Y1035184D01*
X501415Y1035147D01*
X501523Y1035106D01*
X501629Y1035061D01*
X501734Y1035013D01*
X501836Y1034962D01*
X501937Y1034906D01*
X502037Y1034848D01*
X502134Y1034786D01*
X502228Y1034721D01*
X502321Y1034652D01*
X502411Y1034580D01*
X502499Y1034506D01*
X502584Y1034428D01*
X502666Y1034347D01*
X502745Y1034264D01*
X502822Y1034178D01*
X502895Y1034089D01*
X502966Y1033998D01*
X503033Y1033904D01*
X503097Y1033809D01*
X503158Y1033711D01*
X503215Y1033611D01*
X503268Y1033509D01*
X503319Y1033405D01*
X503365Y1033300D01*
X503408Y1033193D01*
X503447Y1033085D01*
X503446Y1033085D02*
X503583Y1032796D01*
X503713Y1032504D01*
X503836Y1032208D01*
X503951Y1031910D01*
X504060Y1031609D01*
X504161Y1031306D01*
X504255Y1031000D01*
X504342Y1030693D01*
X504421Y1030383D01*
X504493Y1030071D01*
X504557Y1029758D01*
X504614Y1029443D01*
X504664Y1029127D01*
X504706Y1028810D01*
X504740Y1028492D01*
X504767Y1028174D01*
X504786Y1027854D01*
X504797Y1027535D01*
X504801Y1027215D01*
X495771Y1027215D02*
X495775Y1026895D01*
X495786Y1026576D01*
X495805Y1026256D01*
X495832Y1025938D01*
X495866Y1025620D01*
X495908Y1025303D01*
X495958Y1024987D01*
X496015Y1024672D01*
X496079Y1024359D01*
X496151Y1024047D01*
X496230Y1023737D01*
X496317Y1023430D01*
X496411Y1023124D01*
X496512Y1022821D01*
X496621Y1022520D01*
X496736Y1022222D01*
X496859Y1021926D01*
X496989Y1021634D01*
X497126Y1021345D01*
X497125Y1021345D02*
X497164Y1021237D01*
X497207Y1021130D01*
X497253Y1021025D01*
X497304Y1020921D01*
X497357Y1020819D01*
X497414Y1020719D01*
X497475Y1020621D01*
X497539Y1020526D01*
X497606Y1020432D01*
X497677Y1020341D01*
X497750Y1020252D01*
X497827Y1020166D01*
X497906Y1020083D01*
X497988Y1020002D01*
X498073Y1019924D01*
X498161Y1019850D01*
X498251Y1019778D01*
X498344Y1019709D01*
X498438Y1019644D01*
X498535Y1019582D01*
X498635Y1019524D01*
X498736Y1019468D01*
X498838Y1019417D01*
X498943Y1019369D01*
X499049Y1019324D01*
X499157Y1019283D01*
X499266Y1019246D01*
X499376Y1019213D01*
X499488Y1019184D01*
X499600Y1019158D01*
X499713Y1019136D01*
X499827Y1019119D01*
X499941Y1019105D01*
X500056Y1019095D01*
X500171Y1019089D01*
X500286Y1019087D01*
X503446Y1021345D02*
X503583Y1021634D01*
X503713Y1021926D01*
X503836Y1022222D01*
X503951Y1022520D01*
X504060Y1022821D01*
X504161Y1023124D01*
X504255Y1023430D01*
X504342Y1023737D01*
X504421Y1024047D01*
X504493Y1024359D01*
X504557Y1024672D01*
X504614Y1024987D01*
X504664Y1025303D01*
X504706Y1025620D01*
X504740Y1025938D01*
X504767Y1026256D01*
X504786Y1026576D01*
X504797Y1026895D01*
X504801Y1027215D01*
X503447Y1021345D02*
X503408Y1021237D01*
X503365Y1021130D01*
X503319Y1021025D01*
X503268Y1020921D01*
X503215Y1020819D01*
X503158Y1020719D01*
X503097Y1020621D01*
X503033Y1020526D01*
X502966Y1020432D01*
X502895Y1020341D01*
X502822Y1020252D01*
X502745Y1020166D01*
X502666Y1020083D01*
X502584Y1020002D01*
X502499Y1019924D01*
X502411Y1019850D01*
X502321Y1019778D01*
X502228Y1019709D01*
X502134Y1019644D01*
X502037Y1019582D01*
X501937Y1019524D01*
X501836Y1019468D01*
X501733Y1019417D01*
X501629Y1019369D01*
X501523Y1019324D01*
X501415Y1019283D01*
X501306Y1019246D01*
X501196Y1019213D01*
X501084Y1019184D01*
X500972Y1019158D01*
X500859Y1019136D01*
X500745Y1019119D01*
X500631Y1019105D01*
X500516Y1019095D01*
X500401Y1019089D01*
X500286Y1019087D01*
X496674Y1022699D02*
X503898Y1031731D01*
X516369Y1035343D02*
X516494Y1035341D01*
X516619Y1035335D01*
X516744Y1035326D01*
X516868Y1035312D01*
X516992Y1035295D01*
X517116Y1035274D01*
X517238Y1035249D01*
X517360Y1035220D01*
X517481Y1035188D01*
X517601Y1035152D01*
X517720Y1035112D01*
X517837Y1035069D01*
X517953Y1035022D01*
X518068Y1034971D01*
X518180Y1034917D01*
X518292Y1034859D01*
X518401Y1034799D01*
X518508Y1034734D01*
X518614Y1034667D01*
X518717Y1034596D01*
X518818Y1034522D01*
X518917Y1034445D01*
X519013Y1034365D01*
X519107Y1034282D01*
X519198Y1034197D01*
X519287Y1034108D01*
X519372Y1034017D01*
X519455Y1033923D01*
X519535Y1033827D01*
X519612Y1033728D01*
X519686Y1033627D01*
X519757Y1033524D01*
X519824Y1033418D01*
X519889Y1033311D01*
X519949Y1033202D01*
X520007Y1033090D01*
X520061Y1032978D01*
X520112Y1032863D01*
X520159Y1032747D01*
X520202Y1032630D01*
X520242Y1032511D01*
X520278Y1032391D01*
X520310Y1032270D01*
X520339Y1032148D01*
X520364Y1032026D01*
X520385Y1031902D01*
X520402Y1031778D01*
X520416Y1031654D01*
X520425Y1031529D01*
X520431Y1031404D01*
X520433Y1031279D01*
X516369Y1035343D02*
X516226Y1035341D01*
X516084Y1035335D01*
X515941Y1035325D01*
X515799Y1035312D01*
X515658Y1035294D01*
X515516Y1035273D01*
X515376Y1035248D01*
X515236Y1035219D01*
X515097Y1035186D01*
X514959Y1035149D01*
X514822Y1035109D01*
X514687Y1035065D01*
X514552Y1035017D01*
X514419Y1034965D01*
X514287Y1034910D01*
X514157Y1034851D01*
X514029Y1034789D01*
X513902Y1034723D01*
X513777Y1034654D01*
X513654Y1034582D01*
X513534Y1034506D01*
X513415Y1034427D01*
X513298Y1034344D01*
X513184Y1034259D01*
X513072Y1034170D01*
X512963Y1034079D01*
X512856Y1033984D01*
X512751Y1033887D01*
X512650Y1033786D01*
X512551Y1033683D01*
X512455Y1033578D01*
X512362Y1033469D01*
X512272Y1033358D01*
X512185Y1033245D01*
X512101Y1033130D01*
X512021Y1033012D01*
X511943Y1032892D01*
X511869Y1032770D01*
X511799Y1032646D01*
X511731Y1032520D01*
X511668Y1032392D01*
X511607Y1032263D01*
X511550Y1032132D01*
X511497Y1032000D01*
X511448Y1031866D01*
X511402Y1031731D01*
X519078Y1028118D02*
X519172Y1028210D01*
X519262Y1028304D01*
X519350Y1028401D01*
X519435Y1028501D01*
X519517Y1028603D01*
X519596Y1028708D01*
X519671Y1028815D01*
X519743Y1028924D01*
X519812Y1029035D01*
X519878Y1029149D01*
X519940Y1029264D01*
X519999Y1029381D01*
X520054Y1029500D01*
X520105Y1029620D01*
X520153Y1029742D01*
X520198Y1029865D01*
X520238Y1029989D01*
X520275Y1030115D01*
X520308Y1030242D01*
X520337Y1030369D01*
X520363Y1030498D01*
X520384Y1030627D01*
X520402Y1030757D01*
X520415Y1030887D01*
X520425Y1031017D01*
X520431Y1031148D01*
X520433Y1031279D01*
X519078Y1028118D02*
X511402Y1019087D01*
X520433Y1019087D01*
X297790Y987337D02*
X293275Y987337D01*
X297790Y987337D02*
X297923Y987339D01*
X298055Y987345D01*
X298187Y987355D01*
X298319Y987368D01*
X298451Y987386D01*
X298581Y987407D01*
X298712Y987432D01*
X298841Y987461D01*
X298969Y987494D01*
X299097Y987530D01*
X299223Y987570D01*
X299348Y987614D01*
X299472Y987662D01*
X299594Y987713D01*
X299715Y987768D01*
X299834Y987826D01*
X299952Y987888D01*
X300067Y987953D01*
X300181Y988022D01*
X300292Y988093D01*
X300401Y988169D01*
X300508Y988247D01*
X300613Y988328D01*
X300715Y988413D01*
X300815Y988500D01*
X300912Y988590D01*
X301007Y988683D01*
X301098Y988779D01*
X301187Y988877D01*
X301273Y988978D01*
X301356Y989082D01*
X301436Y989188D01*
X301512Y989296D01*
X301586Y989406D01*
X301656Y989519D01*
X301723Y989633D01*
X301786Y989750D01*
X301846Y989868D01*
X301903Y989988D01*
X301956Y990110D01*
X302005Y990233D01*
X302051Y990357D01*
X302093Y990483D01*
X302131Y990610D01*
X302166Y990738D01*
X302197Y990867D01*
X302224Y990996D01*
X302247Y991127D01*
X302267Y991258D01*
X302282Y991390D01*
X302294Y991522D01*
X302302Y991654D01*
X302306Y991787D01*
X302306Y991919D01*
X302302Y992052D01*
X302294Y992184D01*
X302282Y992316D01*
X302267Y992448D01*
X302247Y992579D01*
X302224Y992710D01*
X302197Y992839D01*
X302166Y992968D01*
X302131Y993096D01*
X302093Y993223D01*
X302051Y993349D01*
X302005Y993473D01*
X301956Y993596D01*
X301903Y993718D01*
X301846Y993838D01*
X301786Y993956D01*
X301723Y994073D01*
X301656Y994187D01*
X301586Y994300D01*
X301512Y994410D01*
X301436Y994518D01*
X301356Y994624D01*
X301273Y994728D01*
X301187Y994829D01*
X301098Y994927D01*
X301007Y995023D01*
X300912Y995116D01*
X300815Y995206D01*
X300715Y995293D01*
X300613Y995378D01*
X300508Y995459D01*
X300401Y995537D01*
X300292Y995613D01*
X300181Y995684D01*
X300067Y995753D01*
X299952Y995818D01*
X299834Y995880D01*
X299715Y995938D01*
X299594Y995993D01*
X299472Y996044D01*
X299348Y996092D01*
X299223Y996136D01*
X299097Y996176D01*
X298969Y996212D01*
X298841Y996245D01*
X298712Y996274D01*
X298581Y996299D01*
X298451Y996320D01*
X298319Y996338D01*
X298187Y996351D01*
X298055Y996361D01*
X297923Y996367D01*
X297790Y996369D01*
X298693Y1003593D02*
X293275Y1003593D01*
X298693Y1003593D02*
X298812Y1003591D01*
X298932Y1003585D01*
X299051Y1003575D01*
X299169Y1003561D01*
X299288Y1003544D01*
X299405Y1003522D01*
X299522Y1003497D01*
X299637Y1003467D01*
X299752Y1003434D01*
X299866Y1003397D01*
X299978Y1003357D01*
X300089Y1003312D01*
X300198Y1003264D01*
X300306Y1003213D01*
X300412Y1003158D01*
X300516Y1003099D01*
X300618Y1003037D01*
X300718Y1002972D01*
X300816Y1002903D01*
X300912Y1002831D01*
X301005Y1002756D01*
X301095Y1002679D01*
X301183Y1002598D01*
X301268Y1002514D01*
X301350Y1002427D01*
X301430Y1002338D01*
X301506Y1002246D01*
X301580Y1002152D01*
X301650Y1002055D01*
X301717Y1001957D01*
X301781Y1001856D01*
X301841Y1001752D01*
X301898Y1001647D01*
X301951Y1001540D01*
X302001Y1001432D01*
X302047Y1001322D01*
X302089Y1001210D01*
X302128Y1001097D01*
X302163Y1000983D01*
X302194Y1000868D01*
X302222Y1000751D01*
X302245Y1000634D01*
X302265Y1000517D01*
X302281Y1000398D01*
X302293Y1000279D01*
X302301Y1000160D01*
X302305Y1000041D01*
X302305Y999921D01*
X302301Y999802D01*
X302293Y999683D01*
X302281Y999564D01*
X302265Y999445D01*
X302245Y999328D01*
X302222Y999211D01*
X302194Y999094D01*
X302163Y998979D01*
X302128Y998865D01*
X302089Y998752D01*
X302047Y998640D01*
X302001Y998530D01*
X301951Y998422D01*
X301898Y998315D01*
X301841Y998210D01*
X301781Y998106D01*
X301717Y998005D01*
X301650Y997907D01*
X301580Y997810D01*
X301506Y997716D01*
X301430Y997624D01*
X301350Y997535D01*
X301268Y997448D01*
X301183Y997364D01*
X301095Y997283D01*
X301005Y997206D01*
X300912Y997131D01*
X300816Y997059D01*
X300718Y996990D01*
X300618Y996925D01*
X300516Y996863D01*
X300412Y996804D01*
X300306Y996749D01*
X300198Y996698D01*
X300089Y996650D01*
X299978Y996605D01*
X299866Y996565D01*
X299752Y996528D01*
X299637Y996495D01*
X299522Y996465D01*
X299405Y996440D01*
X299288Y996418D01*
X299169Y996401D01*
X299051Y996387D01*
X298932Y996377D01*
X298812Y996371D01*
X298693Y996369D01*
X298693Y996368D02*
X295081Y996368D01*
X308906Y987337D02*
X314324Y987337D01*
X314442Y987339D01*
X314560Y987345D01*
X314678Y987354D01*
X314795Y987368D01*
X314912Y987385D01*
X315029Y987406D01*
X315144Y987431D01*
X315259Y987460D01*
X315373Y987493D01*
X315485Y987529D01*
X315596Y987569D01*
X315706Y987612D01*
X315815Y987659D01*
X315922Y987709D01*
X316027Y987764D01*
X316130Y987821D01*
X316231Y987882D01*
X316331Y987946D01*
X316428Y988013D01*
X316523Y988083D01*
X316615Y988157D01*
X316706Y988233D01*
X316793Y988313D01*
X316878Y988395D01*
X316960Y988480D01*
X317040Y988567D01*
X317116Y988658D01*
X317190Y988750D01*
X317260Y988845D01*
X317327Y988942D01*
X317391Y989042D01*
X317452Y989143D01*
X317509Y989246D01*
X317564Y989351D01*
X317614Y989458D01*
X317661Y989567D01*
X317704Y989677D01*
X317744Y989788D01*
X317780Y989900D01*
X317813Y990014D01*
X317842Y990129D01*
X317867Y990244D01*
X317888Y990361D01*
X317905Y990478D01*
X317919Y990595D01*
X317928Y990713D01*
X317934Y990831D01*
X317936Y990949D01*
X317937Y990949D02*
X317937Y992756D01*
X317936Y992756D02*
X317934Y992874D01*
X317928Y992992D01*
X317919Y993110D01*
X317905Y993227D01*
X317888Y993344D01*
X317867Y993461D01*
X317842Y993576D01*
X317813Y993691D01*
X317780Y993805D01*
X317744Y993917D01*
X317704Y994028D01*
X317661Y994138D01*
X317614Y994247D01*
X317564Y994354D01*
X317509Y994459D01*
X317452Y994562D01*
X317391Y994663D01*
X317327Y994763D01*
X317260Y994860D01*
X317190Y994955D01*
X317116Y995047D01*
X317040Y995138D01*
X316960Y995225D01*
X316878Y995310D01*
X316793Y995392D01*
X316706Y995472D01*
X316615Y995548D01*
X316523Y995622D01*
X316428Y995692D01*
X316331Y995759D01*
X316231Y995823D01*
X316130Y995884D01*
X316027Y995941D01*
X315922Y995996D01*
X315815Y996046D01*
X315706Y996093D01*
X315596Y996136D01*
X315485Y996176D01*
X315373Y996212D01*
X315259Y996245D01*
X315144Y996274D01*
X315029Y996299D01*
X314912Y996320D01*
X314795Y996337D01*
X314678Y996351D01*
X314560Y996360D01*
X314442Y996366D01*
X314324Y996368D01*
X308906Y996368D01*
X308906Y1003593D01*
X317937Y1003593D01*
X325431Y998174D02*
X325431Y981918D01*
X332656Y990949D02*
X332656Y998174D01*
X332656Y990949D02*
X332654Y990830D01*
X332648Y990710D01*
X332638Y990591D01*
X332624Y990473D01*
X332607Y990354D01*
X332585Y990237D01*
X332560Y990120D01*
X332530Y990005D01*
X332497Y989890D01*
X332460Y989776D01*
X332420Y989664D01*
X332375Y989553D01*
X332327Y989444D01*
X332276Y989336D01*
X332221Y989230D01*
X332162Y989126D01*
X332100Y989024D01*
X332035Y988924D01*
X331966Y988826D01*
X331894Y988730D01*
X331819Y988637D01*
X331742Y988547D01*
X331661Y988459D01*
X331577Y988374D01*
X331490Y988292D01*
X331401Y988212D01*
X331309Y988136D01*
X331215Y988062D01*
X331118Y987992D01*
X331020Y987925D01*
X330919Y987861D01*
X330815Y987801D01*
X330710Y987744D01*
X330603Y987691D01*
X330495Y987641D01*
X330385Y987595D01*
X330273Y987553D01*
X330160Y987514D01*
X330046Y987479D01*
X329931Y987448D01*
X329814Y987420D01*
X329697Y987397D01*
X329580Y987377D01*
X329461Y987361D01*
X329342Y987349D01*
X329223Y987341D01*
X329104Y987337D01*
X328984Y987337D01*
X328865Y987341D01*
X328746Y987349D01*
X328627Y987361D01*
X328508Y987377D01*
X328391Y987397D01*
X328274Y987420D01*
X328157Y987448D01*
X328042Y987479D01*
X327928Y987514D01*
X327815Y987553D01*
X327703Y987595D01*
X327593Y987641D01*
X327485Y987691D01*
X327378Y987744D01*
X327273Y987801D01*
X327169Y987861D01*
X327068Y987925D01*
X326970Y987992D01*
X326873Y988062D01*
X326779Y988136D01*
X326687Y988212D01*
X326598Y988292D01*
X326511Y988374D01*
X326427Y988459D01*
X326346Y988547D01*
X326269Y988637D01*
X326194Y988730D01*
X326122Y988826D01*
X326053Y988924D01*
X325988Y989024D01*
X325926Y989126D01*
X325867Y989230D01*
X325812Y989336D01*
X325761Y989444D01*
X325713Y989553D01*
X325668Y989664D01*
X325628Y989776D01*
X325591Y989890D01*
X325558Y990005D01*
X325528Y990120D01*
X325503Y990237D01*
X325481Y990354D01*
X325464Y990473D01*
X325450Y990591D01*
X325440Y990710D01*
X325434Y990830D01*
X325432Y990949D01*
X332656Y990949D02*
X332656Y989143D01*
X332658Y989060D01*
X332664Y988976D01*
X332673Y988893D01*
X332687Y988811D01*
X332704Y988730D01*
X332725Y988649D01*
X332750Y988569D01*
X332778Y988491D01*
X332810Y988414D01*
X332845Y988338D01*
X332884Y988264D01*
X332927Y988192D01*
X332972Y988122D01*
X333021Y988055D01*
X333073Y987989D01*
X333127Y987926D01*
X333185Y987866D01*
X333245Y987808D01*
X333308Y987754D01*
X333374Y987702D01*
X333441Y987653D01*
X333511Y987608D01*
X333583Y987565D01*
X333657Y987526D01*
X333733Y987491D01*
X333810Y987459D01*
X333888Y987431D01*
X333968Y987406D01*
X334049Y987385D01*
X334130Y987368D01*
X334212Y987354D01*
X334295Y987345D01*
X334379Y987339D01*
X334462Y987337D01*
X340307Y987337D02*
X340307Y998174D01*
X348435Y998174D01*
X348536Y998172D01*
X348637Y998166D01*
X348738Y998157D01*
X348839Y998144D01*
X348939Y998127D01*
X349038Y998106D01*
X349136Y998082D01*
X349233Y998054D01*
X349330Y998022D01*
X349425Y997987D01*
X349518Y997948D01*
X349610Y997906D01*
X349701Y997860D01*
X349790Y997811D01*
X349876Y997759D01*
X349961Y997703D01*
X350044Y997645D01*
X350124Y997583D01*
X350202Y997518D01*
X350278Y997451D01*
X350351Y997381D01*
X350421Y997308D01*
X350488Y997232D01*
X350553Y997154D01*
X350615Y997074D01*
X350673Y996991D01*
X350729Y996906D01*
X350781Y996820D01*
X350830Y996731D01*
X350876Y996640D01*
X350918Y996548D01*
X350957Y996455D01*
X350992Y996360D01*
X351024Y996263D01*
X351052Y996166D01*
X351076Y996068D01*
X351097Y995969D01*
X351114Y995869D01*
X351127Y995768D01*
X351136Y995667D01*
X351142Y995566D01*
X351144Y995465D01*
X351144Y987337D01*
X345726Y987337D02*
X345726Y998174D01*
X526842Y1003593D02*
X526967Y1003591D01*
X527092Y1003585D01*
X527217Y1003576D01*
X527341Y1003562D01*
X527465Y1003545D01*
X527589Y1003524D01*
X527711Y1003499D01*
X527833Y1003470D01*
X527954Y1003438D01*
X528074Y1003402D01*
X528193Y1003362D01*
X528310Y1003319D01*
X528426Y1003272D01*
X528541Y1003221D01*
X528653Y1003167D01*
X528765Y1003109D01*
X528874Y1003049D01*
X528981Y1002984D01*
X529087Y1002917D01*
X529190Y1002846D01*
X529291Y1002772D01*
X529390Y1002695D01*
X529486Y1002615D01*
X529580Y1002532D01*
X529671Y1002447D01*
X529760Y1002358D01*
X529845Y1002267D01*
X529928Y1002173D01*
X530008Y1002077D01*
X530085Y1001978D01*
X530159Y1001877D01*
X530230Y1001774D01*
X530297Y1001668D01*
X530362Y1001561D01*
X530422Y1001452D01*
X530480Y1001340D01*
X530534Y1001228D01*
X530585Y1001113D01*
X530632Y1000997D01*
X530675Y1000880D01*
X530715Y1000761D01*
X530751Y1000641D01*
X530783Y1000520D01*
X530812Y1000398D01*
X530837Y1000276D01*
X530858Y1000152D01*
X530875Y1000028D01*
X530889Y999904D01*
X530898Y999779D01*
X530904Y999654D01*
X530906Y999529D01*
X526842Y1003593D02*
X526699Y1003591D01*
X526557Y1003585D01*
X526414Y1003575D01*
X526272Y1003562D01*
X526131Y1003544D01*
X525989Y1003523D01*
X525849Y1003498D01*
X525709Y1003469D01*
X525570Y1003436D01*
X525432Y1003399D01*
X525295Y1003359D01*
X525160Y1003315D01*
X525025Y1003267D01*
X524892Y1003215D01*
X524760Y1003160D01*
X524630Y1003101D01*
X524502Y1003039D01*
X524375Y1002973D01*
X524250Y1002904D01*
X524127Y1002832D01*
X524007Y1002756D01*
X523888Y1002677D01*
X523771Y1002594D01*
X523657Y1002509D01*
X523545Y1002420D01*
X523436Y1002329D01*
X523329Y1002234D01*
X523224Y1002137D01*
X523123Y1002036D01*
X523024Y1001933D01*
X522928Y1001828D01*
X522835Y1001719D01*
X522745Y1001608D01*
X522658Y1001495D01*
X522574Y1001380D01*
X522494Y1001262D01*
X522416Y1001142D01*
X522342Y1001020D01*
X522272Y1000896D01*
X522204Y1000770D01*
X522141Y1000642D01*
X522080Y1000513D01*
X522023Y1000382D01*
X521970Y1000250D01*
X521921Y1000116D01*
X521875Y999981D01*
X529550Y996368D02*
X529644Y996460D01*
X529734Y996554D01*
X529822Y996651D01*
X529907Y996751D01*
X529989Y996853D01*
X530068Y996958D01*
X530143Y997065D01*
X530215Y997174D01*
X530284Y997285D01*
X530350Y997399D01*
X530412Y997514D01*
X530471Y997631D01*
X530526Y997750D01*
X530577Y997870D01*
X530625Y997992D01*
X530670Y998115D01*
X530710Y998239D01*
X530747Y998365D01*
X530780Y998492D01*
X530809Y998619D01*
X530835Y998748D01*
X530856Y998877D01*
X530874Y999007D01*
X530887Y999137D01*
X530897Y999267D01*
X530903Y999398D01*
X530905Y999529D01*
X529551Y996368D02*
X521875Y987337D01*
X530906Y987337D01*
X459468Y936029D02*
X459466Y936154D01*
X459460Y936279D01*
X459451Y936404D01*
X459437Y936528D01*
X459420Y936652D01*
X459399Y936776D01*
X459374Y936898D01*
X459345Y937020D01*
X459313Y937141D01*
X459277Y937261D01*
X459237Y937380D01*
X459194Y937497D01*
X459147Y937613D01*
X459096Y937728D01*
X459042Y937840D01*
X458984Y937952D01*
X458924Y938061D01*
X458859Y938168D01*
X458792Y938274D01*
X458721Y938377D01*
X458647Y938478D01*
X458570Y938577D01*
X458490Y938673D01*
X458407Y938767D01*
X458322Y938858D01*
X458233Y938947D01*
X458142Y939032D01*
X458048Y939115D01*
X457952Y939195D01*
X457853Y939272D01*
X457752Y939346D01*
X457649Y939417D01*
X457543Y939484D01*
X457436Y939549D01*
X457327Y939609D01*
X457215Y939667D01*
X457103Y939721D01*
X456988Y939772D01*
X456872Y939819D01*
X456755Y939862D01*
X456636Y939902D01*
X456516Y939938D01*
X456395Y939970D01*
X456273Y939999D01*
X456151Y940024D01*
X456027Y940045D01*
X455903Y940062D01*
X455779Y940076D01*
X455654Y940085D01*
X455529Y940091D01*
X455404Y940093D01*
X455261Y940091D01*
X455119Y940085D01*
X454976Y940075D01*
X454834Y940062D01*
X454693Y940044D01*
X454551Y940023D01*
X454411Y939998D01*
X454271Y939969D01*
X454132Y939936D01*
X453994Y939899D01*
X453857Y939859D01*
X453722Y939815D01*
X453587Y939767D01*
X453454Y939715D01*
X453322Y939660D01*
X453192Y939601D01*
X453064Y939539D01*
X452937Y939473D01*
X452812Y939404D01*
X452689Y939332D01*
X452569Y939256D01*
X452450Y939177D01*
X452333Y939094D01*
X452219Y939009D01*
X452107Y938920D01*
X451998Y938829D01*
X451891Y938734D01*
X451786Y938637D01*
X451685Y938536D01*
X451586Y938433D01*
X451490Y938328D01*
X451397Y938219D01*
X451307Y938108D01*
X451220Y937995D01*
X451136Y937880D01*
X451056Y937762D01*
X450978Y937642D01*
X450904Y937520D01*
X450834Y937396D01*
X450766Y937270D01*
X450703Y937142D01*
X450642Y937013D01*
X450585Y936882D01*
X450532Y936750D01*
X450483Y936616D01*
X450437Y936481D01*
X458113Y932868D02*
X458207Y932960D01*
X458297Y933054D01*
X458385Y933151D01*
X458470Y933251D01*
X458552Y933353D01*
X458631Y933458D01*
X458706Y933565D01*
X458778Y933674D01*
X458847Y933785D01*
X458913Y933899D01*
X458975Y934014D01*
X459034Y934131D01*
X459089Y934250D01*
X459140Y934370D01*
X459188Y934492D01*
X459233Y934615D01*
X459273Y934739D01*
X459310Y934865D01*
X459343Y934992D01*
X459372Y935119D01*
X459398Y935248D01*
X459419Y935377D01*
X459437Y935507D01*
X459450Y935637D01*
X459460Y935767D01*
X459466Y935898D01*
X459468Y936029D01*
X458113Y932868D02*
X450437Y923837D01*
X459468Y923837D01*
X40978Y1017619D02*
X40976Y1017501D01*
X40970Y1017383D01*
X40961Y1017265D01*
X40947Y1017148D01*
X40930Y1017031D01*
X40909Y1016914D01*
X40884Y1016799D01*
X40855Y1016684D01*
X40822Y1016570D01*
X40786Y1016458D01*
X40746Y1016347D01*
X40703Y1016237D01*
X40656Y1016128D01*
X40606Y1016021D01*
X40551Y1015916D01*
X40494Y1015813D01*
X40433Y1015712D01*
X40369Y1015612D01*
X40302Y1015515D01*
X40232Y1015420D01*
X40158Y1015328D01*
X40082Y1015237D01*
X40002Y1015150D01*
X39920Y1015065D01*
X39835Y1014983D01*
X39748Y1014903D01*
X39657Y1014827D01*
X39565Y1014753D01*
X39470Y1014683D01*
X39373Y1014616D01*
X39273Y1014552D01*
X39172Y1014491D01*
X39069Y1014434D01*
X38964Y1014379D01*
X38857Y1014329D01*
X38748Y1014282D01*
X38638Y1014239D01*
X38527Y1014199D01*
X38415Y1014163D01*
X38301Y1014130D01*
X38186Y1014101D01*
X38071Y1014076D01*
X37954Y1014055D01*
X37837Y1014038D01*
X37720Y1014024D01*
X37602Y1014015D01*
X37484Y1014009D01*
X37366Y1014007D01*
X37183Y1014009D01*
X37001Y1014016D01*
X36819Y1014027D01*
X36637Y1014042D01*
X36455Y1014062D01*
X36274Y1014085D01*
X36094Y1014114D01*
X35914Y1014146D01*
X35735Y1014183D01*
X35558Y1014224D01*
X35381Y1014270D01*
X35205Y1014319D01*
X35031Y1014373D01*
X34857Y1014431D01*
X34686Y1014493D01*
X34516Y1014559D01*
X34347Y1014630D01*
X34180Y1014704D01*
X34015Y1014782D01*
X33852Y1014864D01*
X33691Y1014950D01*
X33532Y1015040D01*
X33375Y1015134D01*
X33221Y1015231D01*
X33069Y1015332D01*
X32919Y1015437D01*
X32772Y1015545D01*
X32628Y1015656D01*
X32486Y1015771D01*
X32347Y1015890D01*
X32211Y1016012D01*
X32078Y1016137D01*
X31948Y1016265D01*
X32399Y1026651D02*
X32401Y1026769D01*
X32407Y1026887D01*
X32416Y1027005D01*
X32430Y1027122D01*
X32447Y1027239D01*
X32468Y1027356D01*
X32493Y1027471D01*
X32522Y1027586D01*
X32555Y1027700D01*
X32591Y1027812D01*
X32631Y1027923D01*
X32674Y1028033D01*
X32721Y1028142D01*
X32771Y1028249D01*
X32826Y1028354D01*
X32883Y1028457D01*
X32944Y1028558D01*
X33008Y1028658D01*
X33075Y1028755D01*
X33145Y1028850D01*
X33219Y1028942D01*
X33295Y1029033D01*
X33375Y1029120D01*
X33457Y1029205D01*
X33542Y1029287D01*
X33629Y1029367D01*
X33720Y1029443D01*
X33812Y1029517D01*
X33907Y1029587D01*
X34004Y1029654D01*
X34104Y1029718D01*
X34205Y1029779D01*
X34308Y1029837D01*
X34413Y1029891D01*
X34520Y1029941D01*
X34629Y1029988D01*
X34739Y1030032D01*
X34850Y1030071D01*
X34963Y1030107D01*
X35076Y1030140D01*
X35191Y1030169D01*
X35306Y1030194D01*
X35423Y1030215D01*
X35540Y1030232D01*
X35657Y1030246D01*
X35775Y1030255D01*
X35893Y1030261D01*
X36011Y1030263D01*
X36172Y1030261D01*
X36334Y1030255D01*
X36495Y1030246D01*
X36656Y1030232D01*
X36816Y1030215D01*
X36976Y1030194D01*
X37136Y1030169D01*
X37295Y1030140D01*
X37453Y1030108D01*
X37610Y1030072D01*
X37766Y1030032D01*
X37922Y1029988D01*
X38076Y1029940D01*
X38229Y1029889D01*
X38381Y1029835D01*
X38532Y1029776D01*
X38681Y1029715D01*
X38828Y1029649D01*
X38974Y1029580D01*
X39119Y1029508D01*
X39261Y1029432D01*
X39402Y1029353D01*
X39541Y1029271D01*
X39677Y1029185D01*
X39812Y1029096D01*
X39945Y1029004D01*
X40075Y1028908D01*
X34204Y1023490D02*
X34103Y1023552D01*
X34003Y1023617D01*
X33906Y1023686D01*
X33811Y1023758D01*
X33718Y1023832D01*
X33628Y1023910D01*
X33540Y1023991D01*
X33455Y1024074D01*
X33373Y1024160D01*
X33294Y1024249D01*
X33217Y1024340D01*
X33144Y1024434D01*
X33073Y1024530D01*
X33006Y1024628D01*
X32942Y1024728D01*
X32881Y1024831D01*
X32824Y1024935D01*
X32770Y1025041D01*
X32720Y1025149D01*
X32673Y1025258D01*
X32629Y1025369D01*
X32589Y1025481D01*
X32553Y1025595D01*
X32521Y1025709D01*
X32492Y1025825D01*
X32467Y1025941D01*
X32446Y1026058D01*
X32429Y1026176D01*
X32415Y1026294D01*
X32406Y1026413D01*
X32400Y1026532D01*
X32398Y1026651D01*
X39172Y1020780D02*
X39273Y1020718D01*
X39373Y1020653D01*
X39470Y1020584D01*
X39565Y1020512D01*
X39658Y1020438D01*
X39748Y1020360D01*
X39836Y1020279D01*
X39921Y1020196D01*
X40003Y1020110D01*
X40082Y1020021D01*
X40159Y1019930D01*
X40232Y1019836D01*
X40303Y1019740D01*
X40370Y1019642D01*
X40434Y1019542D01*
X40495Y1019439D01*
X40552Y1019335D01*
X40606Y1019229D01*
X40656Y1019121D01*
X40703Y1019012D01*
X40747Y1018901D01*
X40787Y1018789D01*
X40823Y1018675D01*
X40855Y1018561D01*
X40884Y1018445D01*
X40909Y1018329D01*
X40930Y1018212D01*
X40947Y1018094D01*
X40961Y1017976D01*
X40970Y1017857D01*
X40976Y1017738D01*
X40978Y1017619D01*
X39172Y1020780D02*
X34205Y1023490D01*
X46397Y1024844D02*
X50010Y1014007D01*
X53622Y1024844D01*
X62133Y1014007D02*
X66648Y1014007D01*
X62133Y1014007D02*
X62032Y1014009D01*
X61931Y1014015D01*
X61830Y1014024D01*
X61729Y1014037D01*
X61629Y1014054D01*
X61530Y1014075D01*
X61432Y1014099D01*
X61335Y1014127D01*
X61238Y1014159D01*
X61143Y1014194D01*
X61050Y1014233D01*
X60958Y1014275D01*
X60867Y1014321D01*
X60779Y1014370D01*
X60692Y1014422D01*
X60607Y1014478D01*
X60524Y1014536D01*
X60444Y1014598D01*
X60366Y1014663D01*
X60290Y1014730D01*
X60217Y1014800D01*
X60147Y1014873D01*
X60080Y1014949D01*
X60015Y1015027D01*
X59953Y1015107D01*
X59895Y1015190D01*
X59839Y1015275D01*
X59787Y1015362D01*
X59738Y1015450D01*
X59692Y1015541D01*
X59650Y1015633D01*
X59611Y1015726D01*
X59576Y1015821D01*
X59544Y1015918D01*
X59516Y1016015D01*
X59492Y1016113D01*
X59471Y1016212D01*
X59454Y1016312D01*
X59441Y1016413D01*
X59432Y1016514D01*
X59426Y1016615D01*
X59424Y1016716D01*
X59423Y1016716D02*
X59423Y1021232D01*
X59424Y1021232D02*
X59426Y1021351D01*
X59432Y1021471D01*
X59442Y1021590D01*
X59456Y1021708D01*
X59473Y1021827D01*
X59495Y1021944D01*
X59520Y1022061D01*
X59550Y1022176D01*
X59583Y1022291D01*
X59620Y1022405D01*
X59660Y1022517D01*
X59705Y1022628D01*
X59753Y1022737D01*
X59804Y1022845D01*
X59859Y1022951D01*
X59918Y1023055D01*
X59980Y1023157D01*
X60045Y1023257D01*
X60114Y1023355D01*
X60186Y1023451D01*
X60261Y1023544D01*
X60338Y1023634D01*
X60419Y1023722D01*
X60503Y1023807D01*
X60590Y1023889D01*
X60679Y1023969D01*
X60771Y1024045D01*
X60865Y1024119D01*
X60962Y1024189D01*
X61060Y1024256D01*
X61161Y1024320D01*
X61265Y1024380D01*
X61370Y1024437D01*
X61477Y1024490D01*
X61585Y1024540D01*
X61695Y1024586D01*
X61807Y1024628D01*
X61920Y1024667D01*
X62034Y1024702D01*
X62149Y1024733D01*
X62266Y1024761D01*
X62383Y1024784D01*
X62500Y1024804D01*
X62619Y1024820D01*
X62738Y1024832D01*
X62857Y1024840D01*
X62976Y1024844D01*
X63096Y1024844D01*
X63215Y1024840D01*
X63334Y1024832D01*
X63453Y1024820D01*
X63572Y1024804D01*
X63689Y1024784D01*
X63806Y1024761D01*
X63923Y1024733D01*
X64038Y1024702D01*
X64152Y1024667D01*
X64265Y1024628D01*
X64377Y1024586D01*
X64487Y1024540D01*
X64595Y1024490D01*
X64702Y1024437D01*
X64807Y1024380D01*
X64911Y1024320D01*
X65012Y1024256D01*
X65110Y1024189D01*
X65207Y1024119D01*
X65301Y1024045D01*
X65393Y1023969D01*
X65482Y1023889D01*
X65569Y1023807D01*
X65653Y1023722D01*
X65734Y1023634D01*
X65811Y1023544D01*
X65886Y1023451D01*
X65958Y1023355D01*
X66027Y1023257D01*
X66092Y1023157D01*
X66154Y1023055D01*
X66213Y1022951D01*
X66268Y1022845D01*
X66319Y1022737D01*
X66367Y1022628D01*
X66412Y1022517D01*
X66452Y1022405D01*
X66489Y1022291D01*
X66522Y1022176D01*
X66552Y1022061D01*
X66577Y1021944D01*
X66599Y1021827D01*
X66616Y1021708D01*
X66630Y1021590D01*
X66640Y1021471D01*
X66646Y1021351D01*
X66648Y1021232D01*
X66648Y1019426D01*
X59423Y1019426D01*
X73491Y1014007D02*
X73491Y1024844D01*
X78007Y1024844D01*
X78111Y1024842D01*
X78214Y1024836D01*
X78318Y1024826D01*
X78421Y1024812D01*
X78523Y1024794D01*
X78624Y1024773D01*
X78725Y1024747D01*
X78824Y1024718D01*
X78923Y1024685D01*
X79020Y1024648D01*
X79115Y1024607D01*
X79209Y1024563D01*
X79301Y1024515D01*
X79391Y1024464D01*
X79480Y1024409D01*
X79566Y1024351D01*
X79649Y1024289D01*
X79731Y1024225D01*
X79809Y1024157D01*
X79885Y1024087D01*
X79959Y1024014D01*
X80029Y1023937D01*
X80097Y1023859D01*
X80161Y1023777D01*
X80223Y1023694D01*
X80281Y1023608D01*
X80336Y1023519D01*
X80387Y1023429D01*
X80435Y1023337D01*
X80479Y1023243D01*
X80520Y1023148D01*
X80557Y1023051D01*
X80590Y1022952D01*
X80619Y1022853D01*
X80645Y1022752D01*
X80666Y1022651D01*
X80684Y1022549D01*
X80698Y1022446D01*
X80708Y1022342D01*
X80714Y1022239D01*
X80716Y1022135D01*
X80716Y1014007D01*
X96767Y1014007D02*
X96767Y1030263D01*
X101283Y1030263D01*
X101416Y1030261D01*
X101548Y1030255D01*
X101680Y1030245D01*
X101812Y1030232D01*
X101944Y1030214D01*
X102074Y1030193D01*
X102205Y1030168D01*
X102334Y1030139D01*
X102462Y1030106D01*
X102590Y1030070D01*
X102716Y1030030D01*
X102841Y1029986D01*
X102965Y1029938D01*
X103087Y1029887D01*
X103208Y1029832D01*
X103327Y1029774D01*
X103445Y1029712D01*
X103560Y1029647D01*
X103674Y1029578D01*
X103785Y1029507D01*
X103894Y1029431D01*
X104001Y1029353D01*
X104106Y1029272D01*
X104208Y1029187D01*
X104308Y1029100D01*
X104405Y1029010D01*
X104500Y1028917D01*
X104591Y1028821D01*
X104680Y1028723D01*
X104766Y1028622D01*
X104849Y1028518D01*
X104929Y1028412D01*
X105005Y1028304D01*
X105079Y1028194D01*
X105149Y1028081D01*
X105216Y1027967D01*
X105279Y1027850D01*
X105339Y1027732D01*
X105396Y1027612D01*
X105449Y1027490D01*
X105498Y1027367D01*
X105544Y1027243D01*
X105586Y1027117D01*
X105624Y1026990D01*
X105659Y1026862D01*
X105690Y1026733D01*
X105717Y1026604D01*
X105740Y1026473D01*
X105760Y1026342D01*
X105775Y1026210D01*
X105787Y1026078D01*
X105795Y1025946D01*
X105799Y1025813D01*
X105799Y1025681D01*
X105795Y1025548D01*
X105787Y1025416D01*
X105775Y1025284D01*
X105760Y1025152D01*
X105740Y1025021D01*
X105717Y1024890D01*
X105690Y1024761D01*
X105659Y1024632D01*
X105624Y1024504D01*
X105586Y1024377D01*
X105544Y1024251D01*
X105498Y1024127D01*
X105449Y1024004D01*
X105396Y1023882D01*
X105339Y1023762D01*
X105279Y1023644D01*
X105216Y1023527D01*
X105149Y1023413D01*
X105079Y1023300D01*
X105005Y1023190D01*
X104929Y1023082D01*
X104849Y1022976D01*
X104766Y1022872D01*
X104680Y1022771D01*
X104591Y1022673D01*
X104500Y1022577D01*
X104405Y1022484D01*
X104308Y1022394D01*
X104208Y1022307D01*
X104106Y1022222D01*
X104001Y1022141D01*
X103894Y1022063D01*
X103785Y1021987D01*
X103674Y1021916D01*
X103560Y1021847D01*
X103445Y1021782D01*
X103327Y1021720D01*
X103208Y1021662D01*
X103087Y1021607D01*
X102965Y1021556D01*
X102841Y1021508D01*
X102716Y1021464D01*
X102590Y1021424D01*
X102462Y1021388D01*
X102334Y1021355D01*
X102205Y1021326D01*
X102074Y1021301D01*
X101944Y1021280D01*
X101812Y1021262D01*
X101680Y1021249D01*
X101548Y1021239D01*
X101416Y1021233D01*
X101283Y1021231D01*
X101283Y1021232D02*
X96767Y1021232D01*
X114237Y1014007D02*
X118752Y1014007D01*
X114237Y1014007D02*
X114136Y1014009D01*
X114035Y1014015D01*
X113934Y1014024D01*
X113833Y1014037D01*
X113733Y1014054D01*
X113634Y1014075D01*
X113536Y1014099D01*
X113439Y1014127D01*
X113342Y1014159D01*
X113247Y1014194D01*
X113154Y1014233D01*
X113062Y1014275D01*
X112971Y1014321D01*
X112883Y1014370D01*
X112796Y1014422D01*
X112711Y1014478D01*
X112628Y1014536D01*
X112548Y1014598D01*
X112470Y1014663D01*
X112394Y1014730D01*
X112321Y1014800D01*
X112251Y1014873D01*
X112184Y1014949D01*
X112119Y1015027D01*
X112057Y1015107D01*
X111999Y1015190D01*
X111943Y1015275D01*
X111891Y1015362D01*
X111842Y1015450D01*
X111796Y1015541D01*
X111754Y1015633D01*
X111715Y1015726D01*
X111680Y1015821D01*
X111648Y1015918D01*
X111620Y1016015D01*
X111596Y1016113D01*
X111575Y1016212D01*
X111558Y1016312D01*
X111545Y1016413D01*
X111536Y1016514D01*
X111530Y1016615D01*
X111528Y1016716D01*
X111527Y1016716D02*
X111527Y1021232D01*
X111528Y1021232D02*
X111530Y1021351D01*
X111536Y1021471D01*
X111546Y1021590D01*
X111560Y1021708D01*
X111577Y1021827D01*
X111599Y1021944D01*
X111624Y1022061D01*
X111654Y1022176D01*
X111687Y1022291D01*
X111724Y1022405D01*
X111764Y1022517D01*
X111809Y1022628D01*
X111857Y1022737D01*
X111908Y1022845D01*
X111963Y1022951D01*
X112022Y1023055D01*
X112084Y1023157D01*
X112149Y1023257D01*
X112218Y1023355D01*
X112290Y1023451D01*
X112365Y1023544D01*
X112442Y1023634D01*
X112523Y1023722D01*
X112607Y1023807D01*
X112694Y1023889D01*
X112783Y1023969D01*
X112875Y1024045D01*
X112969Y1024119D01*
X113066Y1024189D01*
X113164Y1024256D01*
X113265Y1024320D01*
X113369Y1024380D01*
X113474Y1024437D01*
X113581Y1024490D01*
X113689Y1024540D01*
X113799Y1024586D01*
X113911Y1024628D01*
X114024Y1024667D01*
X114138Y1024702D01*
X114253Y1024733D01*
X114370Y1024761D01*
X114487Y1024784D01*
X114604Y1024804D01*
X114723Y1024820D01*
X114842Y1024832D01*
X114961Y1024840D01*
X115080Y1024844D01*
X115200Y1024844D01*
X115319Y1024840D01*
X115438Y1024832D01*
X115557Y1024820D01*
X115676Y1024804D01*
X115793Y1024784D01*
X115910Y1024761D01*
X116027Y1024733D01*
X116142Y1024702D01*
X116256Y1024667D01*
X116369Y1024628D01*
X116481Y1024586D01*
X116591Y1024540D01*
X116699Y1024490D01*
X116806Y1024437D01*
X116911Y1024380D01*
X117015Y1024320D01*
X117116Y1024256D01*
X117214Y1024189D01*
X117311Y1024119D01*
X117405Y1024045D01*
X117497Y1023969D01*
X117586Y1023889D01*
X117673Y1023807D01*
X117757Y1023722D01*
X117838Y1023634D01*
X117915Y1023544D01*
X117990Y1023451D01*
X118062Y1023355D01*
X118131Y1023257D01*
X118196Y1023157D01*
X118258Y1023055D01*
X118317Y1022951D01*
X118372Y1022845D01*
X118423Y1022737D01*
X118471Y1022628D01*
X118516Y1022517D01*
X118556Y1022405D01*
X118593Y1022291D01*
X118626Y1022176D01*
X118656Y1022061D01*
X118681Y1021944D01*
X118703Y1021827D01*
X118720Y1021708D01*
X118734Y1021590D01*
X118744Y1021471D01*
X118750Y1021351D01*
X118752Y1021232D01*
X118752Y1019426D01*
X111527Y1019426D01*
X123777Y1024844D02*
X129196Y1024844D01*
X125583Y1030263D02*
X125583Y1016716D01*
X125584Y1016716D02*
X125586Y1016615D01*
X125592Y1016514D01*
X125601Y1016413D01*
X125614Y1016312D01*
X125631Y1016212D01*
X125652Y1016113D01*
X125676Y1016015D01*
X125704Y1015918D01*
X125736Y1015821D01*
X125771Y1015726D01*
X125810Y1015633D01*
X125852Y1015541D01*
X125898Y1015450D01*
X125947Y1015362D01*
X125999Y1015275D01*
X126055Y1015190D01*
X126113Y1015107D01*
X126175Y1015027D01*
X126240Y1014949D01*
X126307Y1014873D01*
X126377Y1014800D01*
X126450Y1014730D01*
X126526Y1014663D01*
X126604Y1014598D01*
X126684Y1014536D01*
X126767Y1014478D01*
X126852Y1014422D01*
X126939Y1014370D01*
X127027Y1014321D01*
X127118Y1014275D01*
X127210Y1014233D01*
X127303Y1014194D01*
X127398Y1014159D01*
X127495Y1014127D01*
X127592Y1014099D01*
X127690Y1014075D01*
X127789Y1014054D01*
X127889Y1014037D01*
X127990Y1014024D01*
X128091Y1014015D01*
X128192Y1014009D01*
X128293Y1014007D01*
X129196Y1014007D01*
X137683Y1014007D02*
X142199Y1014007D01*
X137683Y1014007D02*
X137582Y1014009D01*
X137481Y1014015D01*
X137380Y1014024D01*
X137279Y1014037D01*
X137179Y1014054D01*
X137080Y1014075D01*
X136982Y1014099D01*
X136885Y1014127D01*
X136788Y1014159D01*
X136693Y1014194D01*
X136600Y1014233D01*
X136508Y1014275D01*
X136417Y1014321D01*
X136329Y1014370D01*
X136242Y1014422D01*
X136157Y1014478D01*
X136074Y1014536D01*
X135994Y1014598D01*
X135916Y1014663D01*
X135840Y1014730D01*
X135767Y1014800D01*
X135697Y1014873D01*
X135630Y1014949D01*
X135565Y1015027D01*
X135503Y1015107D01*
X135445Y1015190D01*
X135389Y1015275D01*
X135337Y1015362D01*
X135288Y1015450D01*
X135242Y1015541D01*
X135200Y1015633D01*
X135161Y1015726D01*
X135126Y1015821D01*
X135094Y1015918D01*
X135066Y1016015D01*
X135042Y1016113D01*
X135021Y1016212D01*
X135004Y1016312D01*
X134991Y1016413D01*
X134982Y1016514D01*
X134976Y1016615D01*
X134974Y1016716D01*
X134974Y1021232D01*
X134975Y1021232D02*
X134977Y1021351D01*
X134983Y1021471D01*
X134993Y1021590D01*
X135007Y1021708D01*
X135024Y1021827D01*
X135046Y1021944D01*
X135071Y1022061D01*
X135101Y1022176D01*
X135134Y1022291D01*
X135171Y1022405D01*
X135211Y1022517D01*
X135256Y1022628D01*
X135304Y1022737D01*
X135355Y1022845D01*
X135410Y1022951D01*
X135469Y1023055D01*
X135531Y1023157D01*
X135596Y1023257D01*
X135665Y1023355D01*
X135737Y1023451D01*
X135812Y1023544D01*
X135889Y1023634D01*
X135970Y1023722D01*
X136054Y1023807D01*
X136141Y1023889D01*
X136230Y1023969D01*
X136322Y1024045D01*
X136416Y1024119D01*
X136513Y1024189D01*
X136611Y1024256D01*
X136712Y1024320D01*
X136816Y1024380D01*
X136921Y1024437D01*
X137028Y1024490D01*
X137136Y1024540D01*
X137246Y1024586D01*
X137358Y1024628D01*
X137471Y1024667D01*
X137585Y1024702D01*
X137700Y1024733D01*
X137817Y1024761D01*
X137934Y1024784D01*
X138051Y1024804D01*
X138170Y1024820D01*
X138289Y1024832D01*
X138408Y1024840D01*
X138527Y1024844D01*
X138647Y1024844D01*
X138766Y1024840D01*
X138885Y1024832D01*
X139004Y1024820D01*
X139123Y1024804D01*
X139240Y1024784D01*
X139357Y1024761D01*
X139474Y1024733D01*
X139589Y1024702D01*
X139703Y1024667D01*
X139816Y1024628D01*
X139928Y1024586D01*
X140038Y1024540D01*
X140146Y1024490D01*
X140253Y1024437D01*
X140358Y1024380D01*
X140462Y1024320D01*
X140563Y1024256D01*
X140661Y1024189D01*
X140758Y1024119D01*
X140852Y1024045D01*
X140944Y1023969D01*
X141033Y1023889D01*
X141120Y1023807D01*
X141204Y1023722D01*
X141285Y1023634D01*
X141362Y1023544D01*
X141437Y1023451D01*
X141509Y1023355D01*
X141578Y1023257D01*
X141643Y1023157D01*
X141705Y1023055D01*
X141764Y1022951D01*
X141819Y1022845D01*
X141870Y1022737D01*
X141918Y1022628D01*
X141963Y1022517D01*
X142003Y1022405D01*
X142040Y1022291D01*
X142073Y1022176D01*
X142103Y1022061D01*
X142128Y1021944D01*
X142150Y1021827D01*
X142167Y1021708D01*
X142181Y1021590D01*
X142191Y1021471D01*
X142197Y1021351D01*
X142199Y1021232D01*
X142199Y1019426D01*
X134974Y1019426D01*
X149127Y1014007D02*
X149127Y1024844D01*
X154546Y1024844D01*
X154546Y1023038D01*
X160818Y1020329D02*
X165333Y1018523D01*
X160817Y1020329D02*
X160729Y1020366D01*
X160643Y1020407D01*
X160558Y1020451D01*
X160475Y1020499D01*
X160395Y1020550D01*
X160316Y1020604D01*
X160240Y1020662D01*
X160166Y1020722D01*
X160094Y1020786D01*
X160026Y1020852D01*
X159960Y1020922D01*
X159897Y1020993D01*
X159836Y1021068D01*
X159779Y1021144D01*
X159726Y1021223D01*
X159675Y1021304D01*
X159628Y1021387D01*
X159584Y1021472D01*
X159544Y1021559D01*
X159507Y1021647D01*
X159474Y1021737D01*
X159444Y1021828D01*
X159419Y1021920D01*
X159397Y1022013D01*
X159379Y1022107D01*
X159364Y1022201D01*
X159354Y1022296D01*
X159348Y1022392D01*
X159345Y1022487D01*
X159346Y1022583D01*
X159352Y1022678D01*
X159361Y1022774D01*
X159374Y1022868D01*
X159390Y1022962D01*
X159411Y1023056D01*
X159436Y1023148D01*
X159464Y1023239D01*
X159496Y1023329D01*
X159531Y1023418D01*
X159570Y1023505D01*
X159613Y1023591D01*
X159659Y1023675D01*
X159709Y1023756D01*
X159761Y1023836D01*
X159817Y1023914D01*
X159877Y1023989D01*
X159939Y1024061D01*
X160004Y1024131D01*
X160072Y1024199D01*
X160142Y1024263D01*
X160215Y1024325D01*
X160291Y1024383D01*
X160369Y1024439D01*
X160449Y1024491D01*
X160531Y1024540D01*
X160615Y1024585D01*
X160701Y1024627D01*
X160788Y1024666D01*
X160877Y1024701D01*
X160968Y1024732D01*
X161059Y1024759D01*
X161152Y1024783D01*
X161245Y1024803D01*
X161339Y1024819D01*
X161434Y1024831D01*
X161529Y1024840D01*
X161625Y1024844D01*
X161720Y1024845D01*
X161967Y1024838D01*
X162213Y1024826D01*
X162459Y1024808D01*
X162705Y1024783D01*
X162949Y1024753D01*
X163193Y1024717D01*
X163436Y1024676D01*
X163678Y1024628D01*
X163919Y1024574D01*
X164158Y1024515D01*
X164396Y1024450D01*
X164632Y1024379D01*
X164867Y1024303D01*
X165100Y1024221D01*
X165330Y1024133D01*
X165558Y1024040D01*
X165785Y1023942D01*
X165334Y1018522D02*
X165422Y1018485D01*
X165508Y1018444D01*
X165593Y1018400D01*
X165676Y1018352D01*
X165756Y1018301D01*
X165835Y1018247D01*
X165911Y1018189D01*
X165985Y1018129D01*
X166057Y1018065D01*
X166125Y1017999D01*
X166191Y1017929D01*
X166254Y1017858D01*
X166315Y1017783D01*
X166372Y1017707D01*
X166425Y1017628D01*
X166476Y1017547D01*
X166523Y1017464D01*
X166567Y1017379D01*
X166607Y1017292D01*
X166644Y1017204D01*
X166677Y1017114D01*
X166707Y1017023D01*
X166732Y1016931D01*
X166754Y1016838D01*
X166772Y1016744D01*
X166787Y1016650D01*
X166797Y1016555D01*
X166803Y1016459D01*
X166806Y1016364D01*
X166805Y1016268D01*
X166799Y1016173D01*
X166790Y1016077D01*
X166777Y1015983D01*
X166761Y1015889D01*
X166740Y1015795D01*
X166715Y1015703D01*
X166687Y1015612D01*
X166655Y1015522D01*
X166620Y1015433D01*
X166581Y1015346D01*
X166538Y1015260D01*
X166492Y1015176D01*
X166442Y1015095D01*
X166390Y1015015D01*
X166334Y1014937D01*
X166274Y1014862D01*
X166212Y1014790D01*
X166147Y1014720D01*
X166079Y1014652D01*
X166009Y1014588D01*
X165936Y1014526D01*
X165860Y1014468D01*
X165782Y1014412D01*
X165702Y1014360D01*
X165620Y1014311D01*
X165536Y1014266D01*
X165450Y1014224D01*
X165363Y1014185D01*
X165274Y1014150D01*
X165183Y1014119D01*
X165092Y1014092D01*
X164999Y1014068D01*
X164906Y1014048D01*
X164812Y1014032D01*
X164717Y1014020D01*
X164622Y1014011D01*
X164526Y1014007D01*
X164431Y1014006D01*
X164430Y1014007D02*
X164068Y1014016D01*
X163706Y1014034D01*
X163345Y1014061D01*
X162985Y1014096D01*
X162625Y1014139D01*
X162266Y1014191D01*
X161909Y1014252D01*
X161554Y1014321D01*
X161200Y1014398D01*
X160848Y1014484D01*
X160498Y1014578D01*
X160150Y1014681D01*
X159805Y1014791D01*
X159463Y1014910D01*
X175719Y1014007D02*
X180235Y1014007D01*
X175719Y1014007D02*
X175618Y1014009D01*
X175517Y1014015D01*
X175416Y1014024D01*
X175315Y1014037D01*
X175215Y1014054D01*
X175116Y1014075D01*
X175018Y1014099D01*
X174921Y1014127D01*
X174824Y1014159D01*
X174729Y1014194D01*
X174636Y1014233D01*
X174544Y1014275D01*
X174453Y1014321D01*
X174365Y1014370D01*
X174278Y1014422D01*
X174193Y1014478D01*
X174110Y1014536D01*
X174030Y1014598D01*
X173952Y1014663D01*
X173876Y1014730D01*
X173803Y1014800D01*
X173733Y1014873D01*
X173666Y1014949D01*
X173601Y1015027D01*
X173539Y1015107D01*
X173481Y1015190D01*
X173425Y1015275D01*
X173373Y1015362D01*
X173324Y1015450D01*
X173278Y1015541D01*
X173236Y1015633D01*
X173197Y1015726D01*
X173162Y1015821D01*
X173130Y1015918D01*
X173102Y1016015D01*
X173078Y1016113D01*
X173057Y1016212D01*
X173040Y1016312D01*
X173027Y1016413D01*
X173018Y1016514D01*
X173012Y1016615D01*
X173010Y1016716D01*
X173010Y1021232D01*
X173012Y1021351D01*
X173018Y1021471D01*
X173028Y1021590D01*
X173042Y1021708D01*
X173059Y1021827D01*
X173081Y1021944D01*
X173106Y1022061D01*
X173136Y1022176D01*
X173169Y1022291D01*
X173206Y1022405D01*
X173246Y1022517D01*
X173291Y1022628D01*
X173339Y1022737D01*
X173390Y1022845D01*
X173445Y1022951D01*
X173504Y1023055D01*
X173566Y1023157D01*
X173631Y1023257D01*
X173700Y1023355D01*
X173772Y1023451D01*
X173847Y1023544D01*
X173924Y1023634D01*
X174005Y1023722D01*
X174089Y1023807D01*
X174176Y1023889D01*
X174265Y1023969D01*
X174357Y1024045D01*
X174451Y1024119D01*
X174548Y1024189D01*
X174646Y1024256D01*
X174747Y1024320D01*
X174851Y1024380D01*
X174956Y1024437D01*
X175063Y1024490D01*
X175171Y1024540D01*
X175281Y1024586D01*
X175393Y1024628D01*
X175506Y1024667D01*
X175620Y1024702D01*
X175735Y1024733D01*
X175852Y1024761D01*
X175969Y1024784D01*
X176086Y1024804D01*
X176205Y1024820D01*
X176324Y1024832D01*
X176443Y1024840D01*
X176562Y1024844D01*
X176682Y1024844D01*
X176801Y1024840D01*
X176920Y1024832D01*
X177039Y1024820D01*
X177158Y1024804D01*
X177275Y1024784D01*
X177392Y1024761D01*
X177509Y1024733D01*
X177624Y1024702D01*
X177738Y1024667D01*
X177851Y1024628D01*
X177963Y1024586D01*
X178073Y1024540D01*
X178181Y1024490D01*
X178288Y1024437D01*
X178393Y1024380D01*
X178497Y1024320D01*
X178598Y1024256D01*
X178696Y1024189D01*
X178793Y1024119D01*
X178887Y1024045D01*
X178979Y1023969D01*
X179068Y1023889D01*
X179155Y1023807D01*
X179239Y1023722D01*
X179320Y1023634D01*
X179397Y1023544D01*
X179472Y1023451D01*
X179544Y1023355D01*
X179613Y1023257D01*
X179678Y1023157D01*
X179740Y1023055D01*
X179799Y1022951D01*
X179854Y1022845D01*
X179905Y1022737D01*
X179953Y1022628D01*
X179998Y1022517D01*
X180038Y1022405D01*
X180075Y1022291D01*
X180108Y1022176D01*
X180138Y1022061D01*
X180163Y1021944D01*
X180185Y1021827D01*
X180202Y1021708D01*
X180216Y1021590D01*
X180226Y1021471D01*
X180232Y1021351D01*
X180234Y1021232D01*
X180235Y1021232D02*
X180235Y1019426D01*
X173010Y1019426D01*
X187078Y1014007D02*
X187078Y1024844D01*
X191594Y1024844D01*
X191698Y1024842D01*
X191801Y1024836D01*
X191905Y1024826D01*
X192008Y1024812D01*
X192110Y1024794D01*
X192211Y1024773D01*
X192312Y1024747D01*
X192411Y1024718D01*
X192510Y1024685D01*
X192607Y1024648D01*
X192702Y1024607D01*
X192796Y1024563D01*
X192888Y1024515D01*
X192978Y1024464D01*
X193067Y1024409D01*
X193153Y1024351D01*
X193236Y1024289D01*
X193318Y1024225D01*
X193396Y1024157D01*
X193472Y1024087D01*
X193546Y1024014D01*
X193616Y1023937D01*
X193684Y1023859D01*
X193748Y1023777D01*
X193810Y1023694D01*
X193868Y1023608D01*
X193923Y1023519D01*
X193974Y1023429D01*
X194022Y1023337D01*
X194066Y1023243D01*
X194107Y1023148D01*
X194144Y1023051D01*
X194177Y1022952D01*
X194206Y1022853D01*
X194232Y1022752D01*
X194253Y1022651D01*
X194271Y1022549D01*
X194285Y1022446D01*
X194295Y1022342D01*
X194301Y1022239D01*
X194303Y1022135D01*
X194303Y1014007D01*
X94194Y999529D02*
X94192Y999654D01*
X94186Y999779D01*
X94177Y999904D01*
X94163Y1000028D01*
X94146Y1000152D01*
X94125Y1000276D01*
X94100Y1000398D01*
X94071Y1000520D01*
X94039Y1000641D01*
X94003Y1000761D01*
X93963Y1000880D01*
X93920Y1000997D01*
X93873Y1001113D01*
X93822Y1001228D01*
X93768Y1001340D01*
X93710Y1001452D01*
X93650Y1001561D01*
X93585Y1001668D01*
X93518Y1001774D01*
X93447Y1001877D01*
X93373Y1001978D01*
X93296Y1002077D01*
X93216Y1002173D01*
X93133Y1002267D01*
X93048Y1002358D01*
X92959Y1002447D01*
X92868Y1002532D01*
X92774Y1002615D01*
X92678Y1002695D01*
X92579Y1002772D01*
X92478Y1002846D01*
X92375Y1002917D01*
X92269Y1002984D01*
X92162Y1003049D01*
X92053Y1003109D01*
X91941Y1003167D01*
X91829Y1003221D01*
X91714Y1003272D01*
X91598Y1003319D01*
X91481Y1003362D01*
X91362Y1003402D01*
X91242Y1003438D01*
X91121Y1003470D01*
X90999Y1003499D01*
X90877Y1003524D01*
X90753Y1003545D01*
X90629Y1003562D01*
X90505Y1003576D01*
X90380Y1003585D01*
X90255Y1003591D01*
X90130Y1003593D01*
X89987Y1003591D01*
X89845Y1003585D01*
X89702Y1003575D01*
X89560Y1003562D01*
X89419Y1003544D01*
X89277Y1003523D01*
X89137Y1003498D01*
X88997Y1003469D01*
X88858Y1003436D01*
X88720Y1003399D01*
X88583Y1003359D01*
X88448Y1003315D01*
X88313Y1003267D01*
X88180Y1003215D01*
X88048Y1003160D01*
X87918Y1003101D01*
X87790Y1003039D01*
X87663Y1002973D01*
X87538Y1002904D01*
X87415Y1002832D01*
X87295Y1002756D01*
X87176Y1002677D01*
X87059Y1002594D01*
X86945Y1002509D01*
X86833Y1002420D01*
X86724Y1002329D01*
X86617Y1002234D01*
X86512Y1002137D01*
X86411Y1002036D01*
X86312Y1001933D01*
X86216Y1001828D01*
X86123Y1001719D01*
X86033Y1001608D01*
X85946Y1001495D01*
X85862Y1001380D01*
X85782Y1001262D01*
X85704Y1001142D01*
X85630Y1001020D01*
X85560Y1000896D01*
X85492Y1000770D01*
X85429Y1000642D01*
X85368Y1000513D01*
X85311Y1000382D01*
X85258Y1000250D01*
X85209Y1000116D01*
X85163Y999981D01*
X92839Y996368D02*
X92933Y996460D01*
X93023Y996554D01*
X93111Y996651D01*
X93196Y996751D01*
X93278Y996853D01*
X93357Y996958D01*
X93432Y997065D01*
X93504Y997174D01*
X93573Y997285D01*
X93639Y997399D01*
X93701Y997514D01*
X93760Y997631D01*
X93815Y997750D01*
X93866Y997870D01*
X93914Y997992D01*
X93959Y998115D01*
X93999Y998239D01*
X94036Y998365D01*
X94069Y998492D01*
X94098Y998619D01*
X94124Y998748D01*
X94145Y998877D01*
X94163Y999007D01*
X94176Y999137D01*
X94186Y999267D01*
X94192Y999398D01*
X94194Y999529D01*
X92839Y996368D02*
X85163Y987337D01*
X94194Y987337D01*
X100794Y995465D02*
X100798Y995785D01*
X100809Y996104D01*
X100828Y996424D01*
X100855Y996742D01*
X100889Y997060D01*
X100931Y997377D01*
X100981Y997693D01*
X101038Y998008D01*
X101102Y998321D01*
X101174Y998633D01*
X101253Y998943D01*
X101340Y999250D01*
X101434Y999556D01*
X101535Y999859D01*
X101644Y1000160D01*
X101759Y1000458D01*
X101882Y1000754D01*
X102012Y1001046D01*
X102149Y1001335D01*
X102148Y1001336D02*
X102187Y1001444D01*
X102230Y1001551D01*
X102276Y1001656D01*
X102327Y1001760D01*
X102380Y1001862D01*
X102437Y1001962D01*
X102498Y1002060D01*
X102562Y1002155D01*
X102629Y1002249D01*
X102700Y1002340D01*
X102773Y1002429D01*
X102850Y1002515D01*
X102929Y1002598D01*
X103011Y1002679D01*
X103096Y1002757D01*
X103184Y1002831D01*
X103274Y1002903D01*
X103366Y1002971D01*
X103461Y1003037D01*
X103558Y1003099D01*
X103657Y1003157D01*
X103759Y1003213D01*
X103861Y1003264D01*
X103966Y1003312D01*
X104072Y1003357D01*
X104180Y1003398D01*
X104289Y1003435D01*
X104399Y1003468D01*
X104511Y1003497D01*
X104623Y1003523D01*
X104736Y1003545D01*
X104850Y1003562D01*
X104964Y1003576D01*
X105079Y1003586D01*
X105194Y1003592D01*
X105309Y1003594D01*
X105309Y1003593D02*
X105424Y1003591D01*
X105539Y1003585D01*
X105654Y1003575D01*
X105768Y1003561D01*
X105882Y1003544D01*
X105995Y1003522D01*
X106107Y1003496D01*
X106219Y1003467D01*
X106329Y1003434D01*
X106438Y1003397D01*
X106546Y1003356D01*
X106652Y1003311D01*
X106757Y1003263D01*
X106859Y1003212D01*
X106960Y1003156D01*
X107060Y1003098D01*
X107157Y1003036D01*
X107251Y1002971D01*
X107344Y1002902D01*
X107434Y1002830D01*
X107522Y1002756D01*
X107607Y1002678D01*
X107689Y1002597D01*
X107768Y1002514D01*
X107845Y1002428D01*
X107918Y1002339D01*
X107989Y1002248D01*
X108056Y1002154D01*
X108120Y1002059D01*
X108181Y1001961D01*
X108238Y1001861D01*
X108291Y1001759D01*
X108342Y1001655D01*
X108388Y1001550D01*
X108431Y1001443D01*
X108470Y1001335D01*
X108607Y1001046D01*
X108737Y1000754D01*
X108860Y1000458D01*
X108975Y1000160D01*
X109084Y999859D01*
X109185Y999556D01*
X109279Y999250D01*
X109366Y998943D01*
X109445Y998633D01*
X109517Y998321D01*
X109581Y998008D01*
X109638Y997693D01*
X109688Y997377D01*
X109730Y997060D01*
X109764Y996742D01*
X109791Y996424D01*
X109810Y996104D01*
X109821Y995785D01*
X109825Y995465D01*
X100794Y995465D02*
X100798Y995145D01*
X100809Y994826D01*
X100828Y994506D01*
X100855Y994188D01*
X100889Y993870D01*
X100931Y993553D01*
X100981Y993237D01*
X101038Y992922D01*
X101102Y992609D01*
X101174Y992297D01*
X101253Y991987D01*
X101340Y991680D01*
X101434Y991374D01*
X101535Y991071D01*
X101644Y990770D01*
X101759Y990472D01*
X101882Y990176D01*
X102012Y989884D01*
X102149Y989595D01*
X102148Y989595D02*
X102187Y989487D01*
X102230Y989380D01*
X102276Y989275D01*
X102327Y989171D01*
X102380Y989069D01*
X102437Y988969D01*
X102498Y988871D01*
X102562Y988776D01*
X102629Y988682D01*
X102700Y988591D01*
X102773Y988502D01*
X102850Y988416D01*
X102929Y988333D01*
X103011Y988252D01*
X103096Y988174D01*
X103184Y988100D01*
X103274Y988028D01*
X103367Y987959D01*
X103461Y987894D01*
X103558Y987832D01*
X103658Y987774D01*
X103759Y987718D01*
X103861Y987667D01*
X103966Y987619D01*
X104072Y987574D01*
X104180Y987533D01*
X104289Y987496D01*
X104399Y987463D01*
X104511Y987434D01*
X104623Y987408D01*
X104736Y987386D01*
X104850Y987369D01*
X104964Y987355D01*
X105079Y987345D01*
X105194Y987339D01*
X105309Y987337D01*
X108470Y989595D02*
X108607Y989884D01*
X108737Y990176D01*
X108860Y990472D01*
X108975Y990770D01*
X109084Y991071D01*
X109185Y991374D01*
X109279Y991680D01*
X109366Y991987D01*
X109445Y992297D01*
X109517Y992609D01*
X109581Y992922D01*
X109638Y993237D01*
X109688Y993553D01*
X109730Y993870D01*
X109764Y994188D01*
X109791Y994506D01*
X109810Y994826D01*
X109821Y995145D01*
X109825Y995465D01*
X108470Y989595D02*
X108431Y989487D01*
X108388Y989380D01*
X108342Y989275D01*
X108291Y989171D01*
X108238Y989069D01*
X108181Y988969D01*
X108120Y988871D01*
X108056Y988776D01*
X107989Y988682D01*
X107918Y988591D01*
X107845Y988502D01*
X107768Y988416D01*
X107689Y988333D01*
X107607Y988252D01*
X107522Y988174D01*
X107434Y988100D01*
X107344Y988028D01*
X107251Y987959D01*
X107157Y987894D01*
X107060Y987832D01*
X106960Y987774D01*
X106859Y987718D01*
X106756Y987667D01*
X106652Y987619D01*
X106546Y987574D01*
X106438Y987533D01*
X106329Y987496D01*
X106219Y987463D01*
X106107Y987434D01*
X105995Y987408D01*
X105882Y987386D01*
X105768Y987369D01*
X105654Y987355D01*
X105539Y987345D01*
X105424Y987339D01*
X105309Y987337D01*
X101697Y990949D02*
X108922Y999981D01*
X121392Y1003593D02*
X121517Y1003591D01*
X121642Y1003585D01*
X121767Y1003576D01*
X121891Y1003562D01*
X122015Y1003545D01*
X122139Y1003524D01*
X122261Y1003499D01*
X122383Y1003470D01*
X122504Y1003438D01*
X122624Y1003402D01*
X122743Y1003362D01*
X122860Y1003319D01*
X122976Y1003272D01*
X123091Y1003221D01*
X123203Y1003167D01*
X123315Y1003109D01*
X123424Y1003049D01*
X123531Y1002984D01*
X123637Y1002917D01*
X123740Y1002846D01*
X123841Y1002772D01*
X123940Y1002695D01*
X124036Y1002615D01*
X124130Y1002532D01*
X124221Y1002447D01*
X124310Y1002358D01*
X124395Y1002267D01*
X124478Y1002173D01*
X124558Y1002077D01*
X124635Y1001978D01*
X124709Y1001877D01*
X124780Y1001774D01*
X124847Y1001668D01*
X124912Y1001561D01*
X124972Y1001452D01*
X125030Y1001340D01*
X125084Y1001228D01*
X125135Y1001113D01*
X125182Y1000997D01*
X125225Y1000880D01*
X125265Y1000761D01*
X125301Y1000641D01*
X125333Y1000520D01*
X125362Y1000398D01*
X125387Y1000276D01*
X125408Y1000152D01*
X125425Y1000028D01*
X125439Y999904D01*
X125448Y999779D01*
X125454Y999654D01*
X125456Y999529D01*
X121392Y1003593D02*
X121249Y1003591D01*
X121107Y1003585D01*
X120964Y1003575D01*
X120822Y1003562D01*
X120681Y1003544D01*
X120539Y1003523D01*
X120399Y1003498D01*
X120259Y1003469D01*
X120120Y1003436D01*
X119982Y1003399D01*
X119845Y1003359D01*
X119710Y1003315D01*
X119575Y1003267D01*
X119442Y1003215D01*
X119310Y1003160D01*
X119180Y1003101D01*
X119052Y1003039D01*
X118925Y1002973D01*
X118800Y1002904D01*
X118677Y1002832D01*
X118557Y1002756D01*
X118438Y1002677D01*
X118321Y1002594D01*
X118207Y1002509D01*
X118095Y1002420D01*
X117986Y1002329D01*
X117879Y1002234D01*
X117774Y1002137D01*
X117673Y1002036D01*
X117574Y1001933D01*
X117478Y1001828D01*
X117385Y1001719D01*
X117295Y1001608D01*
X117208Y1001495D01*
X117124Y1001380D01*
X117044Y1001262D01*
X116966Y1001142D01*
X116892Y1001020D01*
X116822Y1000896D01*
X116754Y1000770D01*
X116691Y1000642D01*
X116630Y1000513D01*
X116573Y1000382D01*
X116520Y1000250D01*
X116471Y1000116D01*
X116425Y999981D01*
X124101Y996368D02*
X124195Y996460D01*
X124285Y996554D01*
X124373Y996651D01*
X124458Y996751D01*
X124540Y996853D01*
X124619Y996958D01*
X124694Y997065D01*
X124766Y997174D01*
X124835Y997285D01*
X124901Y997399D01*
X124963Y997514D01*
X125022Y997631D01*
X125077Y997750D01*
X125128Y997870D01*
X125176Y997992D01*
X125221Y998115D01*
X125261Y998239D01*
X125298Y998365D01*
X125331Y998492D01*
X125360Y998619D01*
X125386Y998748D01*
X125407Y998877D01*
X125425Y999007D01*
X125438Y999137D01*
X125448Y999267D01*
X125454Y999398D01*
X125456Y999529D01*
X124102Y996368D02*
X116425Y987337D01*
X125456Y987337D01*
X132056Y999981D02*
X136572Y1003593D01*
X136572Y987337D01*
X141087Y987337D02*
X132056Y987337D01*
D10*
X590000Y190000D02*
X607000Y190000D01*
X590000Y190000D02*
X589758Y189997D01*
X589517Y189988D01*
X589276Y189974D01*
X589035Y189953D01*
X588795Y189927D01*
X588555Y189895D01*
X588316Y189857D01*
X588079Y189814D01*
X587842Y189764D01*
X587607Y189709D01*
X587373Y189649D01*
X587141Y189582D01*
X586910Y189511D01*
X586681Y189433D01*
X586454Y189350D01*
X586229Y189262D01*
X586006Y189168D01*
X585786Y189069D01*
X585568Y188964D01*
X585353Y188855D01*
X585140Y188740D01*
X584930Y188620D01*
X584724Y188495D01*
X584520Y188365D01*
X584319Y188230D01*
X584122Y188090D01*
X583928Y187946D01*
X583738Y187797D01*
X583552Y187643D01*
X583369Y187485D01*
X583190Y187323D01*
X583015Y187156D01*
X582844Y186985D01*
X582677Y186810D01*
X582515Y186631D01*
X582357Y186448D01*
X582203Y186262D01*
X582054Y186072D01*
X581910Y185878D01*
X581770Y185681D01*
X581635Y185480D01*
X581505Y185276D01*
X581380Y185070D01*
X581260Y184860D01*
X581145Y184647D01*
X581036Y184432D01*
X580931Y184214D01*
X580832Y183994D01*
X580738Y183771D01*
X580650Y183546D01*
X580567Y183319D01*
X580489Y183090D01*
X580418Y182859D01*
X580351Y182627D01*
X580291Y182393D01*
X580236Y182158D01*
X580186Y181921D01*
X580143Y181684D01*
X580105Y181445D01*
X580073Y181205D01*
X580047Y180965D01*
X580026Y180724D01*
X580012Y180483D01*
X580003Y180242D01*
X580000Y180000D01*
X580000Y110000D01*
X532000Y660000D02*
X48000Y660000D01*
X-26000Y450000D02*
X-26000Y190000D01*
X607000Y190000D02*
X607000Y450000D01*
D13*
X173563Y280988D03*
X173563Y306388D03*
D14*
X206375Y169863D03*
D15*
X231775Y169863D03*
X257175Y169863D03*
X282575Y169863D03*
X307975Y169863D03*
X333375Y169863D03*
X358775Y169863D03*
X384175Y169863D03*
X409575Y169863D03*
X434975Y169863D03*
X460375Y169863D03*
X485775Y169863D03*
X511175Y169863D03*
X536575Y169863D03*
X536575Y322263D03*
X511175Y322263D03*
X485775Y322263D03*
X460375Y322263D03*
X434975Y322263D03*
X409575Y322263D03*
X384175Y322263D03*
X358775Y322263D03*
X333375Y322263D03*
X307975Y322263D03*
X282575Y322263D03*
X257175Y322263D03*
X231775Y322263D03*
X206375Y322263D03*
D10*
X5000Y0D02*
X575000Y0D01*
X5000Y0D02*
X0Y5000D01*
X0Y110000D01*
X575000Y0D02*
X580000Y5000D01*
X580000Y110000D01*
D16*
X290000Y45000D03*
D13*
X174625Y342900D03*
X174625Y444500D03*
X201613Y342900D03*
X201613Y444500D03*
X228600Y342900D03*
X228600Y444500D03*
D17*
X561500Y423500D03*
D18*
X561500Y468500D03*
X496500Y423500D03*
X496500Y468500D03*
D19*
X19237Y902303D02*
X15497Y903799D01*
X15497Y903800D02*
X15417Y903834D01*
X15339Y903871D01*
X15262Y903912D01*
X15188Y903957D01*
X15115Y904004D01*
X15045Y904055D01*
X14977Y904109D01*
X14912Y904166D01*
X14849Y904226D01*
X14789Y904289D01*
X14731Y904354D01*
X14677Y904422D01*
X14626Y904492D01*
X14578Y904564D01*
X14533Y904639D01*
X14492Y904715D01*
X14454Y904793D01*
X14420Y904873D01*
X14389Y904954D01*
X14362Y905036D01*
X14338Y905120D01*
X14319Y905204D01*
X14303Y905290D01*
X14291Y905376D01*
X14283Y905462D01*
X14279Y905549D01*
X14278Y905636D01*
X14282Y905722D01*
X14289Y905809D01*
X14301Y905895D01*
X14316Y905980D01*
X14335Y906065D01*
X14357Y906149D01*
X14384Y906231D01*
X14414Y906313D01*
X14447Y906393D01*
X14485Y906471D01*
X14525Y906548D01*
X14570Y906623D01*
X14617Y906695D01*
X14668Y906766D01*
X14721Y906834D01*
X14778Y906900D01*
X14838Y906963D01*
X14900Y907023D01*
X14965Y907081D01*
X15033Y907135D01*
X15102Y907187D01*
X15175Y907235D01*
X15249Y907280D01*
X15325Y907322D01*
X15403Y907360D01*
X15482Y907394D01*
X15563Y907426D01*
X15646Y907453D01*
X15729Y907477D01*
X15814Y907497D01*
X15899Y907513D01*
X15985Y907525D01*
X16071Y907534D01*
X16158Y907538D01*
X16245Y907539D01*
X16245Y907538D02*
X16450Y907533D01*
X16653Y907522D01*
X16857Y907507D01*
X17060Y907487D01*
X17263Y907462D01*
X17465Y907432D01*
X17666Y907398D01*
X17867Y907358D01*
X18066Y907314D01*
X18264Y907265D01*
X18461Y907211D01*
X18657Y907153D01*
X18851Y907089D01*
X19044Y907021D01*
X19234Y906949D01*
X19424Y906872D01*
X19611Y906790D01*
X19237Y902303D02*
X19317Y902269D01*
X19395Y902232D01*
X19472Y902191D01*
X19546Y902146D01*
X19619Y902099D01*
X19689Y902048D01*
X19757Y901994D01*
X19822Y901937D01*
X19885Y901877D01*
X19945Y901814D01*
X20003Y901749D01*
X20057Y901681D01*
X20108Y901611D01*
X20156Y901539D01*
X20201Y901464D01*
X20242Y901388D01*
X20280Y901310D01*
X20314Y901230D01*
X20345Y901149D01*
X20372Y901067D01*
X20396Y900983D01*
X20415Y900899D01*
X20431Y900813D01*
X20443Y900727D01*
X20451Y900641D01*
X20455Y900554D01*
X20456Y900467D01*
X20452Y900381D01*
X20445Y900294D01*
X20433Y900208D01*
X20418Y900123D01*
X20399Y900038D01*
X20377Y899954D01*
X20350Y899872D01*
X20320Y899790D01*
X20287Y899710D01*
X20249Y899632D01*
X20209Y899555D01*
X20164Y899480D01*
X20117Y899408D01*
X20066Y899337D01*
X20013Y899269D01*
X19956Y899203D01*
X19896Y899140D01*
X19834Y899080D01*
X19769Y899022D01*
X19701Y898968D01*
X19632Y898916D01*
X19559Y898868D01*
X19485Y898823D01*
X19409Y898781D01*
X19331Y898743D01*
X19252Y898709D01*
X19171Y898677D01*
X19088Y898650D01*
X19005Y898626D01*
X18920Y898606D01*
X18835Y898590D01*
X18749Y898578D01*
X18663Y898569D01*
X18576Y898565D01*
X18489Y898564D01*
X18189Y898572D01*
X17889Y898587D01*
X17590Y898609D01*
X17291Y898638D01*
X16994Y898674D01*
X16697Y898717D01*
X16401Y898768D01*
X16107Y898825D01*
X15814Y898889D01*
X15522Y898960D01*
X15232Y899038D01*
X14945Y899122D01*
X14659Y899214D01*
X14375Y899312D01*
X25027Y907539D02*
X29514Y907539D01*
X26522Y912026D02*
X26522Y900808D01*
X26524Y900715D01*
X26530Y900623D01*
X26539Y900530D01*
X26553Y900439D01*
X26570Y900347D01*
X26591Y900257D01*
X26615Y900168D01*
X26644Y900079D01*
X26676Y899992D01*
X26711Y899907D01*
X26750Y899822D01*
X26792Y899740D01*
X26838Y899659D01*
X26887Y899581D01*
X26940Y899504D01*
X26995Y899430D01*
X27054Y899358D01*
X27115Y899288D01*
X27179Y899221D01*
X27246Y899157D01*
X27316Y899096D01*
X27388Y899037D01*
X27462Y898982D01*
X27539Y898929D01*
X27617Y898880D01*
X27698Y898834D01*
X27780Y898792D01*
X27865Y898753D01*
X27950Y898718D01*
X28037Y898686D01*
X28126Y898657D01*
X28215Y898633D01*
X28305Y898612D01*
X28397Y898595D01*
X28488Y898581D01*
X28581Y898572D01*
X28673Y898566D01*
X28766Y898564D01*
X29514Y898564D01*
X34908Y901556D02*
X34908Y904547D01*
X34910Y904655D01*
X34916Y904763D01*
X34926Y904870D01*
X34939Y904978D01*
X34957Y905084D01*
X34978Y905190D01*
X35003Y905295D01*
X35032Y905399D01*
X35065Y905502D01*
X35101Y905604D01*
X35141Y905704D01*
X35185Y905803D01*
X35232Y905901D01*
X35282Y905996D01*
X35336Y906090D01*
X35394Y906181D01*
X35454Y906271D01*
X35518Y906358D01*
X35585Y906442D01*
X35655Y906525D01*
X35728Y906605D01*
X35804Y906682D01*
X35882Y906756D01*
X35963Y906827D01*
X36047Y906896D01*
X36133Y906961D01*
X36221Y907023D01*
X36311Y907082D01*
X36404Y907138D01*
X36499Y907190D01*
X36595Y907239D01*
X36693Y907285D01*
X36793Y907326D01*
X36894Y907365D01*
X36996Y907399D01*
X37100Y907430D01*
X37204Y907457D01*
X37310Y907480D01*
X37416Y907500D01*
X37523Y907515D01*
X37630Y907527D01*
X37738Y907535D01*
X37846Y907539D01*
X37954Y907539D01*
X38062Y907535D01*
X38170Y907527D01*
X38277Y907515D01*
X38384Y907500D01*
X38490Y907480D01*
X38596Y907457D01*
X38700Y907430D01*
X38804Y907399D01*
X38906Y907365D01*
X39007Y907326D01*
X39107Y907285D01*
X39205Y907239D01*
X39301Y907190D01*
X39396Y907138D01*
X39489Y907082D01*
X39579Y907023D01*
X39667Y906961D01*
X39753Y906896D01*
X39837Y906827D01*
X39918Y906756D01*
X39996Y906682D01*
X40072Y906605D01*
X40145Y906525D01*
X40215Y906442D01*
X40282Y906358D01*
X40346Y906271D01*
X40406Y906181D01*
X40464Y906090D01*
X40518Y905996D01*
X40568Y905901D01*
X40615Y905803D01*
X40659Y905704D01*
X40699Y905604D01*
X40735Y905502D01*
X40768Y905399D01*
X40797Y905295D01*
X40822Y905190D01*
X40843Y905084D01*
X40861Y904978D01*
X40874Y904870D01*
X40884Y904763D01*
X40890Y904655D01*
X40892Y904547D01*
X40891Y904547D02*
X40891Y901556D01*
X40892Y901556D02*
X40890Y901448D01*
X40884Y901340D01*
X40874Y901233D01*
X40861Y901125D01*
X40843Y901019D01*
X40822Y900913D01*
X40797Y900808D01*
X40768Y900704D01*
X40735Y900601D01*
X40699Y900499D01*
X40659Y900399D01*
X40615Y900300D01*
X40568Y900202D01*
X40518Y900107D01*
X40464Y900013D01*
X40406Y899922D01*
X40346Y899832D01*
X40282Y899745D01*
X40215Y899661D01*
X40145Y899578D01*
X40072Y899498D01*
X39996Y899421D01*
X39918Y899347D01*
X39837Y899276D01*
X39753Y899207D01*
X39667Y899142D01*
X39579Y899080D01*
X39489Y899021D01*
X39396Y898965D01*
X39301Y898913D01*
X39205Y898864D01*
X39107Y898818D01*
X39007Y898777D01*
X38906Y898738D01*
X38804Y898704D01*
X38700Y898673D01*
X38596Y898646D01*
X38490Y898623D01*
X38384Y898603D01*
X38277Y898588D01*
X38170Y898576D01*
X38062Y898568D01*
X37954Y898564D01*
X37846Y898564D01*
X37738Y898568D01*
X37630Y898576D01*
X37523Y898588D01*
X37416Y898603D01*
X37310Y898623D01*
X37204Y898646D01*
X37100Y898673D01*
X36996Y898704D01*
X36894Y898738D01*
X36793Y898777D01*
X36693Y898818D01*
X36595Y898864D01*
X36499Y898913D01*
X36404Y898965D01*
X36311Y899021D01*
X36221Y899080D01*
X36133Y899142D01*
X36047Y899207D01*
X35963Y899276D01*
X35882Y899347D01*
X35804Y899421D01*
X35728Y899498D01*
X35655Y899578D01*
X35585Y899661D01*
X35518Y899745D01*
X35454Y899832D01*
X35394Y899922D01*
X35336Y900013D01*
X35282Y900107D01*
X35232Y900202D01*
X35185Y900300D01*
X35141Y900399D01*
X35101Y900499D01*
X35065Y900601D01*
X35032Y900704D01*
X35003Y900808D01*
X34978Y900913D01*
X34957Y901019D01*
X34939Y901125D01*
X34926Y901233D01*
X34916Y901340D01*
X34910Y901448D01*
X34908Y901556D01*
X47314Y907539D02*
X47314Y894077D01*
X47314Y907539D02*
X51053Y907539D01*
X51146Y907537D01*
X51238Y907531D01*
X51331Y907522D01*
X51422Y907508D01*
X51514Y907491D01*
X51604Y907470D01*
X51693Y907446D01*
X51782Y907417D01*
X51869Y907385D01*
X51954Y907350D01*
X52039Y907311D01*
X52121Y907269D01*
X52202Y907223D01*
X52280Y907174D01*
X52357Y907121D01*
X52431Y907066D01*
X52503Y907007D01*
X52573Y906946D01*
X52640Y906882D01*
X52704Y906815D01*
X52765Y906745D01*
X52824Y906673D01*
X52879Y906599D01*
X52932Y906522D01*
X52981Y906444D01*
X53027Y906363D01*
X53069Y906281D01*
X53108Y906196D01*
X53143Y906111D01*
X53175Y906024D01*
X53204Y905935D01*
X53228Y905846D01*
X53249Y905756D01*
X53266Y905664D01*
X53280Y905573D01*
X53289Y905480D01*
X53295Y905388D01*
X53297Y905295D01*
X53297Y900808D01*
X53295Y900715D01*
X53289Y900623D01*
X53280Y900530D01*
X53266Y900439D01*
X53249Y900348D01*
X53228Y900257D01*
X53204Y900168D01*
X53175Y900079D01*
X53143Y899992D01*
X53108Y899907D01*
X53069Y899822D01*
X53027Y899740D01*
X52981Y899659D01*
X52932Y899581D01*
X52879Y899504D01*
X52824Y899430D01*
X52765Y899358D01*
X52704Y899288D01*
X52640Y899221D01*
X52573Y899157D01*
X52503Y899096D01*
X52431Y899037D01*
X52357Y898982D01*
X52280Y898929D01*
X52202Y898880D01*
X52121Y898834D01*
X52039Y898792D01*
X51954Y898753D01*
X51869Y898718D01*
X51782Y898686D01*
X51693Y898657D01*
X51604Y898633D01*
X51514Y898612D01*
X51422Y898595D01*
X51331Y898581D01*
X51238Y898572D01*
X51146Y898566D01*
X51053Y898564D01*
X47314Y898564D01*
X59877Y898564D02*
X59877Y907539D01*
X66608Y907539D01*
X66701Y907537D01*
X66793Y907531D01*
X66886Y907522D01*
X66977Y907508D01*
X67069Y907491D01*
X67159Y907470D01*
X67248Y907446D01*
X67337Y907417D01*
X67424Y907385D01*
X67509Y907350D01*
X67594Y907311D01*
X67676Y907269D01*
X67757Y907223D01*
X67835Y907174D01*
X67912Y907121D01*
X67986Y907066D01*
X68058Y907007D01*
X68128Y906946D01*
X68195Y906882D01*
X68259Y906815D01*
X68320Y906745D01*
X68379Y906673D01*
X68434Y906599D01*
X68487Y906522D01*
X68536Y906444D01*
X68582Y906363D01*
X68624Y906281D01*
X68663Y906196D01*
X68698Y906111D01*
X68730Y906024D01*
X68759Y905935D01*
X68783Y905846D01*
X68804Y905756D01*
X68821Y905664D01*
X68835Y905573D01*
X68844Y905480D01*
X68850Y905388D01*
X68852Y905295D01*
X68852Y898564D01*
X64364Y898564D02*
X64364Y907539D01*
X78049Y903799D02*
X81415Y903799D01*
X78049Y903800D02*
X77947Y903798D01*
X77846Y903792D01*
X77745Y903782D01*
X77644Y903769D01*
X77544Y903751D01*
X77445Y903729D01*
X77347Y903704D01*
X77250Y903675D01*
X77154Y903642D01*
X77059Y903606D01*
X76966Y903565D01*
X76874Y903522D01*
X76784Y903474D01*
X76696Y903423D01*
X76610Y903369D01*
X76527Y903312D01*
X76445Y903251D01*
X76366Y903188D01*
X76290Y903121D01*
X76216Y903051D01*
X76145Y902979D01*
X76077Y902903D01*
X76011Y902826D01*
X75949Y902745D01*
X75890Y902663D01*
X75834Y902578D01*
X75782Y902491D01*
X75733Y902402D01*
X75687Y902311D01*
X75645Y902219D01*
X75607Y902125D01*
X75572Y902030D01*
X75541Y901933D01*
X75514Y901835D01*
X75490Y901736D01*
X75471Y901637D01*
X75455Y901536D01*
X75443Y901435D01*
X75435Y901334D01*
X75431Y901233D01*
X75431Y901131D01*
X75435Y901030D01*
X75443Y900929D01*
X75455Y900828D01*
X75471Y900727D01*
X75490Y900628D01*
X75514Y900529D01*
X75541Y900431D01*
X75572Y900334D01*
X75607Y900239D01*
X75645Y900145D01*
X75687Y900053D01*
X75733Y899962D01*
X75782Y899873D01*
X75834Y899786D01*
X75890Y899701D01*
X75949Y899619D01*
X76011Y899538D01*
X76077Y899461D01*
X76145Y899385D01*
X76216Y899313D01*
X76290Y899243D01*
X76366Y899176D01*
X76445Y899113D01*
X76527Y899052D01*
X76610Y898995D01*
X76696Y898941D01*
X76784Y898890D01*
X76874Y898842D01*
X76966Y898799D01*
X77059Y898758D01*
X77154Y898722D01*
X77250Y898689D01*
X77347Y898660D01*
X77445Y898635D01*
X77544Y898613D01*
X77644Y898595D01*
X77745Y898582D01*
X77846Y898572D01*
X77947Y898566D01*
X78049Y898564D01*
X81415Y898564D01*
X81415Y905295D01*
X81413Y905388D01*
X81407Y905480D01*
X81398Y905573D01*
X81384Y905664D01*
X81367Y905756D01*
X81346Y905846D01*
X81322Y905935D01*
X81293Y906024D01*
X81261Y906111D01*
X81226Y906196D01*
X81187Y906281D01*
X81145Y906363D01*
X81099Y906444D01*
X81050Y906522D01*
X80997Y906599D01*
X80942Y906673D01*
X80883Y906745D01*
X80822Y906815D01*
X80758Y906882D01*
X80691Y906946D01*
X80621Y907007D01*
X80549Y907066D01*
X80475Y907121D01*
X80398Y907174D01*
X80320Y907223D01*
X80239Y907269D01*
X80157Y907311D01*
X80072Y907350D01*
X79987Y907385D01*
X79900Y907417D01*
X79811Y907446D01*
X79722Y907470D01*
X79632Y907491D01*
X79540Y907508D01*
X79449Y907522D01*
X79356Y907531D01*
X79264Y907537D01*
X79171Y907539D01*
X76179Y907539D01*
X88959Y903799D02*
X92698Y902303D01*
X88959Y903800D02*
X88879Y903834D01*
X88801Y903871D01*
X88724Y903912D01*
X88650Y903957D01*
X88577Y904004D01*
X88507Y904055D01*
X88439Y904109D01*
X88374Y904166D01*
X88311Y904226D01*
X88251Y904289D01*
X88193Y904354D01*
X88139Y904422D01*
X88088Y904492D01*
X88040Y904564D01*
X87995Y904639D01*
X87954Y904715D01*
X87916Y904793D01*
X87882Y904873D01*
X87851Y904954D01*
X87824Y905036D01*
X87800Y905120D01*
X87781Y905204D01*
X87765Y905290D01*
X87753Y905376D01*
X87745Y905462D01*
X87741Y905549D01*
X87740Y905636D01*
X87744Y905722D01*
X87751Y905809D01*
X87763Y905895D01*
X87778Y905980D01*
X87797Y906065D01*
X87819Y906149D01*
X87846Y906231D01*
X87876Y906313D01*
X87909Y906393D01*
X87947Y906471D01*
X87987Y906548D01*
X88032Y906623D01*
X88079Y906695D01*
X88130Y906766D01*
X88183Y906834D01*
X88240Y906900D01*
X88300Y906963D01*
X88362Y907023D01*
X88427Y907081D01*
X88495Y907135D01*
X88564Y907187D01*
X88637Y907235D01*
X88711Y907280D01*
X88787Y907322D01*
X88865Y907360D01*
X88944Y907394D01*
X89025Y907426D01*
X89108Y907453D01*
X89191Y907477D01*
X89276Y907497D01*
X89361Y907513D01*
X89447Y907525D01*
X89533Y907534D01*
X89620Y907538D01*
X89707Y907539D01*
X89707Y907538D02*
X89912Y907533D01*
X90115Y907522D01*
X90319Y907507D01*
X90522Y907487D01*
X90725Y907462D01*
X90927Y907432D01*
X91128Y907398D01*
X91329Y907358D01*
X91528Y907314D01*
X91726Y907265D01*
X91923Y907211D01*
X92119Y907153D01*
X92313Y907089D01*
X92506Y907021D01*
X92696Y906949D01*
X92886Y906872D01*
X93073Y906790D01*
X92698Y902303D02*
X92778Y902269D01*
X92856Y902232D01*
X92933Y902191D01*
X93007Y902146D01*
X93080Y902099D01*
X93150Y902048D01*
X93218Y901994D01*
X93283Y901937D01*
X93346Y901877D01*
X93406Y901814D01*
X93464Y901749D01*
X93518Y901681D01*
X93569Y901611D01*
X93617Y901539D01*
X93662Y901464D01*
X93703Y901388D01*
X93741Y901310D01*
X93775Y901230D01*
X93806Y901149D01*
X93833Y901067D01*
X93857Y900983D01*
X93876Y900899D01*
X93892Y900813D01*
X93904Y900727D01*
X93912Y900641D01*
X93916Y900554D01*
X93917Y900467D01*
X93913Y900381D01*
X93906Y900294D01*
X93894Y900208D01*
X93879Y900123D01*
X93860Y900038D01*
X93838Y899954D01*
X93811Y899872D01*
X93781Y899790D01*
X93748Y899710D01*
X93710Y899632D01*
X93670Y899555D01*
X93625Y899480D01*
X93578Y899408D01*
X93527Y899337D01*
X93474Y899269D01*
X93417Y899203D01*
X93357Y899140D01*
X93295Y899080D01*
X93230Y899022D01*
X93162Y898968D01*
X93093Y898916D01*
X93020Y898868D01*
X92946Y898823D01*
X92870Y898781D01*
X92792Y898743D01*
X92713Y898709D01*
X92632Y898677D01*
X92549Y898650D01*
X92466Y898626D01*
X92381Y898606D01*
X92296Y898590D01*
X92210Y898578D01*
X92124Y898569D01*
X92037Y898565D01*
X91950Y898564D01*
X91951Y898564D02*
X91651Y898572D01*
X91351Y898587D01*
X91052Y898609D01*
X90753Y898638D01*
X90456Y898674D01*
X90159Y898717D01*
X89863Y898768D01*
X89569Y898825D01*
X89276Y898889D01*
X88984Y898960D01*
X88694Y899038D01*
X88407Y899122D01*
X88121Y899214D01*
X87837Y899312D01*
X100355Y898564D02*
X100355Y912026D01*
X106338Y907539D02*
X100355Y903051D01*
X102972Y904921D02*
X106338Y898564D01*
X119986Y903799D02*
X123726Y902303D01*
X119986Y903800D02*
X119906Y903834D01*
X119828Y903871D01*
X119751Y903912D01*
X119677Y903957D01*
X119604Y904004D01*
X119534Y904055D01*
X119466Y904109D01*
X119401Y904166D01*
X119338Y904226D01*
X119278Y904289D01*
X119220Y904354D01*
X119166Y904422D01*
X119115Y904492D01*
X119067Y904564D01*
X119022Y904639D01*
X118981Y904715D01*
X118943Y904793D01*
X118909Y904873D01*
X118878Y904954D01*
X118851Y905036D01*
X118827Y905120D01*
X118808Y905204D01*
X118792Y905290D01*
X118780Y905376D01*
X118772Y905462D01*
X118768Y905549D01*
X118767Y905636D01*
X118771Y905722D01*
X118778Y905809D01*
X118790Y905895D01*
X118805Y905980D01*
X118824Y906065D01*
X118846Y906149D01*
X118873Y906231D01*
X118903Y906313D01*
X118936Y906393D01*
X118974Y906471D01*
X119014Y906548D01*
X119059Y906623D01*
X119106Y906695D01*
X119157Y906766D01*
X119210Y906834D01*
X119267Y906900D01*
X119327Y906963D01*
X119389Y907023D01*
X119454Y907081D01*
X119522Y907135D01*
X119591Y907187D01*
X119664Y907235D01*
X119738Y907280D01*
X119814Y907322D01*
X119892Y907360D01*
X119971Y907394D01*
X120052Y907426D01*
X120135Y907453D01*
X120218Y907477D01*
X120303Y907497D01*
X120388Y907513D01*
X120474Y907525D01*
X120560Y907534D01*
X120647Y907538D01*
X120734Y907539D01*
X120734Y907538D02*
X120939Y907533D01*
X121142Y907522D01*
X121346Y907507D01*
X121549Y907487D01*
X121752Y907462D01*
X121954Y907432D01*
X122155Y907398D01*
X122356Y907358D01*
X122555Y907314D01*
X122753Y907265D01*
X122950Y907211D01*
X123146Y907153D01*
X123340Y907089D01*
X123533Y907021D01*
X123723Y906949D01*
X123913Y906872D01*
X124100Y906790D01*
X123726Y902303D02*
X123806Y902269D01*
X123884Y902232D01*
X123961Y902191D01*
X124035Y902146D01*
X124108Y902099D01*
X124178Y902048D01*
X124246Y901994D01*
X124311Y901937D01*
X124374Y901877D01*
X124434Y901814D01*
X124492Y901749D01*
X124546Y901681D01*
X124597Y901611D01*
X124645Y901539D01*
X124690Y901464D01*
X124731Y901388D01*
X124769Y901310D01*
X124803Y901230D01*
X124834Y901149D01*
X124861Y901067D01*
X124885Y900983D01*
X124904Y900899D01*
X124920Y900813D01*
X124932Y900727D01*
X124940Y900641D01*
X124944Y900554D01*
X124945Y900467D01*
X124941Y900381D01*
X124934Y900294D01*
X124922Y900208D01*
X124907Y900123D01*
X124888Y900038D01*
X124866Y899954D01*
X124839Y899872D01*
X124809Y899790D01*
X124776Y899710D01*
X124738Y899632D01*
X124698Y899555D01*
X124653Y899480D01*
X124606Y899408D01*
X124555Y899337D01*
X124502Y899269D01*
X124445Y899203D01*
X124385Y899140D01*
X124323Y899080D01*
X124258Y899022D01*
X124190Y898968D01*
X124121Y898916D01*
X124048Y898868D01*
X123974Y898823D01*
X123898Y898781D01*
X123820Y898743D01*
X123741Y898709D01*
X123660Y898677D01*
X123577Y898650D01*
X123494Y898626D01*
X123409Y898606D01*
X123324Y898590D01*
X123238Y898578D01*
X123152Y898569D01*
X123065Y898565D01*
X122978Y898564D01*
X122678Y898572D01*
X122378Y898587D01*
X122079Y898609D01*
X121780Y898638D01*
X121483Y898674D01*
X121186Y898717D01*
X120890Y898768D01*
X120596Y898825D01*
X120303Y898889D01*
X120011Y898960D01*
X119721Y899038D01*
X119434Y899122D01*
X119148Y899214D01*
X118864Y899312D01*
X130728Y901556D02*
X130728Y904547D01*
X130727Y904547D02*
X130729Y904655D01*
X130735Y904763D01*
X130745Y904870D01*
X130758Y904978D01*
X130776Y905084D01*
X130797Y905190D01*
X130822Y905295D01*
X130851Y905399D01*
X130884Y905502D01*
X130920Y905604D01*
X130960Y905704D01*
X131004Y905803D01*
X131051Y905901D01*
X131101Y905996D01*
X131155Y906090D01*
X131213Y906181D01*
X131273Y906271D01*
X131337Y906358D01*
X131404Y906442D01*
X131474Y906525D01*
X131547Y906605D01*
X131623Y906682D01*
X131701Y906756D01*
X131782Y906827D01*
X131866Y906896D01*
X131952Y906961D01*
X132040Y907023D01*
X132130Y907082D01*
X132223Y907138D01*
X132318Y907190D01*
X132414Y907239D01*
X132512Y907285D01*
X132612Y907326D01*
X132713Y907365D01*
X132815Y907399D01*
X132919Y907430D01*
X133023Y907457D01*
X133129Y907480D01*
X133235Y907500D01*
X133342Y907515D01*
X133449Y907527D01*
X133557Y907535D01*
X133665Y907539D01*
X133773Y907539D01*
X133881Y907535D01*
X133989Y907527D01*
X134096Y907515D01*
X134203Y907500D01*
X134309Y907480D01*
X134415Y907457D01*
X134519Y907430D01*
X134623Y907399D01*
X134725Y907365D01*
X134826Y907326D01*
X134926Y907285D01*
X135024Y907239D01*
X135120Y907190D01*
X135215Y907138D01*
X135308Y907082D01*
X135398Y907023D01*
X135486Y906961D01*
X135572Y906896D01*
X135656Y906827D01*
X135737Y906756D01*
X135815Y906682D01*
X135891Y906605D01*
X135964Y906525D01*
X136034Y906442D01*
X136101Y906358D01*
X136165Y906271D01*
X136225Y906181D01*
X136283Y906090D01*
X136337Y905996D01*
X136387Y905901D01*
X136434Y905803D01*
X136478Y905704D01*
X136518Y905604D01*
X136554Y905502D01*
X136587Y905399D01*
X136616Y905295D01*
X136641Y905190D01*
X136662Y905084D01*
X136680Y904978D01*
X136693Y904870D01*
X136703Y904763D01*
X136709Y904655D01*
X136711Y904547D01*
X136711Y901556D01*
X136709Y901448D01*
X136703Y901340D01*
X136693Y901233D01*
X136680Y901125D01*
X136662Y901019D01*
X136641Y900913D01*
X136616Y900808D01*
X136587Y900704D01*
X136554Y900601D01*
X136518Y900499D01*
X136478Y900399D01*
X136434Y900300D01*
X136387Y900202D01*
X136337Y900107D01*
X136283Y900013D01*
X136225Y899922D01*
X136165Y899832D01*
X136101Y899745D01*
X136034Y899661D01*
X135964Y899578D01*
X135891Y899498D01*
X135815Y899421D01*
X135737Y899347D01*
X135656Y899276D01*
X135572Y899207D01*
X135486Y899142D01*
X135398Y899080D01*
X135308Y899021D01*
X135215Y898965D01*
X135120Y898913D01*
X135024Y898864D01*
X134926Y898818D01*
X134826Y898777D01*
X134725Y898738D01*
X134623Y898704D01*
X134519Y898673D01*
X134415Y898646D01*
X134309Y898623D01*
X134203Y898603D01*
X134096Y898588D01*
X133989Y898576D01*
X133881Y898568D01*
X133773Y898564D01*
X133665Y898564D01*
X133557Y898568D01*
X133449Y898576D01*
X133342Y898588D01*
X133235Y898603D01*
X133129Y898623D01*
X133023Y898646D01*
X132919Y898673D01*
X132815Y898704D01*
X132713Y898738D01*
X132612Y898777D01*
X132512Y898818D01*
X132414Y898864D01*
X132318Y898913D01*
X132223Y898965D01*
X132130Y899021D01*
X132040Y899080D01*
X131952Y899142D01*
X131866Y899207D01*
X131782Y899276D01*
X131701Y899347D01*
X131623Y899421D01*
X131547Y899498D01*
X131474Y899578D01*
X131404Y899661D01*
X131337Y899745D01*
X131273Y899832D01*
X131213Y899922D01*
X131155Y900013D01*
X131101Y900107D01*
X131051Y900202D01*
X131004Y900300D01*
X130960Y900399D01*
X130920Y900499D01*
X130884Y900601D01*
X130851Y900704D01*
X130822Y900808D01*
X130797Y900913D01*
X130776Y901019D01*
X130758Y901125D01*
X130745Y901233D01*
X130735Y901340D01*
X130729Y901448D01*
X130727Y901556D01*
X142710Y900808D02*
X142710Y912026D01*
X142710Y900808D02*
X142712Y900715D01*
X142718Y900623D01*
X142727Y900530D01*
X142741Y900439D01*
X142758Y900347D01*
X142779Y900257D01*
X142803Y900168D01*
X142832Y900079D01*
X142864Y899992D01*
X142899Y899907D01*
X142938Y899822D01*
X142980Y899740D01*
X143026Y899659D01*
X143075Y899581D01*
X143128Y899504D01*
X143183Y899430D01*
X143242Y899358D01*
X143303Y899288D01*
X143367Y899221D01*
X143434Y899157D01*
X143504Y899096D01*
X143576Y899037D01*
X143650Y898982D01*
X143727Y898929D01*
X143805Y898880D01*
X143886Y898834D01*
X143968Y898792D01*
X144053Y898753D01*
X144138Y898718D01*
X144225Y898686D01*
X144314Y898657D01*
X144403Y898633D01*
X144493Y898612D01*
X144585Y898595D01*
X144676Y898581D01*
X144769Y898572D01*
X144861Y898566D01*
X144954Y898564D01*
X155789Y898564D02*
X155789Y912026D01*
X155789Y898564D02*
X152049Y898564D01*
X151956Y898566D01*
X151864Y898572D01*
X151771Y898581D01*
X151680Y898595D01*
X151588Y898612D01*
X151498Y898633D01*
X151409Y898657D01*
X151320Y898686D01*
X151233Y898718D01*
X151148Y898753D01*
X151063Y898792D01*
X150981Y898834D01*
X150900Y898880D01*
X150822Y898929D01*
X150745Y898982D01*
X150671Y899037D01*
X150599Y899096D01*
X150529Y899157D01*
X150462Y899221D01*
X150398Y899288D01*
X150337Y899358D01*
X150278Y899430D01*
X150223Y899504D01*
X150170Y899581D01*
X150121Y899659D01*
X150075Y899740D01*
X150033Y899822D01*
X149994Y899907D01*
X149959Y899992D01*
X149927Y900079D01*
X149898Y900168D01*
X149874Y900257D01*
X149853Y900347D01*
X149836Y900439D01*
X149822Y900530D01*
X149813Y900623D01*
X149807Y900715D01*
X149805Y900808D01*
X149806Y900808D02*
X149806Y905295D01*
X149805Y905295D02*
X149807Y905388D01*
X149813Y905480D01*
X149822Y905573D01*
X149836Y905664D01*
X149853Y905756D01*
X149874Y905846D01*
X149898Y905935D01*
X149927Y906024D01*
X149959Y906111D01*
X149994Y906196D01*
X150033Y906281D01*
X150075Y906363D01*
X150121Y906444D01*
X150170Y906522D01*
X150223Y906599D01*
X150278Y906673D01*
X150337Y906745D01*
X150398Y906815D01*
X150462Y906882D01*
X150529Y906946D01*
X150599Y907007D01*
X150671Y907066D01*
X150745Y907121D01*
X150822Y907174D01*
X150900Y907223D01*
X150981Y907269D01*
X151063Y907311D01*
X151148Y907350D01*
X151233Y907385D01*
X151320Y907417D01*
X151409Y907446D01*
X151498Y907470D01*
X151589Y907491D01*
X151680Y907508D01*
X151771Y907522D01*
X151864Y907531D01*
X151956Y907537D01*
X152049Y907539D01*
X155789Y907539D01*
X164455Y898564D02*
X168195Y898564D01*
X164455Y898564D02*
X164362Y898566D01*
X164270Y898572D01*
X164177Y898581D01*
X164086Y898595D01*
X163994Y898612D01*
X163904Y898633D01*
X163815Y898657D01*
X163726Y898686D01*
X163639Y898718D01*
X163554Y898753D01*
X163469Y898792D01*
X163387Y898834D01*
X163306Y898880D01*
X163228Y898929D01*
X163151Y898982D01*
X163077Y899037D01*
X163005Y899096D01*
X162935Y899157D01*
X162868Y899221D01*
X162804Y899288D01*
X162743Y899358D01*
X162684Y899430D01*
X162629Y899504D01*
X162576Y899581D01*
X162527Y899659D01*
X162481Y899740D01*
X162439Y899822D01*
X162400Y899907D01*
X162365Y899992D01*
X162333Y900079D01*
X162304Y900168D01*
X162280Y900257D01*
X162259Y900347D01*
X162242Y900439D01*
X162228Y900530D01*
X162219Y900623D01*
X162213Y900715D01*
X162211Y900808D01*
X162212Y900808D02*
X162212Y904547D01*
X162211Y904547D02*
X162213Y904655D01*
X162219Y904763D01*
X162229Y904870D01*
X162242Y904978D01*
X162260Y905084D01*
X162281Y905190D01*
X162306Y905295D01*
X162335Y905399D01*
X162368Y905502D01*
X162404Y905604D01*
X162444Y905704D01*
X162488Y905803D01*
X162535Y905901D01*
X162585Y905996D01*
X162639Y906090D01*
X162697Y906181D01*
X162757Y906271D01*
X162821Y906358D01*
X162888Y906442D01*
X162958Y906525D01*
X163031Y906605D01*
X163107Y906682D01*
X163185Y906756D01*
X163266Y906827D01*
X163350Y906896D01*
X163436Y906961D01*
X163524Y907023D01*
X163614Y907082D01*
X163707Y907138D01*
X163802Y907190D01*
X163898Y907239D01*
X163996Y907285D01*
X164096Y907326D01*
X164197Y907365D01*
X164299Y907399D01*
X164403Y907430D01*
X164507Y907457D01*
X164613Y907480D01*
X164719Y907500D01*
X164826Y907515D01*
X164933Y907527D01*
X165041Y907535D01*
X165149Y907539D01*
X165257Y907539D01*
X165365Y907535D01*
X165473Y907527D01*
X165580Y907515D01*
X165687Y907500D01*
X165793Y907480D01*
X165899Y907457D01*
X166003Y907430D01*
X166107Y907399D01*
X166209Y907365D01*
X166310Y907326D01*
X166410Y907285D01*
X166508Y907239D01*
X166604Y907190D01*
X166699Y907138D01*
X166792Y907082D01*
X166882Y907023D01*
X166970Y906961D01*
X167056Y906896D01*
X167140Y906827D01*
X167221Y906756D01*
X167299Y906682D01*
X167375Y906605D01*
X167448Y906525D01*
X167518Y906442D01*
X167585Y906358D01*
X167649Y906271D01*
X167709Y906181D01*
X167767Y906090D01*
X167821Y905996D01*
X167871Y905901D01*
X167918Y905803D01*
X167962Y905704D01*
X168002Y905604D01*
X168038Y905502D01*
X168071Y905399D01*
X168100Y905295D01*
X168125Y905190D01*
X168146Y905084D01*
X168164Y904978D01*
X168177Y904870D01*
X168187Y904763D01*
X168193Y904655D01*
X168195Y904547D01*
X168195Y903051D01*
X162212Y903051D01*
X174628Y898564D02*
X174628Y907539D01*
X179116Y907539D01*
X179116Y906043D01*
X192079Y903799D02*
X195819Y902303D01*
X192079Y903800D02*
X191999Y903834D01*
X191921Y903871D01*
X191844Y903912D01*
X191770Y903957D01*
X191697Y904004D01*
X191627Y904055D01*
X191559Y904109D01*
X191494Y904166D01*
X191431Y904226D01*
X191371Y904289D01*
X191313Y904354D01*
X191259Y904422D01*
X191208Y904492D01*
X191160Y904564D01*
X191115Y904639D01*
X191074Y904715D01*
X191036Y904793D01*
X191002Y904873D01*
X190971Y904954D01*
X190944Y905036D01*
X190920Y905120D01*
X190901Y905204D01*
X190885Y905290D01*
X190873Y905376D01*
X190865Y905462D01*
X190861Y905549D01*
X190860Y905636D01*
X190864Y905722D01*
X190871Y905809D01*
X190883Y905895D01*
X190898Y905980D01*
X190917Y906065D01*
X190939Y906149D01*
X190966Y906231D01*
X190996Y906313D01*
X191029Y906393D01*
X191067Y906471D01*
X191107Y906548D01*
X191152Y906623D01*
X191199Y906695D01*
X191250Y906766D01*
X191303Y906834D01*
X191360Y906900D01*
X191420Y906963D01*
X191482Y907023D01*
X191547Y907081D01*
X191615Y907135D01*
X191684Y907187D01*
X191757Y907235D01*
X191831Y907280D01*
X191907Y907322D01*
X191985Y907360D01*
X192064Y907394D01*
X192145Y907426D01*
X192228Y907453D01*
X192311Y907477D01*
X192396Y907497D01*
X192481Y907513D01*
X192567Y907525D01*
X192653Y907534D01*
X192740Y907538D01*
X192827Y907539D01*
X192827Y907538D02*
X193032Y907533D01*
X193235Y907522D01*
X193439Y907507D01*
X193642Y907487D01*
X193845Y907462D01*
X194047Y907432D01*
X194248Y907398D01*
X194449Y907358D01*
X194648Y907314D01*
X194846Y907265D01*
X195043Y907211D01*
X195239Y907153D01*
X195433Y907089D01*
X195626Y907021D01*
X195816Y906949D01*
X196006Y906872D01*
X196193Y906790D01*
X195818Y902303D02*
X195898Y902269D01*
X195976Y902232D01*
X196053Y902191D01*
X196127Y902146D01*
X196200Y902099D01*
X196270Y902048D01*
X196338Y901994D01*
X196403Y901937D01*
X196466Y901877D01*
X196526Y901814D01*
X196584Y901749D01*
X196638Y901681D01*
X196689Y901611D01*
X196737Y901539D01*
X196782Y901464D01*
X196823Y901388D01*
X196861Y901310D01*
X196895Y901230D01*
X196926Y901149D01*
X196953Y901067D01*
X196977Y900983D01*
X196996Y900899D01*
X197012Y900813D01*
X197024Y900727D01*
X197032Y900641D01*
X197036Y900554D01*
X197037Y900467D01*
X197033Y900381D01*
X197026Y900294D01*
X197014Y900208D01*
X196999Y900123D01*
X196980Y900038D01*
X196958Y899954D01*
X196931Y899872D01*
X196901Y899790D01*
X196868Y899710D01*
X196830Y899632D01*
X196790Y899555D01*
X196745Y899480D01*
X196698Y899408D01*
X196647Y899337D01*
X196594Y899269D01*
X196537Y899203D01*
X196477Y899140D01*
X196415Y899080D01*
X196350Y899022D01*
X196282Y898968D01*
X196213Y898916D01*
X196140Y898868D01*
X196066Y898823D01*
X195990Y898781D01*
X195912Y898743D01*
X195833Y898709D01*
X195752Y898677D01*
X195669Y898650D01*
X195586Y898626D01*
X195501Y898606D01*
X195416Y898590D01*
X195330Y898578D01*
X195244Y898569D01*
X195157Y898565D01*
X195070Y898564D01*
X195071Y898564D02*
X194771Y898572D01*
X194471Y898587D01*
X194172Y898609D01*
X193873Y898638D01*
X193576Y898674D01*
X193279Y898717D01*
X192983Y898768D01*
X192689Y898825D01*
X192396Y898889D01*
X192104Y898960D01*
X191814Y899038D01*
X191527Y899122D01*
X191241Y899214D01*
X190957Y899312D01*
X202618Y898564D02*
X202618Y907539D01*
X202244Y911278D02*
X202244Y912026D01*
X202992Y912026D01*
X202992Y911278D01*
X202244Y911278D01*
X214193Y912026D02*
X214193Y898564D01*
X210454Y898564D01*
X210361Y898566D01*
X210269Y898572D01*
X210176Y898581D01*
X210085Y898595D01*
X209993Y898612D01*
X209903Y898633D01*
X209814Y898657D01*
X209725Y898686D01*
X209638Y898718D01*
X209553Y898753D01*
X209468Y898792D01*
X209386Y898834D01*
X209305Y898880D01*
X209227Y898929D01*
X209150Y898982D01*
X209076Y899037D01*
X209004Y899096D01*
X208934Y899157D01*
X208867Y899221D01*
X208803Y899288D01*
X208742Y899358D01*
X208683Y899430D01*
X208628Y899504D01*
X208575Y899581D01*
X208526Y899659D01*
X208480Y899740D01*
X208438Y899822D01*
X208399Y899907D01*
X208364Y899992D01*
X208332Y900079D01*
X208303Y900168D01*
X208279Y900257D01*
X208258Y900347D01*
X208241Y900439D01*
X208227Y900530D01*
X208218Y900623D01*
X208212Y900715D01*
X208210Y900808D01*
X208210Y905295D01*
X208212Y905388D01*
X208218Y905480D01*
X208227Y905573D01*
X208241Y905664D01*
X208258Y905756D01*
X208279Y905846D01*
X208303Y905935D01*
X208332Y906024D01*
X208364Y906111D01*
X208399Y906196D01*
X208438Y906281D01*
X208480Y906363D01*
X208526Y906444D01*
X208575Y906522D01*
X208628Y906599D01*
X208683Y906673D01*
X208742Y906745D01*
X208803Y906815D01*
X208867Y906882D01*
X208934Y906946D01*
X209004Y907007D01*
X209076Y907066D01*
X209150Y907121D01*
X209227Y907174D01*
X209305Y907223D01*
X209386Y907269D01*
X209468Y907311D01*
X209553Y907350D01*
X209638Y907385D01*
X209725Y907417D01*
X209814Y907446D01*
X209903Y907470D01*
X209994Y907491D01*
X210085Y907508D01*
X210176Y907522D01*
X210269Y907531D01*
X210361Y907537D01*
X210454Y907539D01*
X214193Y907539D01*
X222859Y898564D02*
X226599Y898564D01*
X222859Y898564D02*
X222766Y898566D01*
X222674Y898572D01*
X222581Y898581D01*
X222490Y898595D01*
X222398Y898612D01*
X222308Y898633D01*
X222219Y898657D01*
X222130Y898686D01*
X222043Y898718D01*
X221958Y898753D01*
X221873Y898792D01*
X221791Y898834D01*
X221710Y898880D01*
X221632Y898929D01*
X221555Y898982D01*
X221481Y899037D01*
X221409Y899096D01*
X221339Y899157D01*
X221272Y899221D01*
X221208Y899288D01*
X221147Y899358D01*
X221088Y899430D01*
X221033Y899504D01*
X220980Y899581D01*
X220931Y899659D01*
X220885Y899740D01*
X220843Y899822D01*
X220804Y899907D01*
X220769Y899992D01*
X220737Y900079D01*
X220708Y900168D01*
X220684Y900257D01*
X220663Y900347D01*
X220646Y900439D01*
X220632Y900530D01*
X220623Y900623D01*
X220617Y900715D01*
X220615Y900808D01*
X220616Y900808D02*
X220616Y904547D01*
X220615Y904547D02*
X220617Y904655D01*
X220623Y904763D01*
X220633Y904870D01*
X220646Y904978D01*
X220664Y905084D01*
X220685Y905190D01*
X220710Y905295D01*
X220739Y905399D01*
X220772Y905502D01*
X220808Y905604D01*
X220848Y905704D01*
X220892Y905803D01*
X220939Y905901D01*
X220989Y905996D01*
X221043Y906090D01*
X221101Y906181D01*
X221161Y906271D01*
X221225Y906358D01*
X221292Y906442D01*
X221362Y906525D01*
X221435Y906605D01*
X221511Y906682D01*
X221589Y906756D01*
X221670Y906827D01*
X221754Y906896D01*
X221840Y906961D01*
X221928Y907023D01*
X222018Y907082D01*
X222111Y907138D01*
X222206Y907190D01*
X222302Y907239D01*
X222400Y907285D01*
X222500Y907326D01*
X222601Y907365D01*
X222703Y907399D01*
X222807Y907430D01*
X222911Y907457D01*
X223017Y907480D01*
X223123Y907500D01*
X223230Y907515D01*
X223337Y907527D01*
X223445Y907535D01*
X223553Y907539D01*
X223661Y907539D01*
X223769Y907535D01*
X223877Y907527D01*
X223984Y907515D01*
X224091Y907500D01*
X224197Y907480D01*
X224303Y907457D01*
X224407Y907430D01*
X224511Y907399D01*
X224613Y907365D01*
X224714Y907326D01*
X224814Y907285D01*
X224912Y907239D01*
X225008Y907190D01*
X225103Y907138D01*
X225196Y907082D01*
X225286Y907023D01*
X225374Y906961D01*
X225460Y906896D01*
X225544Y906827D01*
X225625Y906756D01*
X225703Y906682D01*
X225779Y906605D01*
X225852Y906525D01*
X225922Y906442D01*
X225989Y906358D01*
X226053Y906271D01*
X226113Y906181D01*
X226171Y906090D01*
X226225Y905996D01*
X226275Y905901D01*
X226322Y905803D01*
X226366Y905704D01*
X226406Y905604D01*
X226442Y905502D01*
X226475Y905399D01*
X226504Y905295D01*
X226529Y905190D01*
X226550Y905084D01*
X226568Y904978D01*
X226581Y904870D01*
X226591Y904763D01*
X226597Y904655D01*
X226599Y904547D01*
X226599Y903051D01*
X220616Y903051D01*
D12*
X546513Y916725D02*
X546513Y884975D01*
X546513Y916725D02*
X546513Y948475D01*
X546513Y980225D01*
X546513Y1011975D01*
X546513Y1043725D01*
X229013Y1043725D01*
X413Y1043725D01*
X413Y980225D01*
D20*
X242729Y1019341D02*
X242729Y1034073D01*
X246821Y1034073D01*
X246947Y1034071D01*
X247073Y1034065D01*
X247199Y1034056D01*
X247324Y1034042D01*
X247449Y1034025D01*
X247573Y1034003D01*
X247696Y1033978D01*
X247819Y1033949D01*
X247941Y1033917D01*
X248062Y1033880D01*
X248181Y1033840D01*
X248299Y1033797D01*
X248416Y1033749D01*
X248531Y1033698D01*
X248645Y1033644D01*
X248757Y1033586D01*
X248867Y1033525D01*
X248975Y1033460D01*
X249081Y1033392D01*
X249185Y1033321D01*
X249287Y1033246D01*
X249386Y1033169D01*
X249483Y1033088D01*
X249578Y1033005D01*
X249670Y1032919D01*
X249759Y1032830D01*
X249845Y1032738D01*
X249928Y1032643D01*
X250009Y1032546D01*
X250086Y1032447D01*
X250161Y1032345D01*
X250232Y1032241D01*
X250300Y1032135D01*
X250365Y1032027D01*
X250426Y1031917D01*
X250484Y1031805D01*
X250538Y1031691D01*
X250589Y1031576D01*
X250637Y1031459D01*
X250680Y1031341D01*
X250720Y1031221D01*
X250757Y1031101D01*
X250789Y1030979D01*
X250818Y1030856D01*
X250843Y1030733D01*
X250865Y1030609D01*
X250882Y1030484D01*
X250896Y1030359D01*
X250905Y1030233D01*
X250911Y1030107D01*
X250913Y1029981D01*
X250913Y1023433D01*
X250911Y1023307D01*
X250905Y1023181D01*
X250896Y1023055D01*
X250882Y1022930D01*
X250865Y1022805D01*
X250843Y1022681D01*
X250818Y1022558D01*
X250789Y1022435D01*
X250757Y1022313D01*
X250720Y1022193D01*
X250680Y1022073D01*
X250637Y1021955D01*
X250589Y1021838D01*
X250538Y1021723D01*
X250484Y1021609D01*
X250426Y1021497D01*
X250365Y1021387D01*
X250300Y1021279D01*
X250232Y1021173D01*
X250161Y1021069D01*
X250086Y1020967D01*
X250009Y1020868D01*
X249928Y1020771D01*
X249845Y1020676D01*
X249759Y1020584D01*
X249670Y1020495D01*
X249578Y1020409D01*
X249483Y1020326D01*
X249386Y1020245D01*
X249287Y1020168D01*
X249185Y1020093D01*
X249081Y1020022D01*
X248975Y1019954D01*
X248867Y1019889D01*
X248757Y1019828D01*
X248645Y1019770D01*
X248531Y1019716D01*
X248416Y1019665D01*
X248299Y1019617D01*
X248181Y1019574D01*
X248062Y1019534D01*
X247941Y1019497D01*
X247819Y1019465D01*
X247696Y1019436D01*
X247573Y1019411D01*
X247449Y1019389D01*
X247324Y1019372D01*
X247199Y1019358D01*
X247073Y1019349D01*
X246947Y1019343D01*
X246821Y1019341D01*
X242729Y1019341D01*
X257917Y1022615D02*
X257917Y1025889D01*
X257919Y1026002D01*
X257925Y1026115D01*
X257935Y1026227D01*
X257948Y1026340D01*
X257966Y1026451D01*
X257987Y1026562D01*
X258012Y1026673D01*
X258041Y1026782D01*
X258074Y1026890D01*
X258110Y1026997D01*
X258150Y1027103D01*
X258194Y1027207D01*
X258241Y1027310D01*
X258292Y1027411D01*
X258346Y1027510D01*
X258404Y1027607D01*
X258465Y1027702D01*
X258529Y1027795D01*
X258596Y1027886D01*
X258667Y1027974D01*
X258740Y1028060D01*
X258817Y1028143D01*
X258896Y1028224D01*
X258978Y1028302D01*
X259063Y1028377D01*
X259150Y1028449D01*
X259239Y1028518D01*
X259331Y1028583D01*
X259425Y1028646D01*
X259521Y1028705D01*
X259620Y1028761D01*
X259720Y1028814D01*
X259822Y1028863D01*
X259925Y1028908D01*
X260030Y1028950D01*
X260136Y1028988D01*
X260244Y1029023D01*
X260353Y1029054D01*
X260462Y1029081D01*
X260573Y1029104D01*
X260684Y1029124D01*
X260796Y1029139D01*
X260909Y1029151D01*
X261022Y1029159D01*
X261134Y1029163D01*
X261248Y1029163D01*
X261360Y1029159D01*
X261473Y1029151D01*
X261586Y1029139D01*
X261698Y1029124D01*
X261809Y1029104D01*
X261920Y1029081D01*
X262029Y1029054D01*
X262138Y1029023D01*
X262246Y1028988D01*
X262352Y1028950D01*
X262457Y1028908D01*
X262560Y1028863D01*
X262662Y1028814D01*
X262762Y1028761D01*
X262861Y1028705D01*
X262957Y1028646D01*
X263051Y1028583D01*
X263143Y1028518D01*
X263232Y1028449D01*
X263319Y1028377D01*
X263404Y1028302D01*
X263486Y1028224D01*
X263565Y1028143D01*
X263642Y1028060D01*
X263715Y1027974D01*
X263786Y1027886D01*
X263853Y1027795D01*
X263917Y1027702D01*
X263978Y1027607D01*
X264036Y1027510D01*
X264090Y1027411D01*
X264141Y1027310D01*
X264188Y1027207D01*
X264232Y1027103D01*
X264272Y1026997D01*
X264308Y1026890D01*
X264341Y1026782D01*
X264370Y1026673D01*
X264395Y1026562D01*
X264416Y1026451D01*
X264434Y1026340D01*
X264447Y1026227D01*
X264457Y1026115D01*
X264463Y1026002D01*
X264465Y1025889D01*
X264465Y1022615D01*
X264463Y1022502D01*
X264457Y1022389D01*
X264447Y1022277D01*
X264434Y1022164D01*
X264416Y1022053D01*
X264395Y1021942D01*
X264370Y1021831D01*
X264341Y1021722D01*
X264308Y1021614D01*
X264272Y1021507D01*
X264232Y1021401D01*
X264188Y1021297D01*
X264141Y1021194D01*
X264090Y1021093D01*
X264036Y1020994D01*
X263978Y1020897D01*
X263917Y1020802D01*
X263853Y1020709D01*
X263786Y1020618D01*
X263715Y1020530D01*
X263642Y1020444D01*
X263565Y1020361D01*
X263486Y1020280D01*
X263404Y1020202D01*
X263319Y1020127D01*
X263232Y1020055D01*
X263143Y1019986D01*
X263051Y1019921D01*
X262957Y1019858D01*
X262861Y1019799D01*
X262762Y1019743D01*
X262662Y1019690D01*
X262560Y1019641D01*
X262457Y1019596D01*
X262352Y1019554D01*
X262246Y1019516D01*
X262138Y1019481D01*
X262029Y1019450D01*
X261920Y1019423D01*
X261809Y1019400D01*
X261698Y1019380D01*
X261586Y1019365D01*
X261473Y1019353D01*
X261360Y1019345D01*
X261248Y1019341D01*
X261134Y1019341D01*
X261022Y1019345D01*
X260909Y1019353D01*
X260796Y1019365D01*
X260684Y1019380D01*
X260573Y1019400D01*
X260462Y1019423D01*
X260353Y1019450D01*
X260244Y1019481D01*
X260136Y1019516D01*
X260030Y1019554D01*
X259925Y1019596D01*
X259822Y1019641D01*
X259720Y1019690D01*
X259620Y1019743D01*
X259521Y1019799D01*
X259425Y1019858D01*
X259331Y1019921D01*
X259239Y1019986D01*
X259150Y1020055D01*
X259063Y1020127D01*
X258978Y1020202D01*
X258896Y1020280D01*
X258817Y1020361D01*
X258740Y1020444D01*
X258667Y1020530D01*
X258596Y1020618D01*
X258529Y1020709D01*
X258465Y1020802D01*
X258404Y1020897D01*
X258346Y1020994D01*
X258292Y1021093D01*
X258241Y1021194D01*
X258194Y1021297D01*
X258150Y1021401D01*
X258110Y1021507D01*
X258074Y1021614D01*
X258041Y1021722D01*
X258012Y1021831D01*
X257987Y1021942D01*
X257966Y1022053D01*
X257948Y1022164D01*
X257935Y1022277D01*
X257925Y1022389D01*
X257919Y1022502D01*
X257917Y1022615D01*
X273277Y1019341D02*
X276551Y1019341D01*
X273277Y1019341D02*
X273181Y1019343D01*
X273084Y1019349D01*
X272988Y1019358D01*
X272893Y1019371D01*
X272798Y1019388D01*
X272704Y1019409D01*
X272611Y1019433D01*
X272518Y1019461D01*
X272427Y1019493D01*
X272338Y1019528D01*
X272249Y1019567D01*
X272162Y1019609D01*
X272077Y1019654D01*
X271994Y1019703D01*
X271913Y1019755D01*
X271834Y1019810D01*
X271757Y1019868D01*
X271683Y1019929D01*
X271611Y1019993D01*
X271541Y1020060D01*
X271474Y1020130D01*
X271410Y1020202D01*
X271349Y1020276D01*
X271291Y1020353D01*
X271236Y1020432D01*
X271184Y1020513D01*
X271135Y1020596D01*
X271090Y1020681D01*
X271048Y1020768D01*
X271009Y1020857D01*
X270974Y1020946D01*
X270942Y1021037D01*
X270914Y1021130D01*
X270890Y1021223D01*
X270869Y1021317D01*
X270852Y1021412D01*
X270839Y1021507D01*
X270830Y1021603D01*
X270824Y1021700D01*
X270822Y1021796D01*
X270822Y1026707D01*
X270824Y1026803D01*
X270830Y1026900D01*
X270839Y1026996D01*
X270852Y1027091D01*
X270869Y1027186D01*
X270890Y1027280D01*
X270914Y1027373D01*
X270942Y1027466D01*
X270974Y1027557D01*
X271009Y1027646D01*
X271048Y1027735D01*
X271090Y1027822D01*
X271135Y1027907D01*
X271184Y1027990D01*
X271236Y1028071D01*
X271291Y1028150D01*
X271349Y1028227D01*
X271410Y1028301D01*
X271474Y1028373D01*
X271541Y1028443D01*
X271611Y1028510D01*
X271683Y1028574D01*
X271757Y1028635D01*
X271834Y1028693D01*
X271913Y1028748D01*
X271994Y1028800D01*
X272077Y1028849D01*
X272162Y1028894D01*
X272249Y1028936D01*
X272338Y1028975D01*
X272427Y1029010D01*
X272518Y1029042D01*
X272611Y1029070D01*
X272704Y1029094D01*
X272798Y1029115D01*
X272893Y1029132D01*
X272988Y1029145D01*
X273084Y1029154D01*
X273181Y1029160D01*
X273277Y1029162D01*
X276551Y1029162D01*
X281594Y1020159D02*
X281594Y1019341D01*
X281594Y1020159D02*
X282412Y1020159D01*
X282412Y1019341D01*
X281594Y1019341D01*
X288489Y1025070D02*
X298311Y1025070D01*
X305660Y1019341D02*
X305660Y1034073D01*
X313845Y1019341D01*
X313845Y1034073D01*
X320849Y1025889D02*
X320849Y1022615D01*
X320849Y1025889D02*
X320851Y1026002D01*
X320857Y1026115D01*
X320867Y1026227D01*
X320880Y1026340D01*
X320898Y1026451D01*
X320919Y1026562D01*
X320944Y1026673D01*
X320973Y1026782D01*
X321006Y1026890D01*
X321042Y1026997D01*
X321082Y1027103D01*
X321126Y1027207D01*
X321173Y1027310D01*
X321224Y1027411D01*
X321278Y1027510D01*
X321336Y1027607D01*
X321397Y1027702D01*
X321461Y1027795D01*
X321528Y1027886D01*
X321599Y1027974D01*
X321672Y1028060D01*
X321749Y1028143D01*
X321828Y1028224D01*
X321910Y1028302D01*
X321995Y1028377D01*
X322082Y1028449D01*
X322171Y1028518D01*
X322263Y1028583D01*
X322357Y1028646D01*
X322453Y1028705D01*
X322552Y1028761D01*
X322652Y1028814D01*
X322754Y1028863D01*
X322857Y1028908D01*
X322962Y1028950D01*
X323068Y1028988D01*
X323176Y1029023D01*
X323285Y1029054D01*
X323394Y1029081D01*
X323505Y1029104D01*
X323616Y1029124D01*
X323728Y1029139D01*
X323841Y1029151D01*
X323954Y1029159D01*
X324066Y1029163D01*
X324180Y1029163D01*
X324292Y1029159D01*
X324405Y1029151D01*
X324518Y1029139D01*
X324630Y1029124D01*
X324741Y1029104D01*
X324852Y1029081D01*
X324961Y1029054D01*
X325070Y1029023D01*
X325178Y1028988D01*
X325284Y1028950D01*
X325389Y1028908D01*
X325492Y1028863D01*
X325594Y1028814D01*
X325694Y1028761D01*
X325793Y1028705D01*
X325889Y1028646D01*
X325983Y1028583D01*
X326075Y1028518D01*
X326164Y1028449D01*
X326251Y1028377D01*
X326336Y1028302D01*
X326418Y1028224D01*
X326497Y1028143D01*
X326574Y1028060D01*
X326647Y1027974D01*
X326718Y1027886D01*
X326785Y1027795D01*
X326849Y1027702D01*
X326910Y1027607D01*
X326968Y1027510D01*
X327022Y1027411D01*
X327073Y1027310D01*
X327120Y1027207D01*
X327164Y1027103D01*
X327204Y1026997D01*
X327240Y1026890D01*
X327273Y1026782D01*
X327302Y1026673D01*
X327327Y1026562D01*
X327348Y1026451D01*
X327366Y1026340D01*
X327379Y1026227D01*
X327389Y1026115D01*
X327395Y1026002D01*
X327397Y1025889D01*
X327396Y1025889D02*
X327396Y1022615D01*
X327397Y1022615D02*
X327395Y1022502D01*
X327389Y1022389D01*
X327379Y1022277D01*
X327366Y1022164D01*
X327348Y1022053D01*
X327327Y1021942D01*
X327302Y1021831D01*
X327273Y1021722D01*
X327240Y1021614D01*
X327204Y1021507D01*
X327164Y1021401D01*
X327120Y1021297D01*
X327073Y1021194D01*
X327022Y1021093D01*
X326968Y1020994D01*
X326910Y1020897D01*
X326849Y1020802D01*
X326785Y1020709D01*
X326718Y1020618D01*
X326647Y1020530D01*
X326574Y1020444D01*
X326497Y1020361D01*
X326418Y1020280D01*
X326336Y1020202D01*
X326251Y1020127D01*
X326164Y1020055D01*
X326075Y1019986D01*
X325983Y1019921D01*
X325889Y1019858D01*
X325793Y1019799D01*
X325694Y1019743D01*
X325594Y1019690D01*
X325492Y1019641D01*
X325389Y1019596D01*
X325284Y1019554D01*
X325178Y1019516D01*
X325070Y1019481D01*
X324961Y1019450D01*
X324852Y1019423D01*
X324741Y1019400D01*
X324630Y1019380D01*
X324518Y1019365D01*
X324405Y1019353D01*
X324292Y1019345D01*
X324180Y1019341D01*
X324066Y1019341D01*
X323954Y1019345D01*
X323841Y1019353D01*
X323728Y1019365D01*
X323616Y1019380D01*
X323505Y1019400D01*
X323394Y1019423D01*
X323285Y1019450D01*
X323176Y1019481D01*
X323068Y1019516D01*
X322962Y1019554D01*
X322857Y1019596D01*
X322754Y1019641D01*
X322652Y1019690D01*
X322552Y1019743D01*
X322453Y1019799D01*
X322357Y1019858D01*
X322263Y1019921D01*
X322171Y1019986D01*
X322082Y1020055D01*
X321995Y1020127D01*
X321910Y1020202D01*
X321828Y1020280D01*
X321749Y1020361D01*
X321672Y1020444D01*
X321599Y1020530D01*
X321528Y1020618D01*
X321461Y1020709D01*
X321397Y1020802D01*
X321336Y1020897D01*
X321278Y1020994D01*
X321224Y1021093D01*
X321173Y1021194D01*
X321126Y1021297D01*
X321082Y1021401D01*
X321042Y1021507D01*
X321006Y1021614D01*
X320973Y1021722D01*
X320944Y1021831D01*
X320919Y1021942D01*
X320898Y1022053D01*
X320880Y1022164D01*
X320867Y1022277D01*
X320857Y1022389D01*
X320851Y1022502D01*
X320849Y1022615D01*
X333128Y1020159D02*
X333128Y1019341D01*
X333128Y1020159D02*
X333947Y1020159D01*
X333947Y1019341D01*
X333128Y1019341D01*
X339570Y1020569D02*
X339570Y1021387D01*
X340389Y1021387D01*
X340389Y1020569D01*
X339570Y1020569D01*
X339570Y1027116D02*
X339570Y1027935D01*
X340389Y1027935D01*
X340389Y1027116D01*
X339570Y1027116D01*
D12*
X413Y980225D02*
X413Y948475D01*
X413Y916725D01*
X413Y884975D01*
X546513Y884975D01*
D20*
X382429Y924091D02*
X382429Y938823D01*
X386521Y938823D01*
X386648Y938821D01*
X386775Y938815D01*
X386902Y938805D01*
X387029Y938791D01*
X387155Y938774D01*
X387280Y938752D01*
X387405Y938726D01*
X387529Y938697D01*
X387652Y938664D01*
X387773Y938627D01*
X387894Y938586D01*
X388013Y938541D01*
X388131Y938493D01*
X388247Y938441D01*
X388362Y938386D01*
X388474Y938327D01*
X388585Y938264D01*
X388694Y938198D01*
X388801Y938129D01*
X388906Y938056D01*
X389008Y937981D01*
X389108Y937902D01*
X389205Y937820D01*
X389300Y937735D01*
X389392Y937647D01*
X389481Y937556D01*
X389568Y937463D01*
X389651Y937367D01*
X389732Y937268D01*
X389809Y937167D01*
X389883Y937064D01*
X389954Y936958D01*
X390022Y936850D01*
X390086Y936740D01*
X390147Y936628D01*
X390204Y936515D01*
X390258Y936399D01*
X390308Y936282D01*
X390354Y936164D01*
X390397Y936044D01*
X390436Y935923D01*
X390471Y935800D01*
X390502Y935677D01*
X390530Y935553D01*
X390553Y935428D01*
X390573Y935302D01*
X390589Y935176D01*
X390601Y935049D01*
X390609Y934922D01*
X390613Y934795D01*
X390613Y934667D01*
X390609Y934540D01*
X390601Y934413D01*
X390589Y934286D01*
X390573Y934160D01*
X390553Y934034D01*
X390530Y933909D01*
X390502Y933785D01*
X390471Y933662D01*
X390436Y933539D01*
X390397Y933418D01*
X390354Y933298D01*
X390308Y933180D01*
X390258Y933063D01*
X390204Y932947D01*
X390147Y932834D01*
X390086Y932722D01*
X390022Y932612D01*
X389954Y932504D01*
X389883Y932398D01*
X389809Y932295D01*
X389732Y932194D01*
X389651Y932095D01*
X389568Y931999D01*
X389481Y931906D01*
X389392Y931815D01*
X389300Y931727D01*
X389205Y931642D01*
X389108Y931560D01*
X389008Y931481D01*
X388906Y931406D01*
X388801Y931333D01*
X388694Y931264D01*
X388585Y931198D01*
X388474Y931135D01*
X388362Y931076D01*
X388247Y931021D01*
X388131Y930969D01*
X388013Y930921D01*
X387894Y930876D01*
X387773Y930835D01*
X387652Y930798D01*
X387529Y930765D01*
X387405Y930736D01*
X387280Y930710D01*
X387155Y930688D01*
X387029Y930671D01*
X386902Y930657D01*
X386775Y930647D01*
X386648Y930641D01*
X386521Y930639D01*
X382429Y930639D01*
X387339Y930639D02*
X390613Y924091D01*
X399464Y924091D02*
X403556Y924091D01*
X399464Y924091D02*
X399368Y924093D01*
X399271Y924099D01*
X399175Y924108D01*
X399080Y924121D01*
X398985Y924138D01*
X398891Y924159D01*
X398798Y924183D01*
X398705Y924211D01*
X398614Y924243D01*
X398525Y924278D01*
X398436Y924317D01*
X398349Y924359D01*
X398264Y924404D01*
X398181Y924453D01*
X398100Y924505D01*
X398021Y924560D01*
X397944Y924618D01*
X397870Y924679D01*
X397798Y924743D01*
X397728Y924810D01*
X397661Y924880D01*
X397597Y924952D01*
X397536Y925026D01*
X397478Y925103D01*
X397423Y925182D01*
X397371Y925263D01*
X397322Y925346D01*
X397277Y925431D01*
X397235Y925518D01*
X397196Y925607D01*
X397161Y925696D01*
X397129Y925787D01*
X397101Y925880D01*
X397077Y925973D01*
X397056Y926067D01*
X397039Y926162D01*
X397026Y926257D01*
X397017Y926353D01*
X397011Y926450D01*
X397009Y926546D01*
X397008Y926546D02*
X397008Y930639D01*
X397010Y930752D01*
X397016Y930865D01*
X397026Y930977D01*
X397039Y931090D01*
X397057Y931201D01*
X397078Y931312D01*
X397103Y931423D01*
X397132Y931532D01*
X397165Y931640D01*
X397201Y931747D01*
X397241Y931853D01*
X397285Y931957D01*
X397332Y932060D01*
X397383Y932161D01*
X397437Y932260D01*
X397495Y932357D01*
X397556Y932452D01*
X397620Y932545D01*
X397687Y932636D01*
X397758Y932724D01*
X397831Y932810D01*
X397908Y932893D01*
X397987Y932974D01*
X398069Y933052D01*
X398154Y933127D01*
X398241Y933199D01*
X398330Y933268D01*
X398422Y933333D01*
X398516Y933396D01*
X398612Y933455D01*
X398711Y933511D01*
X398811Y933564D01*
X398913Y933613D01*
X399016Y933658D01*
X399121Y933700D01*
X399227Y933738D01*
X399335Y933773D01*
X399444Y933804D01*
X399553Y933831D01*
X399664Y933854D01*
X399775Y933874D01*
X399887Y933889D01*
X400000Y933901D01*
X400113Y933909D01*
X400225Y933913D01*
X400339Y933913D01*
X400451Y933909D01*
X400564Y933901D01*
X400677Y933889D01*
X400789Y933874D01*
X400900Y933854D01*
X401011Y933831D01*
X401120Y933804D01*
X401229Y933773D01*
X401337Y933738D01*
X401443Y933700D01*
X401548Y933658D01*
X401651Y933613D01*
X401753Y933564D01*
X401853Y933511D01*
X401952Y933455D01*
X402048Y933396D01*
X402142Y933333D01*
X402234Y933268D01*
X402323Y933199D01*
X402410Y933127D01*
X402495Y933052D01*
X402577Y932974D01*
X402656Y932893D01*
X402733Y932810D01*
X402806Y932724D01*
X402877Y932636D01*
X402944Y932545D01*
X403008Y932452D01*
X403069Y932357D01*
X403127Y932260D01*
X403181Y932161D01*
X403232Y932060D01*
X403279Y931957D01*
X403323Y931853D01*
X403363Y931747D01*
X403399Y931640D01*
X403432Y931532D01*
X403461Y931423D01*
X403486Y931312D01*
X403507Y931201D01*
X403525Y931090D01*
X403538Y930977D01*
X403548Y930865D01*
X403554Y930752D01*
X403556Y930639D01*
X403556Y929002D01*
X397008Y929002D01*
X409397Y933912D02*
X412670Y924091D01*
X415944Y933912D01*
X421181Y924909D02*
X421181Y924091D01*
X421181Y924909D02*
X421999Y924909D01*
X421999Y924091D01*
X421181Y924091D01*
X427622Y925319D02*
X427622Y926137D01*
X428441Y926137D01*
X428441Y925319D01*
X427622Y925319D01*
X427622Y931866D02*
X427622Y932685D01*
X428441Y932685D01*
X428441Y931866D01*
X427622Y931866D01*
D12*
X368713Y916725D02*
X413Y916725D01*
X368713Y916725D02*
X546513Y916725D01*
X368713Y948475D02*
X413Y948475D01*
X368713Y948475D02*
X546513Y948475D01*
X229013Y980225D02*
X413Y980225D01*
X229013Y980225D02*
X368713Y980225D01*
X546513Y980225D01*
X229013Y1011975D02*
X229013Y1043725D01*
X229013Y1011975D02*
X229013Y980225D01*
X229013Y1011975D02*
X368713Y1011975D01*
X546513Y1011975D01*
D21*
X368713Y1011975D02*
X368713Y980225D01*
D20*
X385702Y987591D02*
X388976Y987591D01*
X385702Y987591D02*
X385590Y987593D01*
X385479Y987599D01*
X385367Y987608D01*
X385256Y987621D01*
X385146Y987639D01*
X385036Y987659D01*
X384927Y987684D01*
X384819Y987712D01*
X384712Y987744D01*
X384606Y987780D01*
X384501Y987819D01*
X384398Y987862D01*
X384296Y987908D01*
X384196Y987958D01*
X384097Y988011D01*
X384001Y988068D01*
X383906Y988127D01*
X383814Y988190D01*
X383724Y988256D01*
X383636Y988325D01*
X383550Y988397D01*
X383467Y988472D01*
X383387Y988550D01*
X383309Y988630D01*
X383234Y988713D01*
X383162Y988799D01*
X383093Y988887D01*
X383027Y988977D01*
X382964Y989069D01*
X382905Y989164D01*
X382848Y989260D01*
X382795Y989359D01*
X382745Y989459D01*
X382699Y989561D01*
X382656Y989664D01*
X382617Y989769D01*
X382581Y989875D01*
X382549Y989982D01*
X382521Y990090D01*
X382496Y990199D01*
X382476Y990309D01*
X382458Y990419D01*
X382445Y990530D01*
X382436Y990642D01*
X382430Y990753D01*
X382428Y990865D01*
X382429Y990865D02*
X382429Y999049D01*
X382428Y999049D02*
X382430Y999163D01*
X382436Y999277D01*
X382446Y999391D01*
X382460Y999505D01*
X382478Y999618D01*
X382500Y999730D01*
X382525Y999841D01*
X382555Y999951D01*
X382588Y1000061D01*
X382625Y1000169D01*
X382666Y1000275D01*
X382711Y1000381D01*
X382759Y1000484D01*
X382811Y1000586D01*
X382867Y1000686D01*
X382925Y1000784D01*
X382988Y1000880D01*
X383053Y1000973D01*
X383122Y1001065D01*
X383194Y1001153D01*
X383269Y1001240D01*
X383347Y1001323D01*
X383428Y1001404D01*
X383511Y1001482D01*
X383598Y1001557D01*
X383686Y1001629D01*
X383778Y1001698D01*
X383871Y1001763D01*
X383967Y1001825D01*
X384065Y1001884D01*
X384165Y1001940D01*
X384267Y1001992D01*
X384370Y1002040D01*
X384476Y1002085D01*
X384582Y1002126D01*
X384690Y1002163D01*
X384800Y1002196D01*
X384910Y1002226D01*
X385021Y1002251D01*
X385133Y1002273D01*
X385246Y1002291D01*
X385360Y1002305D01*
X385474Y1002315D01*
X385588Y1002321D01*
X385702Y1002323D01*
X388976Y1002323D01*
X395189Y997412D02*
X395189Y990046D01*
X395190Y990046D02*
X395192Y989950D01*
X395198Y989853D01*
X395207Y989757D01*
X395220Y989662D01*
X395237Y989567D01*
X395258Y989473D01*
X395282Y989380D01*
X395310Y989287D01*
X395342Y989196D01*
X395377Y989107D01*
X395416Y989018D01*
X395458Y988931D01*
X395503Y988846D01*
X395552Y988763D01*
X395604Y988682D01*
X395659Y988603D01*
X395717Y988526D01*
X395778Y988452D01*
X395842Y988380D01*
X395909Y988310D01*
X395979Y988243D01*
X396051Y988179D01*
X396125Y988118D01*
X396202Y988060D01*
X396281Y988005D01*
X396362Y987953D01*
X396445Y987904D01*
X396530Y987859D01*
X396617Y987817D01*
X396706Y987778D01*
X396795Y987743D01*
X396886Y987711D01*
X396979Y987683D01*
X397072Y987659D01*
X397166Y987638D01*
X397261Y987621D01*
X397356Y987608D01*
X397452Y987599D01*
X397549Y987593D01*
X397645Y987591D01*
X401737Y987591D01*
X401737Y997412D01*
X408914Y993320D02*
X418735Y993320D01*
X426121Y987591D02*
X426121Y1002323D01*
X426121Y987591D02*
X432668Y987591D01*
X441074Y993320D02*
X444757Y993320D01*
X441074Y993321D02*
X440968Y993319D01*
X440862Y993313D01*
X440757Y993303D01*
X440652Y993290D01*
X440548Y993272D01*
X440444Y993251D01*
X440341Y993226D01*
X440239Y993197D01*
X440138Y993164D01*
X440039Y993128D01*
X439941Y993087D01*
X439845Y993044D01*
X439750Y992997D01*
X439657Y992946D01*
X439566Y992892D01*
X439477Y992834D01*
X439390Y992774D01*
X439305Y992710D01*
X439223Y992643D01*
X439144Y992573D01*
X439067Y992500D01*
X438993Y992425D01*
X438921Y992347D01*
X438853Y992266D01*
X438788Y992183D01*
X438725Y992097D01*
X438666Y992009D01*
X438611Y991919D01*
X438558Y991827D01*
X438509Y991733D01*
X438464Y991637D01*
X438422Y991540D01*
X438384Y991441D01*
X438349Y991341D01*
X438318Y991240D01*
X438291Y991138D01*
X438268Y991034D01*
X438249Y990930D01*
X438233Y990826D01*
X438221Y990720D01*
X438213Y990615D01*
X438209Y990509D01*
X438209Y990403D01*
X438213Y990297D01*
X438221Y990192D01*
X438233Y990086D01*
X438249Y989982D01*
X438268Y989878D01*
X438291Y989774D01*
X438318Y989672D01*
X438349Y989571D01*
X438384Y989471D01*
X438422Y989372D01*
X438464Y989275D01*
X438509Y989179D01*
X438558Y989085D01*
X438611Y988993D01*
X438666Y988903D01*
X438725Y988815D01*
X438788Y988729D01*
X438853Y988646D01*
X438921Y988565D01*
X438993Y988487D01*
X439067Y988412D01*
X439144Y988339D01*
X439223Y988269D01*
X439305Y988202D01*
X439390Y988138D01*
X439477Y988078D01*
X439566Y988020D01*
X439657Y987966D01*
X439750Y987915D01*
X439845Y987868D01*
X439941Y987825D01*
X440039Y987784D01*
X440138Y987748D01*
X440239Y987715D01*
X440341Y987686D01*
X440444Y987661D01*
X440548Y987640D01*
X440652Y987622D01*
X440757Y987609D01*
X440862Y987599D01*
X440968Y987593D01*
X441074Y987591D01*
X444757Y987591D01*
X444757Y994957D01*
X444755Y995053D01*
X444749Y995150D01*
X444740Y995246D01*
X444727Y995341D01*
X444710Y995436D01*
X444689Y995530D01*
X444665Y995623D01*
X444637Y995716D01*
X444605Y995807D01*
X444570Y995896D01*
X444531Y995985D01*
X444489Y996072D01*
X444444Y996157D01*
X444395Y996240D01*
X444343Y996321D01*
X444288Y996400D01*
X444230Y996477D01*
X444169Y996551D01*
X444105Y996623D01*
X444038Y996693D01*
X443968Y996760D01*
X443896Y996824D01*
X443822Y996885D01*
X443745Y996943D01*
X443666Y996998D01*
X443585Y997050D01*
X443502Y997099D01*
X443417Y997144D01*
X443330Y997186D01*
X443241Y997225D01*
X443152Y997260D01*
X443061Y997292D01*
X442968Y997320D01*
X442875Y997344D01*
X442781Y997365D01*
X442686Y997382D01*
X442591Y997395D01*
X442495Y997404D01*
X442398Y997410D01*
X442302Y997412D01*
X439028Y997412D01*
X451184Y982680D02*
X452821Y982680D01*
X457731Y997412D01*
X451184Y997412D02*
X454457Y987591D01*
X466027Y987591D02*
X470119Y987591D01*
X466027Y987591D02*
X465931Y987593D01*
X465834Y987599D01*
X465738Y987608D01*
X465643Y987621D01*
X465548Y987638D01*
X465454Y987659D01*
X465361Y987683D01*
X465268Y987711D01*
X465177Y987743D01*
X465088Y987778D01*
X464999Y987817D01*
X464912Y987859D01*
X464827Y987904D01*
X464744Y987953D01*
X464663Y988005D01*
X464584Y988060D01*
X464507Y988118D01*
X464433Y988179D01*
X464361Y988243D01*
X464291Y988310D01*
X464224Y988380D01*
X464160Y988452D01*
X464099Y988526D01*
X464041Y988603D01*
X463986Y988682D01*
X463934Y988763D01*
X463885Y988846D01*
X463840Y988931D01*
X463798Y989018D01*
X463759Y989107D01*
X463724Y989196D01*
X463692Y989287D01*
X463664Y989380D01*
X463640Y989473D01*
X463619Y989567D01*
X463602Y989662D01*
X463589Y989757D01*
X463580Y989853D01*
X463574Y989950D01*
X463572Y990046D01*
X463572Y994139D01*
X463574Y994252D01*
X463580Y994365D01*
X463590Y994477D01*
X463603Y994590D01*
X463621Y994701D01*
X463642Y994812D01*
X463667Y994923D01*
X463696Y995032D01*
X463729Y995140D01*
X463765Y995247D01*
X463805Y995353D01*
X463849Y995457D01*
X463896Y995560D01*
X463947Y995661D01*
X464001Y995760D01*
X464059Y995857D01*
X464120Y995952D01*
X464184Y996045D01*
X464251Y996136D01*
X464322Y996224D01*
X464395Y996310D01*
X464472Y996393D01*
X464551Y996474D01*
X464633Y996552D01*
X464718Y996627D01*
X464805Y996699D01*
X464894Y996768D01*
X464986Y996833D01*
X465080Y996896D01*
X465176Y996955D01*
X465275Y997011D01*
X465375Y997064D01*
X465477Y997113D01*
X465580Y997158D01*
X465685Y997200D01*
X465791Y997238D01*
X465899Y997273D01*
X466008Y997304D01*
X466117Y997331D01*
X466228Y997354D01*
X466339Y997374D01*
X466451Y997389D01*
X466564Y997401D01*
X466677Y997409D01*
X466789Y997413D01*
X466903Y997413D01*
X467015Y997409D01*
X467128Y997401D01*
X467241Y997389D01*
X467353Y997374D01*
X467464Y997354D01*
X467575Y997331D01*
X467684Y997304D01*
X467793Y997273D01*
X467901Y997238D01*
X468007Y997200D01*
X468112Y997158D01*
X468215Y997113D01*
X468317Y997064D01*
X468417Y997011D01*
X468516Y996955D01*
X468612Y996896D01*
X468706Y996833D01*
X468798Y996768D01*
X468887Y996699D01*
X468974Y996627D01*
X469059Y996552D01*
X469141Y996474D01*
X469220Y996393D01*
X469297Y996310D01*
X469370Y996224D01*
X469441Y996136D01*
X469508Y996045D01*
X469572Y995952D01*
X469633Y995857D01*
X469691Y995760D01*
X469745Y995661D01*
X469796Y995560D01*
X469843Y995457D01*
X469887Y995353D01*
X469927Y995247D01*
X469963Y995140D01*
X469996Y995032D01*
X470025Y994923D01*
X470050Y994812D01*
X470071Y994701D01*
X470089Y994590D01*
X470102Y994477D01*
X470112Y994365D01*
X470118Y994252D01*
X470120Y994139D01*
X470119Y994139D02*
X470119Y992502D01*
X463572Y992502D01*
X477055Y987591D02*
X477055Y997412D01*
X481966Y997412D01*
X481966Y995775D01*
X488089Y993320D02*
X492181Y991683D01*
X488089Y993320D02*
X488006Y993355D01*
X487924Y993394D01*
X487844Y993437D01*
X487766Y993482D01*
X487689Y993531D01*
X487615Y993584D01*
X487544Y993639D01*
X487474Y993698D01*
X487408Y993759D01*
X487344Y993823D01*
X487283Y993890D01*
X487224Y993959D01*
X487169Y994031D01*
X487117Y994105D01*
X487068Y994181D01*
X487022Y994259D01*
X486980Y994340D01*
X486941Y994421D01*
X486906Y994505D01*
X486874Y994590D01*
X486846Y994676D01*
X486821Y994763D01*
X486801Y994851D01*
X486784Y994940D01*
X486771Y995030D01*
X486762Y995120D01*
X486756Y995211D01*
X486755Y995301D01*
X486757Y995392D01*
X486764Y995482D01*
X486774Y995572D01*
X486788Y995662D01*
X486806Y995750D01*
X486827Y995838D01*
X486852Y995925D01*
X486881Y996011D01*
X486914Y996096D01*
X486950Y996179D01*
X486990Y996260D01*
X487033Y996340D01*
X487079Y996418D01*
X487129Y996493D01*
X487182Y996567D01*
X487238Y996638D01*
X487297Y996707D01*
X487359Y996773D01*
X487424Y996836D01*
X487491Y996897D01*
X487561Y996955D01*
X487633Y997009D01*
X487708Y997061D01*
X487785Y997109D01*
X487863Y997154D01*
X487944Y997196D01*
X488026Y997234D01*
X488110Y997268D01*
X488195Y997299D01*
X488281Y997327D01*
X488369Y997350D01*
X488457Y997370D01*
X488546Y997386D01*
X488636Y997398D01*
X488726Y997407D01*
X488817Y997411D01*
X488907Y997412D01*
X488908Y997412D02*
X489131Y997406D01*
X489354Y997395D01*
X489577Y997378D01*
X489800Y997356D01*
X490021Y997329D01*
X490242Y997296D01*
X490463Y997258D01*
X490682Y997215D01*
X490900Y997167D01*
X491117Y997113D01*
X491333Y997054D01*
X491547Y996990D01*
X491759Y996921D01*
X491970Y996847D01*
X492179Y996767D01*
X492386Y996683D01*
X492591Y996594D01*
X492181Y991683D02*
X492264Y991648D01*
X492346Y991609D01*
X492426Y991566D01*
X492504Y991521D01*
X492581Y991472D01*
X492655Y991419D01*
X492726Y991364D01*
X492796Y991305D01*
X492862Y991244D01*
X492926Y991180D01*
X492987Y991113D01*
X493046Y991044D01*
X493101Y990972D01*
X493153Y990898D01*
X493202Y990822D01*
X493248Y990744D01*
X493290Y990663D01*
X493329Y990582D01*
X493364Y990498D01*
X493396Y990413D01*
X493424Y990327D01*
X493449Y990240D01*
X493469Y990152D01*
X493486Y990063D01*
X493499Y989973D01*
X493508Y989883D01*
X493514Y989792D01*
X493515Y989702D01*
X493513Y989611D01*
X493506Y989521D01*
X493496Y989431D01*
X493482Y989341D01*
X493464Y989253D01*
X493443Y989165D01*
X493418Y989078D01*
X493389Y988992D01*
X493356Y988907D01*
X493320Y988824D01*
X493280Y988743D01*
X493237Y988663D01*
X493191Y988585D01*
X493141Y988510D01*
X493088Y988436D01*
X493032Y988365D01*
X492973Y988296D01*
X492911Y988230D01*
X492846Y988167D01*
X492779Y988106D01*
X492709Y988048D01*
X492637Y987994D01*
X492562Y987942D01*
X492485Y987894D01*
X492407Y987849D01*
X492326Y987807D01*
X492244Y987769D01*
X492160Y987735D01*
X492075Y987704D01*
X491989Y987676D01*
X491901Y987653D01*
X491813Y987633D01*
X491724Y987617D01*
X491634Y987605D01*
X491544Y987596D01*
X491453Y987592D01*
X491363Y987591D01*
X491035Y987600D01*
X490707Y987616D01*
X490379Y987640D01*
X490053Y987672D01*
X489727Y987712D01*
X489402Y987759D01*
X489078Y987814D01*
X488756Y987876D01*
X488435Y987947D01*
X488116Y988024D01*
X487799Y988110D01*
X487484Y988202D01*
X487172Y988302D01*
X486861Y988410D01*
X499637Y988819D02*
X499637Y989637D01*
X500455Y989637D01*
X500455Y988819D01*
X499637Y988819D01*
X499637Y995366D02*
X499637Y996185D01*
X500455Y996185D01*
X500455Y995366D01*
X499637Y995366D01*
D21*
X368713Y948475D02*
X368713Y916725D01*
D20*
X249276Y987591D02*
X246002Y987591D01*
X245890Y987593D01*
X245779Y987599D01*
X245667Y987608D01*
X245556Y987621D01*
X245446Y987639D01*
X245336Y987659D01*
X245227Y987684D01*
X245119Y987712D01*
X245012Y987744D01*
X244906Y987780D01*
X244801Y987819D01*
X244698Y987862D01*
X244596Y987908D01*
X244496Y987958D01*
X244397Y988011D01*
X244301Y988068D01*
X244206Y988127D01*
X244114Y988190D01*
X244024Y988256D01*
X243936Y988325D01*
X243850Y988397D01*
X243767Y988472D01*
X243687Y988550D01*
X243609Y988630D01*
X243534Y988713D01*
X243462Y988799D01*
X243393Y988887D01*
X243327Y988977D01*
X243264Y989069D01*
X243205Y989164D01*
X243148Y989260D01*
X243095Y989359D01*
X243045Y989459D01*
X242999Y989561D01*
X242956Y989664D01*
X242917Y989769D01*
X242881Y989875D01*
X242849Y989982D01*
X242821Y990090D01*
X242796Y990199D01*
X242776Y990309D01*
X242758Y990419D01*
X242745Y990530D01*
X242736Y990642D01*
X242730Y990753D01*
X242728Y990865D01*
X242729Y990865D02*
X242729Y999049D01*
X242728Y999049D02*
X242730Y999163D01*
X242736Y999277D01*
X242746Y999391D01*
X242760Y999505D01*
X242778Y999618D01*
X242800Y999730D01*
X242825Y999841D01*
X242855Y999951D01*
X242888Y1000061D01*
X242925Y1000169D01*
X242966Y1000275D01*
X243011Y1000381D01*
X243059Y1000484D01*
X243111Y1000586D01*
X243167Y1000686D01*
X243225Y1000784D01*
X243288Y1000880D01*
X243353Y1000973D01*
X243422Y1001065D01*
X243494Y1001153D01*
X243569Y1001240D01*
X243647Y1001323D01*
X243728Y1001404D01*
X243811Y1001482D01*
X243898Y1001557D01*
X243986Y1001629D01*
X244078Y1001698D01*
X244171Y1001763D01*
X244267Y1001825D01*
X244365Y1001884D01*
X244465Y1001940D01*
X244567Y1001992D01*
X244670Y1002040D01*
X244776Y1002085D01*
X244882Y1002126D01*
X244990Y1002163D01*
X245100Y1002196D01*
X245210Y1002226D01*
X245321Y1002251D01*
X245433Y1002273D01*
X245546Y1002291D01*
X245660Y1002305D01*
X245774Y1002315D01*
X245888Y1002321D01*
X246002Y1002323D01*
X249276Y1002323D01*
X255489Y997412D02*
X255489Y990046D01*
X255490Y990046D02*
X255492Y989950D01*
X255498Y989853D01*
X255507Y989757D01*
X255520Y989662D01*
X255537Y989567D01*
X255558Y989473D01*
X255582Y989380D01*
X255610Y989287D01*
X255642Y989196D01*
X255677Y989107D01*
X255716Y989018D01*
X255758Y988931D01*
X255803Y988846D01*
X255852Y988763D01*
X255904Y988682D01*
X255959Y988603D01*
X256017Y988526D01*
X256078Y988452D01*
X256142Y988380D01*
X256209Y988310D01*
X256279Y988243D01*
X256351Y988179D01*
X256425Y988118D01*
X256502Y988060D01*
X256581Y988005D01*
X256662Y987953D01*
X256745Y987904D01*
X256830Y987859D01*
X256917Y987817D01*
X257006Y987778D01*
X257095Y987743D01*
X257186Y987711D01*
X257279Y987683D01*
X257372Y987659D01*
X257466Y987638D01*
X257561Y987621D01*
X257656Y987608D01*
X257752Y987599D01*
X257849Y987593D01*
X257945Y987591D01*
X262037Y987591D01*
X262037Y997412D01*
X268760Y989637D02*
X268760Y988819D01*
X268760Y989637D02*
X269578Y989637D01*
X269578Y988819D01*
X268760Y988819D01*
X268760Y995366D02*
X268760Y996185D01*
X269578Y996185D01*
X269578Y995366D01*
X268760Y995366D01*
X14129Y970573D02*
X14129Y955841D01*
X14129Y970573D02*
X18221Y970573D01*
X18347Y970571D01*
X18473Y970565D01*
X18599Y970556D01*
X18724Y970542D01*
X18849Y970525D01*
X18973Y970503D01*
X19096Y970478D01*
X19219Y970449D01*
X19341Y970417D01*
X19462Y970380D01*
X19581Y970340D01*
X19699Y970297D01*
X19816Y970249D01*
X19931Y970198D01*
X20045Y970144D01*
X20157Y970086D01*
X20267Y970025D01*
X20375Y969960D01*
X20481Y969892D01*
X20585Y969821D01*
X20687Y969746D01*
X20786Y969669D01*
X20883Y969588D01*
X20978Y969505D01*
X21070Y969419D01*
X21159Y969330D01*
X21245Y969238D01*
X21328Y969143D01*
X21409Y969046D01*
X21486Y968947D01*
X21561Y968845D01*
X21632Y968741D01*
X21700Y968635D01*
X21765Y968527D01*
X21826Y968417D01*
X21884Y968305D01*
X21938Y968191D01*
X21989Y968076D01*
X22037Y967959D01*
X22080Y967841D01*
X22120Y967721D01*
X22157Y967601D01*
X22189Y967479D01*
X22218Y967356D01*
X22243Y967233D01*
X22265Y967109D01*
X22282Y966984D01*
X22296Y966859D01*
X22305Y966733D01*
X22311Y966607D01*
X22313Y966481D01*
X22313Y959933D01*
X22311Y959807D01*
X22305Y959681D01*
X22296Y959555D01*
X22282Y959430D01*
X22265Y959305D01*
X22243Y959181D01*
X22218Y959058D01*
X22189Y958935D01*
X22157Y958813D01*
X22120Y958693D01*
X22080Y958573D01*
X22037Y958455D01*
X21989Y958338D01*
X21938Y958223D01*
X21884Y958109D01*
X21826Y957997D01*
X21765Y957887D01*
X21700Y957779D01*
X21632Y957673D01*
X21561Y957569D01*
X21486Y957467D01*
X21409Y957368D01*
X21328Y957271D01*
X21245Y957176D01*
X21159Y957084D01*
X21070Y956995D01*
X20978Y956909D01*
X20883Y956826D01*
X20786Y956745D01*
X20687Y956668D01*
X20585Y956593D01*
X20481Y956522D01*
X20375Y956454D01*
X20267Y956389D01*
X20157Y956328D01*
X20045Y956270D01*
X19931Y956216D01*
X19816Y956165D01*
X19699Y956117D01*
X19581Y956074D01*
X19462Y956034D01*
X19341Y955997D01*
X19219Y955965D01*
X19096Y955936D01*
X18973Y955911D01*
X18849Y955889D01*
X18724Y955872D01*
X18599Y955858D01*
X18473Y955849D01*
X18347Y955843D01*
X18221Y955841D01*
X14129Y955841D01*
X29122Y955841D02*
X29122Y965662D01*
X28713Y969755D02*
X28713Y970573D01*
X29531Y970573D01*
X29531Y969755D01*
X28713Y969755D01*
X38037Y961570D02*
X41720Y961570D01*
X38037Y961571D02*
X37931Y961569D01*
X37825Y961563D01*
X37720Y961553D01*
X37615Y961540D01*
X37511Y961522D01*
X37407Y961501D01*
X37304Y961476D01*
X37202Y961447D01*
X37101Y961414D01*
X37002Y961378D01*
X36904Y961337D01*
X36808Y961294D01*
X36713Y961247D01*
X36620Y961196D01*
X36529Y961142D01*
X36440Y961084D01*
X36353Y961024D01*
X36268Y960960D01*
X36186Y960893D01*
X36107Y960823D01*
X36030Y960750D01*
X35956Y960675D01*
X35884Y960597D01*
X35816Y960516D01*
X35751Y960433D01*
X35688Y960347D01*
X35629Y960259D01*
X35574Y960169D01*
X35521Y960077D01*
X35472Y959983D01*
X35427Y959887D01*
X35385Y959790D01*
X35347Y959691D01*
X35312Y959591D01*
X35281Y959490D01*
X35254Y959388D01*
X35231Y959284D01*
X35212Y959180D01*
X35196Y959076D01*
X35184Y958970D01*
X35176Y958865D01*
X35172Y958759D01*
X35172Y958653D01*
X35176Y958547D01*
X35184Y958442D01*
X35196Y958336D01*
X35212Y958232D01*
X35231Y958128D01*
X35254Y958024D01*
X35281Y957922D01*
X35312Y957821D01*
X35347Y957721D01*
X35385Y957622D01*
X35427Y957525D01*
X35472Y957429D01*
X35521Y957335D01*
X35574Y957243D01*
X35629Y957153D01*
X35688Y957065D01*
X35751Y956979D01*
X35816Y956896D01*
X35884Y956815D01*
X35956Y956737D01*
X36030Y956662D01*
X36107Y956589D01*
X36186Y956519D01*
X36268Y956452D01*
X36353Y956388D01*
X36440Y956328D01*
X36529Y956270D01*
X36620Y956216D01*
X36713Y956165D01*
X36808Y956118D01*
X36904Y956075D01*
X37002Y956034D01*
X37101Y955998D01*
X37202Y955965D01*
X37304Y955936D01*
X37407Y955911D01*
X37511Y955890D01*
X37615Y955872D01*
X37720Y955859D01*
X37825Y955849D01*
X37931Y955843D01*
X38037Y955841D01*
X41720Y955841D01*
X41720Y963207D01*
X41718Y963303D01*
X41712Y963400D01*
X41703Y963496D01*
X41690Y963591D01*
X41673Y963686D01*
X41652Y963780D01*
X41628Y963873D01*
X41600Y963966D01*
X41568Y964057D01*
X41533Y964146D01*
X41494Y964235D01*
X41452Y964322D01*
X41407Y964407D01*
X41358Y964490D01*
X41306Y964571D01*
X41251Y964650D01*
X41193Y964727D01*
X41132Y964801D01*
X41068Y964873D01*
X41001Y964943D01*
X40931Y965010D01*
X40859Y965074D01*
X40785Y965135D01*
X40708Y965193D01*
X40629Y965248D01*
X40548Y965300D01*
X40465Y965349D01*
X40380Y965394D01*
X40293Y965436D01*
X40204Y965475D01*
X40115Y965510D01*
X40024Y965542D01*
X39931Y965570D01*
X39838Y965594D01*
X39744Y965615D01*
X39649Y965632D01*
X39554Y965645D01*
X39458Y965654D01*
X39361Y965660D01*
X39265Y965662D01*
X35991Y965662D01*
X51007Y955841D02*
X55100Y955841D01*
X51007Y955841D02*
X50911Y955843D01*
X50814Y955849D01*
X50718Y955858D01*
X50623Y955871D01*
X50528Y955888D01*
X50434Y955909D01*
X50341Y955933D01*
X50248Y955961D01*
X50157Y955993D01*
X50068Y956028D01*
X49979Y956067D01*
X49892Y956109D01*
X49807Y956154D01*
X49724Y956203D01*
X49643Y956255D01*
X49564Y956310D01*
X49487Y956368D01*
X49413Y956429D01*
X49341Y956493D01*
X49271Y956560D01*
X49204Y956630D01*
X49140Y956702D01*
X49079Y956776D01*
X49021Y956853D01*
X48966Y956932D01*
X48914Y957013D01*
X48865Y957096D01*
X48820Y957181D01*
X48778Y957268D01*
X48739Y957357D01*
X48704Y957446D01*
X48672Y957537D01*
X48644Y957630D01*
X48620Y957723D01*
X48599Y957817D01*
X48582Y957912D01*
X48569Y958007D01*
X48560Y958103D01*
X48554Y958200D01*
X48552Y958296D01*
X48552Y963207D01*
X48554Y963303D01*
X48560Y963400D01*
X48569Y963496D01*
X48582Y963591D01*
X48599Y963686D01*
X48620Y963780D01*
X48644Y963873D01*
X48672Y963966D01*
X48704Y964057D01*
X48739Y964146D01*
X48778Y964235D01*
X48820Y964322D01*
X48865Y964407D01*
X48914Y964490D01*
X48966Y964571D01*
X49021Y964650D01*
X49079Y964727D01*
X49140Y964801D01*
X49204Y964873D01*
X49271Y964943D01*
X49341Y965010D01*
X49413Y965074D01*
X49487Y965135D01*
X49564Y965193D01*
X49643Y965248D01*
X49724Y965300D01*
X49807Y965349D01*
X49892Y965394D01*
X49979Y965436D01*
X50068Y965475D01*
X50157Y965510D01*
X50248Y965542D01*
X50341Y965570D01*
X50434Y965594D01*
X50528Y965615D01*
X50623Y965632D01*
X50718Y965645D01*
X50814Y965654D01*
X50911Y965660D01*
X51007Y965662D01*
X55100Y965662D01*
X55100Y953386D01*
X55099Y953386D02*
X55097Y953287D01*
X55091Y953188D01*
X55081Y953090D01*
X55067Y952992D01*
X55049Y952895D01*
X55028Y952798D01*
X55002Y952703D01*
X54973Y952609D01*
X54939Y952515D01*
X54903Y952424D01*
X54862Y952334D01*
X54818Y952245D01*
X54770Y952159D01*
X54719Y952074D01*
X54664Y951991D01*
X54607Y951911D01*
X54546Y951833D01*
X54482Y951758D01*
X54415Y951685D01*
X54345Y951615D01*
X54272Y951548D01*
X54197Y951484D01*
X54119Y951423D01*
X54039Y951366D01*
X53956Y951311D01*
X53872Y951260D01*
X53785Y951212D01*
X53696Y951168D01*
X53606Y951127D01*
X53515Y951091D01*
X53421Y951057D01*
X53327Y951028D01*
X53232Y951002D01*
X53135Y950981D01*
X53038Y950963D01*
X52940Y950949D01*
X52842Y950939D01*
X52743Y950933D01*
X52644Y950931D01*
X52644Y950930D02*
X49370Y950930D01*
X62194Y964025D02*
X67105Y964025D01*
X67105Y964026D02*
X67217Y964024D01*
X67328Y964018D01*
X67440Y964009D01*
X67551Y963996D01*
X67661Y963978D01*
X67771Y963958D01*
X67880Y963933D01*
X67988Y963905D01*
X68095Y963873D01*
X68201Y963837D01*
X68306Y963798D01*
X68409Y963755D01*
X68511Y963709D01*
X68611Y963659D01*
X68710Y963606D01*
X68806Y963549D01*
X68901Y963490D01*
X68993Y963427D01*
X69083Y963361D01*
X69171Y963292D01*
X69257Y963220D01*
X69340Y963145D01*
X69420Y963067D01*
X69498Y962987D01*
X69573Y962904D01*
X69645Y962818D01*
X69714Y962730D01*
X69780Y962640D01*
X69843Y962548D01*
X69902Y962453D01*
X69959Y962357D01*
X70012Y962258D01*
X70062Y962158D01*
X70108Y962056D01*
X70151Y961953D01*
X70190Y961848D01*
X70226Y961742D01*
X70258Y961635D01*
X70286Y961527D01*
X70311Y961418D01*
X70331Y961308D01*
X70349Y961198D01*
X70362Y961087D01*
X70371Y960975D01*
X70377Y960864D01*
X70379Y960752D01*
X70379Y959933D01*
X70377Y959806D01*
X70371Y959679D01*
X70361Y959552D01*
X70347Y959425D01*
X70330Y959299D01*
X70308Y959174D01*
X70282Y959049D01*
X70253Y958925D01*
X70220Y958802D01*
X70183Y958681D01*
X70142Y958560D01*
X70097Y958441D01*
X70049Y958323D01*
X69997Y958207D01*
X69942Y958092D01*
X69883Y957980D01*
X69820Y957869D01*
X69754Y957760D01*
X69685Y957653D01*
X69612Y957548D01*
X69537Y957446D01*
X69458Y957346D01*
X69376Y957249D01*
X69291Y957154D01*
X69203Y957062D01*
X69112Y956973D01*
X69019Y956886D01*
X68923Y956803D01*
X68824Y956722D01*
X68723Y956645D01*
X68620Y956571D01*
X68514Y956500D01*
X68406Y956432D01*
X68296Y956368D01*
X68184Y956307D01*
X68071Y956250D01*
X67955Y956196D01*
X67838Y956146D01*
X67720Y956100D01*
X67600Y956057D01*
X67479Y956018D01*
X67356Y955983D01*
X67233Y955952D01*
X67109Y955924D01*
X66984Y955901D01*
X66858Y955881D01*
X66732Y955865D01*
X66605Y955853D01*
X66478Y955845D01*
X66351Y955841D01*
X66223Y955841D01*
X66096Y955845D01*
X65969Y955853D01*
X65842Y955865D01*
X65716Y955881D01*
X65590Y955901D01*
X65465Y955924D01*
X65341Y955952D01*
X65218Y955983D01*
X65095Y956018D01*
X64974Y956057D01*
X64854Y956100D01*
X64736Y956146D01*
X64619Y956196D01*
X64503Y956250D01*
X64390Y956307D01*
X64278Y956368D01*
X64168Y956432D01*
X64060Y956500D01*
X63954Y956571D01*
X63851Y956645D01*
X63750Y956722D01*
X63651Y956803D01*
X63555Y956886D01*
X63462Y956973D01*
X63371Y957062D01*
X63283Y957154D01*
X63198Y957249D01*
X63116Y957346D01*
X63037Y957446D01*
X62962Y957548D01*
X62889Y957653D01*
X62820Y957760D01*
X62754Y957869D01*
X62691Y957980D01*
X62632Y958092D01*
X62577Y958207D01*
X62525Y958323D01*
X62477Y958441D01*
X62432Y958560D01*
X62391Y958681D01*
X62354Y958802D01*
X62321Y958925D01*
X62292Y959049D01*
X62266Y959174D01*
X62244Y959299D01*
X62227Y959425D01*
X62213Y959552D01*
X62203Y959679D01*
X62197Y959806D01*
X62195Y959933D01*
X62194Y959933D02*
X62194Y964025D01*
X62196Y964186D01*
X62202Y964346D01*
X62212Y964507D01*
X62226Y964667D01*
X62243Y964827D01*
X62265Y964986D01*
X62290Y965144D01*
X62320Y965302D01*
X62353Y965460D01*
X62390Y965616D01*
X62431Y965771D01*
X62476Y965926D01*
X62524Y966079D01*
X62577Y966231D01*
X62633Y966382D01*
X62692Y966531D01*
X62756Y966679D01*
X62823Y966825D01*
X62893Y966969D01*
X62967Y967112D01*
X63045Y967252D01*
X63126Y967391D01*
X63210Y967528D01*
X63298Y967663D01*
X63388Y967795D01*
X63483Y967926D01*
X63580Y968054D01*
X63680Y968179D01*
X63784Y968302D01*
X63890Y968422D01*
X64000Y968540D01*
X64112Y968655D01*
X64227Y968767D01*
X64345Y968877D01*
X64465Y968983D01*
X64588Y969087D01*
X64713Y969187D01*
X64841Y969284D01*
X64972Y969379D01*
X65104Y969469D01*
X65239Y969557D01*
X65376Y969641D01*
X65514Y969722D01*
X65655Y969800D01*
X65798Y969874D01*
X65942Y969944D01*
X66088Y970011D01*
X66236Y970075D01*
X66385Y970134D01*
X66536Y970190D01*
X66688Y970243D01*
X66841Y970291D01*
X66996Y970336D01*
X67151Y970377D01*
X67307Y970414D01*
X67465Y970447D01*
X67623Y970477D01*
X67781Y970502D01*
X67940Y970524D01*
X68100Y970541D01*
X68260Y970555D01*
X68421Y970565D01*
X68581Y970571D01*
X68742Y970573D01*
X80334Y970573D02*
X77060Y959115D01*
X85245Y959115D01*
X82789Y962389D02*
X82789Y955841D01*
X95150Y955841D02*
X98424Y955841D01*
X95150Y955841D02*
X95038Y955843D01*
X94927Y955849D01*
X94815Y955858D01*
X94704Y955871D01*
X94594Y955889D01*
X94484Y955909D01*
X94375Y955934D01*
X94267Y955962D01*
X94160Y955994D01*
X94054Y956030D01*
X93949Y956069D01*
X93846Y956112D01*
X93744Y956158D01*
X93644Y956208D01*
X93545Y956261D01*
X93449Y956318D01*
X93354Y956377D01*
X93262Y956440D01*
X93172Y956506D01*
X93084Y956575D01*
X92998Y956647D01*
X92915Y956722D01*
X92835Y956800D01*
X92757Y956880D01*
X92682Y956963D01*
X92610Y957049D01*
X92541Y957137D01*
X92475Y957227D01*
X92412Y957319D01*
X92353Y957414D01*
X92296Y957510D01*
X92243Y957609D01*
X92193Y957709D01*
X92147Y957811D01*
X92104Y957914D01*
X92065Y958019D01*
X92029Y958125D01*
X91997Y958232D01*
X91969Y958340D01*
X91944Y958449D01*
X91924Y958559D01*
X91906Y958669D01*
X91893Y958780D01*
X91884Y958892D01*
X91878Y959003D01*
X91876Y959115D01*
X91876Y967299D01*
X91878Y967413D01*
X91884Y967527D01*
X91894Y967641D01*
X91908Y967755D01*
X91926Y967868D01*
X91948Y967980D01*
X91973Y968091D01*
X92003Y968201D01*
X92036Y968311D01*
X92073Y968419D01*
X92114Y968525D01*
X92159Y968631D01*
X92207Y968734D01*
X92259Y968836D01*
X92315Y968936D01*
X92373Y969034D01*
X92436Y969130D01*
X92501Y969223D01*
X92570Y969315D01*
X92642Y969403D01*
X92717Y969490D01*
X92795Y969573D01*
X92876Y969654D01*
X92959Y969732D01*
X93046Y969807D01*
X93134Y969879D01*
X93226Y969948D01*
X93319Y970013D01*
X93415Y970075D01*
X93513Y970134D01*
X93613Y970190D01*
X93715Y970242D01*
X93818Y970290D01*
X93924Y970335D01*
X94030Y970376D01*
X94138Y970413D01*
X94248Y970446D01*
X94358Y970476D01*
X94469Y970501D01*
X94581Y970523D01*
X94694Y970541D01*
X94808Y970555D01*
X94922Y970565D01*
X95036Y970571D01*
X95150Y970573D01*
X98424Y970573D01*
X106915Y961570D02*
X110598Y961570D01*
X106915Y961571D02*
X106809Y961569D01*
X106703Y961563D01*
X106598Y961553D01*
X106493Y961540D01*
X106389Y961522D01*
X106285Y961501D01*
X106182Y961476D01*
X106080Y961447D01*
X105979Y961414D01*
X105880Y961378D01*
X105782Y961337D01*
X105686Y961294D01*
X105591Y961247D01*
X105498Y961196D01*
X105407Y961142D01*
X105318Y961084D01*
X105231Y961024D01*
X105146Y960960D01*
X105064Y960893D01*
X104985Y960823D01*
X104908Y960750D01*
X104834Y960675D01*
X104762Y960597D01*
X104694Y960516D01*
X104629Y960433D01*
X104566Y960347D01*
X104507Y960259D01*
X104452Y960169D01*
X104399Y960077D01*
X104350Y959983D01*
X104305Y959887D01*
X104263Y959790D01*
X104225Y959691D01*
X104190Y959591D01*
X104159Y959490D01*
X104132Y959388D01*
X104109Y959284D01*
X104090Y959180D01*
X104074Y959076D01*
X104062Y958970D01*
X104054Y958865D01*
X104050Y958759D01*
X104050Y958653D01*
X104054Y958547D01*
X104062Y958442D01*
X104074Y958336D01*
X104090Y958232D01*
X104109Y958128D01*
X104132Y958024D01*
X104159Y957922D01*
X104190Y957821D01*
X104225Y957721D01*
X104263Y957622D01*
X104305Y957525D01*
X104350Y957429D01*
X104399Y957335D01*
X104452Y957243D01*
X104507Y957153D01*
X104566Y957065D01*
X104629Y956979D01*
X104694Y956896D01*
X104762Y956815D01*
X104834Y956737D01*
X104908Y956662D01*
X104985Y956589D01*
X105064Y956519D01*
X105146Y956452D01*
X105231Y956388D01*
X105318Y956328D01*
X105407Y956270D01*
X105498Y956216D01*
X105591Y956165D01*
X105686Y956118D01*
X105782Y956075D01*
X105880Y956034D01*
X105979Y955998D01*
X106080Y955965D01*
X106182Y955936D01*
X106285Y955911D01*
X106389Y955890D01*
X106493Y955872D01*
X106598Y955859D01*
X106703Y955849D01*
X106809Y955843D01*
X106915Y955841D01*
X110598Y955841D01*
X110598Y963207D01*
X110596Y963303D01*
X110590Y963400D01*
X110581Y963496D01*
X110568Y963591D01*
X110551Y963686D01*
X110530Y963780D01*
X110506Y963873D01*
X110478Y963966D01*
X110446Y964057D01*
X110411Y964146D01*
X110372Y964235D01*
X110330Y964322D01*
X110285Y964407D01*
X110236Y964490D01*
X110184Y964571D01*
X110129Y964650D01*
X110071Y964727D01*
X110010Y964801D01*
X109946Y964873D01*
X109879Y964943D01*
X109809Y965010D01*
X109737Y965074D01*
X109663Y965135D01*
X109586Y965193D01*
X109507Y965248D01*
X109426Y965300D01*
X109343Y965349D01*
X109258Y965394D01*
X109171Y965436D01*
X109082Y965475D01*
X108993Y965510D01*
X108902Y965542D01*
X108809Y965570D01*
X108716Y965594D01*
X108622Y965615D01*
X108527Y965632D01*
X108432Y965645D01*
X108336Y965654D01*
X108239Y965660D01*
X108143Y965662D01*
X104869Y965662D01*
X118120Y965662D02*
X118120Y955841D01*
X118120Y965662D02*
X123031Y965662D01*
X123031Y964025D01*
X126620Y965662D02*
X131531Y965662D01*
X128257Y970573D02*
X128257Y958296D01*
X128259Y958200D01*
X128265Y958103D01*
X128274Y958007D01*
X128287Y957912D01*
X128304Y957817D01*
X128325Y957723D01*
X128349Y957630D01*
X128377Y957537D01*
X128409Y957446D01*
X128444Y957357D01*
X128483Y957268D01*
X128525Y957181D01*
X128570Y957096D01*
X128619Y957013D01*
X128671Y956932D01*
X128726Y956853D01*
X128784Y956776D01*
X128845Y956702D01*
X128909Y956630D01*
X128976Y956560D01*
X129046Y956493D01*
X129118Y956429D01*
X129192Y956368D01*
X129269Y956310D01*
X129348Y956255D01*
X129429Y956203D01*
X129512Y956154D01*
X129597Y956109D01*
X129684Y956066D01*
X129773Y956028D01*
X129862Y955993D01*
X129953Y955961D01*
X130046Y955933D01*
X130139Y955909D01*
X130233Y955888D01*
X130328Y955871D01*
X130423Y955858D01*
X130519Y955849D01*
X130616Y955843D01*
X130712Y955841D01*
X131531Y955841D01*
X22313Y935140D02*
X22311Y935261D01*
X22305Y935381D01*
X22295Y935501D01*
X22281Y935621D01*
X22264Y935740D01*
X22242Y935859D01*
X22217Y935976D01*
X22188Y936093D01*
X22154Y936209D01*
X22118Y936324D01*
X22077Y936437D01*
X22033Y936549D01*
X21985Y936660D01*
X21933Y936769D01*
X21878Y936876D01*
X21820Y936982D01*
X21758Y937085D01*
X21692Y937186D01*
X21624Y937285D01*
X21552Y937382D01*
X21477Y937476D01*
X21399Y937568D01*
X21318Y937658D01*
X21234Y937744D01*
X21148Y937828D01*
X21058Y937909D01*
X20966Y937987D01*
X20872Y938062D01*
X20775Y938134D01*
X20676Y938202D01*
X20575Y938268D01*
X20472Y938330D01*
X20366Y938388D01*
X20259Y938443D01*
X20150Y938495D01*
X20039Y938543D01*
X19927Y938587D01*
X19814Y938628D01*
X19699Y938664D01*
X19583Y938698D01*
X19466Y938727D01*
X19349Y938752D01*
X19230Y938774D01*
X19111Y938791D01*
X18991Y938805D01*
X18871Y938815D01*
X18751Y938821D01*
X18630Y938823D01*
X18495Y938821D01*
X18360Y938815D01*
X18225Y938806D01*
X18090Y938792D01*
X17956Y938775D01*
X17822Y938754D01*
X17690Y938729D01*
X17557Y938700D01*
X17426Y938667D01*
X17296Y938631D01*
X17167Y938591D01*
X17039Y938547D01*
X16912Y938500D01*
X16787Y938449D01*
X16663Y938395D01*
X16541Y938337D01*
X16420Y938275D01*
X16302Y938210D01*
X16185Y938142D01*
X16070Y938071D01*
X15957Y937996D01*
X15847Y937918D01*
X15739Y937837D01*
X15633Y937753D01*
X15529Y937666D01*
X15428Y937575D01*
X15330Y937483D01*
X15235Y937387D01*
X15142Y937288D01*
X15052Y937187D01*
X14965Y937084D01*
X14881Y936978D01*
X14800Y936870D01*
X14722Y936759D01*
X14647Y936646D01*
X14576Y936531D01*
X14508Y936415D01*
X14443Y936296D01*
X14382Y936175D01*
X14324Y936053D01*
X14270Y935929D01*
X14219Y935804D01*
X14172Y935677D01*
X14128Y935549D01*
X21085Y932275D02*
X21173Y932362D01*
X21258Y932451D01*
X21341Y932542D01*
X21420Y932636D01*
X21497Y932733D01*
X21570Y932832D01*
X21640Y932933D01*
X21707Y933037D01*
X21771Y933142D01*
X21832Y933249D01*
X21889Y933358D01*
X21943Y933469D01*
X21993Y933582D01*
X22040Y933696D01*
X22083Y933811D01*
X22123Y933928D01*
X22159Y934046D01*
X22191Y934164D01*
X22219Y934284D01*
X22244Y934405D01*
X22265Y934526D01*
X22282Y934648D01*
X22296Y934771D01*
X22305Y934894D01*
X22311Y935017D01*
X22313Y935140D01*
X21085Y932275D02*
X14129Y924091D01*
X22313Y924091D01*
X28994Y927365D02*
X32268Y938823D01*
X28994Y927365D02*
X37179Y927365D01*
X34723Y930639D02*
X34723Y924091D01*
X43083Y924091D02*
X43083Y924909D01*
X43902Y924909D01*
X43902Y924091D01*
X43083Y924091D01*
X49806Y935549D02*
X53898Y938823D01*
X53898Y924091D01*
X49806Y924091D02*
X57991Y924091D01*
X64672Y935549D02*
X68764Y938823D01*
X68764Y924091D01*
X64672Y924091D02*
X72856Y924091D01*
X78761Y924091D02*
X78761Y924909D01*
X79579Y924909D01*
X79579Y924091D01*
X78761Y924091D01*
X89985Y938823D02*
X90106Y938821D01*
X90226Y938815D01*
X90346Y938805D01*
X90466Y938791D01*
X90585Y938774D01*
X90704Y938752D01*
X90821Y938727D01*
X90938Y938698D01*
X91054Y938664D01*
X91169Y938628D01*
X91282Y938587D01*
X91394Y938543D01*
X91505Y938495D01*
X91614Y938443D01*
X91721Y938388D01*
X91827Y938330D01*
X91930Y938268D01*
X92031Y938202D01*
X92130Y938134D01*
X92227Y938062D01*
X92321Y937987D01*
X92413Y937909D01*
X92503Y937828D01*
X92589Y937744D01*
X92673Y937658D01*
X92754Y937568D01*
X92832Y937476D01*
X92907Y937382D01*
X92979Y937285D01*
X93047Y937186D01*
X93113Y937085D01*
X93175Y936982D01*
X93233Y936876D01*
X93288Y936769D01*
X93340Y936660D01*
X93388Y936549D01*
X93432Y936437D01*
X93473Y936324D01*
X93509Y936209D01*
X93543Y936093D01*
X93572Y935976D01*
X93597Y935859D01*
X93619Y935740D01*
X93636Y935621D01*
X93650Y935501D01*
X93660Y935381D01*
X93666Y935261D01*
X93668Y935140D01*
X89985Y938823D02*
X89850Y938821D01*
X89715Y938815D01*
X89580Y938806D01*
X89445Y938792D01*
X89311Y938775D01*
X89177Y938754D01*
X89045Y938729D01*
X88912Y938700D01*
X88781Y938667D01*
X88651Y938631D01*
X88522Y938591D01*
X88394Y938547D01*
X88267Y938500D01*
X88142Y938449D01*
X88018Y938395D01*
X87896Y938337D01*
X87775Y938275D01*
X87657Y938210D01*
X87540Y938142D01*
X87425Y938071D01*
X87312Y937996D01*
X87202Y937918D01*
X87094Y937837D01*
X86988Y937753D01*
X86884Y937666D01*
X86783Y937575D01*
X86685Y937483D01*
X86590Y937387D01*
X86497Y937288D01*
X86407Y937187D01*
X86320Y937084D01*
X86236Y936978D01*
X86155Y936870D01*
X86077Y936759D01*
X86002Y936646D01*
X85931Y936531D01*
X85863Y936415D01*
X85798Y936296D01*
X85737Y936175D01*
X85679Y936053D01*
X85625Y935929D01*
X85574Y935804D01*
X85527Y935677D01*
X85483Y935549D01*
X92441Y932275D02*
X92529Y932362D01*
X92614Y932451D01*
X92697Y932542D01*
X92776Y932636D01*
X92853Y932733D01*
X92926Y932832D01*
X92996Y932933D01*
X93063Y933037D01*
X93127Y933142D01*
X93188Y933249D01*
X93245Y933358D01*
X93299Y933469D01*
X93349Y933582D01*
X93396Y933696D01*
X93439Y933811D01*
X93479Y933928D01*
X93515Y934046D01*
X93547Y934164D01*
X93575Y934284D01*
X93600Y934405D01*
X93621Y934526D01*
X93638Y934648D01*
X93652Y934771D01*
X93661Y934894D01*
X93667Y935017D01*
X93669Y935140D01*
X92441Y932275D02*
X85484Y924091D01*
X93668Y924091D01*
X100350Y931457D02*
X100353Y931747D01*
X100364Y932036D01*
X100381Y932326D01*
X100405Y932615D01*
X100436Y932903D01*
X100474Y933190D01*
X100519Y933476D01*
X100571Y933762D01*
X100629Y934045D01*
X100694Y934328D01*
X100766Y934609D01*
X100845Y934888D01*
X100930Y935165D01*
X101022Y935439D01*
X101120Y935712D01*
X101225Y935982D01*
X101336Y936250D01*
X101454Y936515D01*
X101578Y936777D01*
X101614Y936878D01*
X101654Y936977D01*
X101698Y937075D01*
X101745Y937172D01*
X101796Y937267D01*
X101849Y937359D01*
X101907Y937450D01*
X101967Y937539D01*
X102030Y937626D01*
X102097Y937710D01*
X102166Y937792D01*
X102238Y937871D01*
X102313Y937948D01*
X102391Y938022D01*
X102471Y938094D01*
X102554Y938162D01*
X102639Y938227D01*
X102726Y938290D01*
X102815Y938349D01*
X102907Y938405D01*
X103000Y938458D01*
X103096Y938507D01*
X103193Y938553D01*
X103291Y938596D01*
X103391Y938635D01*
X103492Y938670D01*
X103595Y938702D01*
X103698Y938730D01*
X103803Y938755D01*
X103908Y938776D01*
X104014Y938793D01*
X104121Y938806D01*
X104228Y938815D01*
X104335Y938821D01*
X104442Y938823D01*
X104549Y938821D01*
X104656Y938815D01*
X104763Y938806D01*
X104870Y938793D01*
X104976Y938776D01*
X105081Y938755D01*
X105186Y938730D01*
X105289Y938702D01*
X105392Y938670D01*
X105493Y938635D01*
X105593Y938596D01*
X105691Y938553D01*
X105788Y938507D01*
X105884Y938458D01*
X105977Y938405D01*
X106069Y938349D01*
X106158Y938290D01*
X106245Y938227D01*
X106330Y938162D01*
X106413Y938094D01*
X106493Y938022D01*
X106571Y937948D01*
X106646Y937871D01*
X106718Y937792D01*
X106787Y937710D01*
X106854Y937626D01*
X106917Y937539D01*
X106977Y937450D01*
X107035Y937359D01*
X107088Y937267D01*
X107139Y937172D01*
X107186Y937075D01*
X107230Y936977D01*
X107270Y936878D01*
X107306Y936777D01*
X107430Y936515D01*
X107548Y936250D01*
X107659Y935982D01*
X107764Y935712D01*
X107862Y935440D01*
X107954Y935165D01*
X108039Y934888D01*
X108118Y934609D01*
X108190Y934328D01*
X108255Y934045D01*
X108313Y933762D01*
X108365Y933476D01*
X108410Y933190D01*
X108448Y932903D01*
X108479Y932615D01*
X108503Y932326D01*
X108520Y932036D01*
X108531Y931747D01*
X108534Y931457D01*
X100350Y931457D02*
X100353Y931167D01*
X100364Y930878D01*
X100381Y930588D01*
X100405Y930299D01*
X100436Y930011D01*
X100474Y929724D01*
X100519Y929438D01*
X100571Y929153D01*
X100629Y928869D01*
X100694Y928586D01*
X100766Y928305D01*
X100845Y928027D01*
X100930Y927750D01*
X101022Y927475D01*
X101120Y927202D01*
X101225Y926932D01*
X101336Y926664D01*
X101454Y926399D01*
X101578Y926137D01*
X101614Y926036D01*
X101654Y925937D01*
X101698Y925838D01*
X101745Y925742D01*
X101796Y925647D01*
X101849Y925555D01*
X101907Y925464D01*
X101967Y925375D01*
X102030Y925288D01*
X102097Y925204D01*
X102166Y925122D01*
X102238Y925043D01*
X102313Y924966D01*
X102391Y924892D01*
X102471Y924820D01*
X102554Y924752D01*
X102639Y924687D01*
X102726Y924624D01*
X102815Y924565D01*
X102907Y924509D01*
X103000Y924456D01*
X103096Y924407D01*
X103193Y924361D01*
X103291Y924318D01*
X103391Y924279D01*
X103492Y924244D01*
X103595Y924212D01*
X103698Y924184D01*
X103803Y924159D01*
X103908Y924138D01*
X104014Y924121D01*
X104121Y924108D01*
X104228Y924099D01*
X104335Y924093D01*
X104442Y924091D01*
X107306Y926137D02*
X107430Y926399D01*
X107548Y926664D01*
X107659Y926932D01*
X107764Y927202D01*
X107862Y927475D01*
X107954Y927749D01*
X108039Y928026D01*
X108118Y928305D01*
X108190Y928586D01*
X108255Y928869D01*
X108313Y929152D01*
X108365Y929438D01*
X108410Y929724D01*
X108448Y930011D01*
X108479Y930299D01*
X108503Y930588D01*
X108520Y930878D01*
X108531Y931167D01*
X108534Y931457D01*
X107306Y926137D02*
X107270Y926036D01*
X107230Y925937D01*
X107186Y925839D01*
X107139Y925742D01*
X107088Y925647D01*
X107035Y925555D01*
X106977Y925464D01*
X106917Y925375D01*
X106854Y925288D01*
X106787Y925204D01*
X106718Y925122D01*
X106646Y925043D01*
X106571Y924966D01*
X106493Y924892D01*
X106413Y924820D01*
X106330Y924752D01*
X106245Y924687D01*
X106158Y924624D01*
X106069Y924565D01*
X105977Y924509D01*
X105884Y924456D01*
X105788Y924407D01*
X105691Y924361D01*
X105593Y924318D01*
X105493Y924279D01*
X105392Y924244D01*
X105289Y924212D01*
X105186Y924184D01*
X105081Y924159D01*
X104976Y924138D01*
X104870Y924121D01*
X104763Y924108D01*
X104656Y924099D01*
X104549Y924093D01*
X104442Y924091D01*
X101168Y927365D02*
X107716Y935549D01*
X119717Y938823D02*
X119838Y938821D01*
X119958Y938815D01*
X120078Y938805D01*
X120198Y938791D01*
X120317Y938774D01*
X120436Y938752D01*
X120553Y938727D01*
X120670Y938698D01*
X120786Y938664D01*
X120901Y938628D01*
X121014Y938587D01*
X121126Y938543D01*
X121237Y938495D01*
X121346Y938443D01*
X121453Y938388D01*
X121559Y938330D01*
X121662Y938268D01*
X121763Y938202D01*
X121862Y938134D01*
X121959Y938062D01*
X122053Y937987D01*
X122145Y937909D01*
X122235Y937828D01*
X122321Y937744D01*
X122405Y937658D01*
X122486Y937568D01*
X122564Y937476D01*
X122639Y937382D01*
X122711Y937285D01*
X122779Y937186D01*
X122845Y937085D01*
X122907Y936982D01*
X122965Y936876D01*
X123020Y936769D01*
X123072Y936660D01*
X123120Y936549D01*
X123164Y936437D01*
X123205Y936324D01*
X123241Y936209D01*
X123275Y936093D01*
X123304Y935976D01*
X123329Y935859D01*
X123351Y935740D01*
X123368Y935621D01*
X123382Y935501D01*
X123392Y935381D01*
X123398Y935261D01*
X123400Y935140D01*
X119717Y938823D02*
X119582Y938821D01*
X119447Y938815D01*
X119312Y938806D01*
X119177Y938792D01*
X119043Y938775D01*
X118909Y938754D01*
X118777Y938729D01*
X118644Y938700D01*
X118513Y938667D01*
X118383Y938631D01*
X118254Y938591D01*
X118126Y938547D01*
X117999Y938500D01*
X117874Y938449D01*
X117750Y938395D01*
X117628Y938337D01*
X117507Y938275D01*
X117389Y938210D01*
X117272Y938142D01*
X117157Y938071D01*
X117044Y937996D01*
X116934Y937918D01*
X116826Y937837D01*
X116720Y937753D01*
X116616Y937666D01*
X116515Y937575D01*
X116417Y937483D01*
X116322Y937387D01*
X116229Y937288D01*
X116139Y937187D01*
X116052Y937084D01*
X115968Y936978D01*
X115887Y936870D01*
X115809Y936759D01*
X115734Y936646D01*
X115663Y936531D01*
X115595Y936415D01*
X115530Y936296D01*
X115469Y936175D01*
X115411Y936053D01*
X115357Y935929D01*
X115306Y935804D01*
X115259Y935677D01*
X115215Y935549D01*
X122172Y932275D02*
X122260Y932362D01*
X122345Y932451D01*
X122428Y932542D01*
X122507Y932636D01*
X122584Y932733D01*
X122657Y932832D01*
X122727Y932933D01*
X122794Y933037D01*
X122858Y933142D01*
X122919Y933249D01*
X122976Y933358D01*
X123030Y933469D01*
X123080Y933582D01*
X123127Y933696D01*
X123170Y933811D01*
X123210Y933928D01*
X123246Y934046D01*
X123278Y934164D01*
X123306Y934284D01*
X123331Y934405D01*
X123352Y934526D01*
X123369Y934648D01*
X123383Y934771D01*
X123392Y934894D01*
X123398Y935017D01*
X123400Y935140D01*
X122172Y932275D02*
X115216Y924091D01*
X123400Y924091D01*
X130081Y935549D02*
X134173Y938823D01*
X134173Y924091D01*
X130081Y924091D02*
X138266Y924091D01*
X157377Y938823D02*
X157498Y938821D01*
X157618Y938815D01*
X157738Y938805D01*
X157858Y938791D01*
X157977Y938774D01*
X158096Y938752D01*
X158213Y938727D01*
X158330Y938698D01*
X158446Y938664D01*
X158561Y938628D01*
X158674Y938587D01*
X158786Y938543D01*
X158897Y938495D01*
X159006Y938443D01*
X159113Y938388D01*
X159219Y938330D01*
X159322Y938268D01*
X159423Y938202D01*
X159522Y938134D01*
X159619Y938062D01*
X159713Y937987D01*
X159805Y937909D01*
X159895Y937828D01*
X159981Y937744D01*
X160065Y937658D01*
X160146Y937568D01*
X160224Y937476D01*
X160299Y937382D01*
X160371Y937285D01*
X160439Y937186D01*
X160505Y937085D01*
X160567Y936982D01*
X160625Y936876D01*
X160680Y936769D01*
X160732Y936660D01*
X160780Y936549D01*
X160824Y936437D01*
X160865Y936324D01*
X160901Y936209D01*
X160935Y936093D01*
X160964Y935976D01*
X160989Y935859D01*
X161011Y935740D01*
X161028Y935621D01*
X161042Y935501D01*
X161052Y935381D01*
X161058Y935261D01*
X161060Y935140D01*
X157377Y938823D02*
X157242Y938821D01*
X157107Y938815D01*
X156972Y938806D01*
X156837Y938792D01*
X156703Y938775D01*
X156569Y938754D01*
X156437Y938729D01*
X156304Y938700D01*
X156173Y938667D01*
X156043Y938631D01*
X155914Y938591D01*
X155786Y938547D01*
X155659Y938500D01*
X155534Y938449D01*
X155410Y938395D01*
X155288Y938337D01*
X155167Y938275D01*
X155049Y938210D01*
X154932Y938142D01*
X154817Y938071D01*
X154704Y937996D01*
X154594Y937918D01*
X154486Y937837D01*
X154380Y937753D01*
X154276Y937666D01*
X154175Y937575D01*
X154077Y937483D01*
X153982Y937387D01*
X153889Y937288D01*
X153799Y937187D01*
X153712Y937084D01*
X153628Y936978D01*
X153547Y936870D01*
X153469Y936759D01*
X153394Y936646D01*
X153323Y936531D01*
X153255Y936415D01*
X153190Y936296D01*
X153129Y936175D01*
X153071Y936053D01*
X153017Y935929D01*
X152966Y935804D01*
X152919Y935677D01*
X152875Y935549D01*
X159832Y932275D02*
X159920Y932362D01*
X160005Y932451D01*
X160088Y932542D01*
X160167Y932636D01*
X160244Y932733D01*
X160317Y932832D01*
X160387Y932933D01*
X160454Y933037D01*
X160518Y933142D01*
X160579Y933249D01*
X160636Y933358D01*
X160690Y933469D01*
X160740Y933582D01*
X160787Y933696D01*
X160830Y933811D01*
X160870Y933928D01*
X160906Y934046D01*
X160938Y934164D01*
X160966Y934284D01*
X160991Y934405D01*
X161012Y934526D01*
X161029Y934648D01*
X161043Y934771D01*
X161052Y934894D01*
X161058Y935017D01*
X161060Y935140D01*
X159832Y932275D02*
X152875Y924091D01*
X161060Y924091D01*
X167741Y935549D02*
X171833Y938823D01*
X171833Y924091D01*
X167741Y924091D02*
X175926Y924091D01*
X182326Y925319D02*
X182326Y926137D01*
X183144Y926137D01*
X183144Y925319D01*
X182326Y925319D01*
X182326Y931866D02*
X182326Y932685D01*
X183144Y932685D01*
X183144Y931866D01*
X182326Y931866D01*
X189544Y927365D02*
X192818Y938823D01*
X189544Y927365D02*
X197729Y927365D01*
X195273Y930639D02*
X195273Y924091D01*
X208911Y938823D02*
X209032Y938821D01*
X209152Y938815D01*
X209272Y938805D01*
X209392Y938791D01*
X209511Y938774D01*
X209630Y938752D01*
X209747Y938727D01*
X209864Y938698D01*
X209980Y938664D01*
X210095Y938628D01*
X210208Y938587D01*
X210320Y938543D01*
X210431Y938495D01*
X210540Y938443D01*
X210647Y938388D01*
X210753Y938330D01*
X210856Y938268D01*
X210957Y938202D01*
X211056Y938134D01*
X211153Y938062D01*
X211247Y937987D01*
X211339Y937909D01*
X211429Y937828D01*
X211515Y937744D01*
X211599Y937658D01*
X211680Y937568D01*
X211758Y937476D01*
X211833Y937382D01*
X211905Y937285D01*
X211973Y937186D01*
X212039Y937085D01*
X212101Y936982D01*
X212159Y936876D01*
X212214Y936769D01*
X212266Y936660D01*
X212314Y936549D01*
X212358Y936437D01*
X212399Y936324D01*
X212435Y936209D01*
X212469Y936093D01*
X212498Y935976D01*
X212523Y935859D01*
X212545Y935740D01*
X212562Y935621D01*
X212576Y935501D01*
X212586Y935381D01*
X212592Y935261D01*
X212594Y935140D01*
X208911Y938823D02*
X208776Y938821D01*
X208641Y938815D01*
X208506Y938806D01*
X208371Y938792D01*
X208237Y938775D01*
X208103Y938754D01*
X207971Y938729D01*
X207838Y938700D01*
X207707Y938667D01*
X207577Y938631D01*
X207448Y938591D01*
X207320Y938547D01*
X207193Y938500D01*
X207068Y938449D01*
X206944Y938395D01*
X206822Y938337D01*
X206701Y938275D01*
X206583Y938210D01*
X206466Y938142D01*
X206351Y938071D01*
X206238Y937996D01*
X206128Y937918D01*
X206020Y937837D01*
X205914Y937753D01*
X205810Y937666D01*
X205709Y937575D01*
X205611Y937483D01*
X205516Y937387D01*
X205423Y937288D01*
X205333Y937187D01*
X205246Y937084D01*
X205162Y936978D01*
X205081Y936870D01*
X205003Y936759D01*
X204928Y936646D01*
X204857Y936531D01*
X204789Y936415D01*
X204724Y936296D01*
X204663Y936175D01*
X204605Y936053D01*
X204551Y935929D01*
X204500Y935804D01*
X204453Y935677D01*
X204409Y935549D01*
X211367Y932275D02*
X211455Y932362D01*
X211540Y932451D01*
X211623Y932542D01*
X211702Y932636D01*
X211779Y932733D01*
X211852Y932832D01*
X211922Y932933D01*
X211989Y933037D01*
X212053Y933142D01*
X212114Y933249D01*
X212171Y933358D01*
X212225Y933469D01*
X212275Y933582D01*
X212322Y933696D01*
X212365Y933811D01*
X212405Y933928D01*
X212441Y934046D01*
X212473Y934164D01*
X212501Y934284D01*
X212526Y934405D01*
X212547Y934526D01*
X212564Y934648D01*
X212578Y934771D01*
X212587Y934894D01*
X212593Y935017D01*
X212595Y935140D01*
X211367Y932275D02*
X204410Y924091D01*
X212594Y924091D01*
D22*
X73000Y620000D03*
X73000Y580000D03*
X73000Y540000D03*
X507000Y580000D03*
X507000Y620000D03*
X507000Y540000D03*
D23*
X290000Y592700D03*
D24*
X290000Y567300D03*
D18*
X222000Y580000D03*
X222000Y555000D03*
X222000Y605000D03*
X258000Y580000D03*
X258000Y555000D03*
X258000Y605000D03*
X322000Y580000D03*
X322000Y555000D03*
X322000Y605000D03*
X358000Y580000D03*
X358000Y555000D03*
X358000Y605000D03*
D25*
X51000Y433300D03*
D26*
X51000Y458700D03*
D13*
X25400Y396875D03*
X127000Y396875D03*
M02*
